<svg version="1.1" xmlns="http://www.w3.org/2000/svg" viewBox="0 0 1741.8061320123172 357.1608583692521" width="3483.6122640246344" height="714.3217167385042">
  <!-- svg-source:excalidraw -->
  
  <defs>
    <style class="style-fonts">
      @font-face {
        font-family: "Virgil";
        src: url("https://excalidraw.com/Virgil.woff2");
      }
      @font-face {
        font-family: "Cascadia";
        src: url("https://excalidraw.com/Cascadia.woff2");
      }
    </style>
    
  </defs>
  <rect x="0" y="0" width="1741.8061320123172" height="357.1608583692521" fill="#ffffff"></rect><g stroke-linecap="round" transform="translate(71.84264911135392 10.309278350515342) rotate(0 12.071116973872861 12.014314754698262)"><path d="M3.88 3.38 C3.88 3.38, 3.88 3.38, 3.88 3.38 M3.88 3.38 C3.88 3.38, 3.88 3.38, 3.88 3.38 M0.54 11.39 C3.42 9.79, 7.7 5.57, 10.35 0.55 M1.86 12.64 C4.48 8.57, 6.98 6.92, 10.66 1.56 M4.01 16.06 C7.06 12.22, 10.07 9.78, 16.45 2.33 M1.8 17.49 C5.87 12.79, 8.54 11.01, 15.31 3.28 M4.52 19.88 C7.4 18.03, 13.08 10.88, 17.94 5.32 M3.98 20.7 C8.29 16.9, 12.94 10.7, 18.82 3.66 M8.54 22.1 C9.05 18.56, 14.98 16.36, 21.74 5.59 M7.47 23.45 C11.92 18.7, 16.31 12.76, 22.72 5.73 M9.48 26.04 C13.45 23.07, 15.64 18.45, 23.41 8.99 M11.34 24.74 C15.19 21.51, 17.56 18.2, 24.81 10.16" stroke="#12b886" stroke-width="0.5" fill="none"></path><path d="M9.83 1.06 C12.05 0.7, 16.06 1.62, 18.43 2.91 C20.8 4.21, 23.27 6.56, 24.06 8.82 C24.86 11.08, 24.37 14.18, 23.2 16.48 C22.02 18.78, 19.48 21.42, 17.01 22.63 C14.54 23.85, 10.91 24.49, 8.36 23.74 C5.81 23, 3.03 20.25, 1.69 18.16 C0.36 16.07, -0.07 13.72, 0.35 11.2 C0.77 8.67, 2.4 4.93, 4.2 3.02 C5.99 1.1, 9.77 0.04, 11.11 -0.29 C12.44 -0.61, 12.26 0.79, 12.18 1.08 M10.85 0.23 C13.01 0.31, 16.35 2.17, 18.64 3.57 C20.93 4.96, 24.18 6.38, 24.6 8.62 C25.03 10.85, 22.43 14.47, 21.2 16.96 C19.96 19.45, 19.28 22.52, 17.22 23.58 C15.16 24.64, 11.63 24.47, 8.83 23.33 C6.03 22.2, 1.69 19.18, 0.41 16.76 C-0.87 14.34, 0.56 11.05, 1.14 8.81 C1.71 6.57, 1.86 4.8, 3.87 3.32 C5.87 1.85, 11.68 0.39, 13.17 -0.03 C14.65 -0.45, 12.72 0.7, 12.77 0.78" stroke="#495057" stroke-width="1" fill="none"></path></g><g stroke-linecap="round"><g transform="translate(83.85696386605275 34.337907859911866) rotate(0 0.3715382672930616 16.791007204993548)" fill-rule="evenodd"><path d="M-7.84 -0.19 C-7.84 -0.19, -7.84 -0.19, -7.84 -0.19 M-7.84 -0.19 C-7.84 -0.19, -7.84 -0.19, -7.84 -0.19 M-11.63 11.75 C-9.61 9.23, -9.66 5.6, -1.91 -0.9 M-12.71 11.82 C-9.83 9.08, -7.84 5.63, -2.64 0.15 M-14.81 19.32 C-9.14 14.57, -5.43 7.87, 2.31 -0.27 M-12.32 17.23 C-9.56 14.28, -6.9 11.1, 1.95 2.03 M-13.57 27.03 C-9.55 20.04, -5.98 14.34, 6.74 -2.58 M-16.08 26.72 C-6.68 17.28, 0.26 8.63, 8.41 -0.15 M-15.75 32.7 C-4.14 23.36, 3.29 9.55, 11.67 4.23 M-16.44 33.44 C-9.93 26.93, -4.44 20.64, 9.74 3.46 M-9.82 34.74 C-4.63 25.13, 4.42 18.15, 13.18 6.69 M-11.01 34.78 C-6.05 27.24, 0.43 20.16, 12.18 8.36 M-9.24 37.56 C0.33 27.23, 6.76 18.99, 12.26 11.27 M-8.06 36.64 C-2.28 29.31, 4.54 20.75, 13.32 12.45 M-1.99 35.43 C0.73 31.18, 3.88 27.46, 14.7 15.9 M-3.04 36.25 C3.72 30.31, 8.96 23.81, 15.05 16.32 M0.75 38.34 C4.14 32.21, 6.84 30.59, 16.97 19.66 M1.96 36.83 C4.38 33.35, 8.6 30.88, 16.59 19.94 M8.84 35.16 C11.02 33.14, 12.25 31.71, 17 25.08 M7.9 36.88 C11.05 32.07, 15.13 28.79, 17.96 25.55" stroke="#12b886" stroke-width="0.5" fill="none"></path><path d="M-0.77 -0.27 C0.89 -0.14, 6.52 -4.9, 9.14 0.68 C11.75 6.26, 19.19 27.82, 14.93 33.22 C10.68 38.63, -12.67 38.62, -16.41 33.12 C-20.16 27.62, -10.27 5.82, -7.52 0.23 C-4.77 -5.36, -1.09 -0.36, 0.08 -0.43 M1.03 -1.45 C2.7 -1.67, 6.07 -6.58, 8.78 -1.09 C11.48 4.4, 21.45 26.13, 17.26 31.5 C13.07 36.87, -12.04 36.26, -16.37 31.13 C-20.7 26, -11.72 6.21, -8.74 0.74 C-5.75 -4.73, 0.1 -1.3, 1.54 -1.69" stroke="#495057" stroke-width="1" fill="none"></path></g></g><mask></mask><g transform="translate(18.61668019480328 92.83869342079947) rotate(0 70.3125 12)"><text x="0" y="0" font-family="Cascadia, Segoe UI Emoji" font-size="20px" fill="#1e1e1e" text-anchor="start" style="white-space: pre;" direction="ltr" dominant-baseline="text-before-edge">0% End Users</text></g><g stroke-linecap="round" transform="translate(594.227171805155 10) rotate(0 12.071116973872847 12.014314754698262)"><path d="M2.81 6.42 C2.81 6.42, 2.81 6.42, 2.81 6.42 M2.81 6.42 C2.81 6.42, 2.81 6.42, 2.81 6.42 M0.37 15.35 C3.83 9.13, 8.62 5.17, 10.22 2.93 M1.8 13.74 C4.38 9.6, 8.96 6.31, 10.91 3.45 M1.93 19.19 C5.91 11.79, 13.8 9.53, 18.36 3.04 M3.65 17.91 C7.25 12.33, 11.92 7.82, 18.18 0.59 M6.94 21.07 C10.45 16.7, 11.42 13.04, 21.11 4.51 M5.05 21.69 C8.38 18.51, 12.89 13.1, 20.26 3.68 M8.73 24.21 C15.97 18.26, 20.54 11.08, 24.6 9.64 M9.12 23.88 C13.31 19.29, 17.81 15.1, 23.32 8.49 M11.37 27.13 C17.08 22.45, 21.35 18.29, 24.21 14.23 M12.12 26.39 C16.4 21.53, 19.32 17.11, 23.59 13.53" stroke="#12b886" stroke-width="0.5" fill="none"></path><path d="M8.32 0.81 C10.5 -0.29, 14.59 -1.04, 16.84 -0.05 C19.1 0.94, 20.79 4.3, 21.88 6.76 C22.96 9.23, 23.66 12.28, 23.36 14.75 C23.05 17.21, 22.12 20.07, 20.07 21.56 C18.02 23.05, 13.78 23.81, 11.06 23.69 C8.34 23.57, 5.7 22.56, 3.77 20.85 C1.83 19.13, -0.36 15.77, -0.54 13.4 C-0.73 11.02, 1.03 8.92, 2.66 6.59 C4.3 4.26, 7.64 0.29, 9.25 -0.61 C10.86 -1.5, 12.3 0.89, 12.32 1.2 M7.92 -0.81 C10.11 -1.6, 14.08 0.39, 16.45 1.39 C18.81 2.38, 21.02 2.92, 22.09 5.17 C23.17 7.42, 23.19 12.07, 22.92 14.87 C22.64 17.68, 22.22 20.53, 20.46 21.99 C18.69 23.44, 14.97 23.99, 12.34 23.6 C9.7 23.21, 6.78 21.05, 4.65 19.65 C2.52 18.24, 0.17 17.38, -0.46 15.17 C-1.09 12.95, -0.65 8.61, 0.85 6.36 C2.34 4.1, 7.14 2.59, 8.53 1.66 C9.92 0.72, 9.18 0.64, 9.18 0.76" stroke="#495057" stroke-width="1" fill="none"></path></g><g stroke-linecap="round"><g transform="translate(606.2414865598539 34.028629509396524) rotate(0 0.18859026281114666 16.693320712759828)" fill-rule="evenodd"><path d="M-7.84 -0.19 C-7.84 -0.19, -7.84 -0.19, -7.84 -0.19 M-7.84 -0.19 C-7.84 -0.19, -7.84 -0.19, -7.84 -0.19 M-11.88 12.1 C-9.85 8.42, -7.57 4.83, -3.46 1.47 M-12.19 11.95 C-10.43 8.72, -7.69 5.63, -3.06 -0.57 M-12.49 16.05 C-7.25 13.77, -2.8 9.97, -0.42 -0.13 M-12.02 17.32 C-9.71 13.46, -7.11 11.17, 0.49 1.77 M-16.44 26.49 C-10.58 19, -4.04 14.75, 8.49 1.13 M-15.96 27.43 C-5.86 16.26, 3.33 6.3, 8.95 -1.26 M-16.98 34.79 C-7.74 26.13, -0.85 19.04, 11 2.29 M-15.96 32.07 C-5.13 22.35, 3.14 10.79, 10.87 3.18 M-12.64 33.55 C-2.87 24.98, 6.39 12.82, 10.37 6.79 M-10.89 34.84 C-5.52 27.41, 0.4 20.84, 12.61 7.44 M-7.67 38.1 C-2.78 31.15, 6.07 21.98, 14.03 10.8 M-7.96 37.51 C-0.79 29.36, 6.06 21.42, 14.21 11.87 M-1.61 38.39 C2.44 32.87, 6.4 27.94, 13.5 18.66 M-3.13 36.78 C0.29 31.89, 6.02 27.3, 14.4 17.2 M2.05 36.86 C4.3 33.68, 10.98 26.2, 18.16 20.65 M1.33 36.94 C5.82 33.07, 9.71 27.24, 15.62 21.09 M8.34 35.42 C10.09 33.6, 13.96 30.48, 17.8 26.58 M8.4 35.74 C10.82 33.29, 13.91 29.35, 17.63 25.26" stroke="#12b886" stroke-width="0.5" fill="none"></path><path d="M-0.11 -0.76 C1.23 -0.81, 6.45 -5.21, 9.15 0.3 C11.84 5.81, 20.19 27.18, 16.06 32.29 C11.92 37.4, -11.48 36.25, -15.66 30.96 C-19.83 25.66, -11.51 5.63, -9 0.52 C-6.5 -4.58, -2.25 0.41, -0.64 0.34 M-1.62 1.45 C-0.44 0.98, 5.98 -7.04, 8.8 -1.66 C11.62 3.72, 19.32 28.22, 15.31 33.74 C11.31 39.27, -11.45 36.92, -15.22 31.49 C-19 26.07, -9.94 6.52, -7.33 1.19 C-4.73 -4.14, -1.06 -0.13, 0.43 -0.52" stroke="#495057" stroke-width="1" fill="none"></path></g></g><mask></mask><g transform="translate(541.0012028886044 92.52941507028413) rotate(0 76.171875 12)"><text x="0" y="0" font-family="Cascadia, Segoe UI Emoji" font-size="20px" fill="#1e1e1e" text-anchor="start" style="white-space: pre;" direction="ltr" dominant-baseline="text-before-edge">25% End Users</text></g><g stroke-linecap="round" transform="translate(1089.7941821144332 16.907216494845443) rotate(0 12.071116973872904 12.014314754698262)"><path d="M-0.4 8.93 C-0.4 8.93, -0.4 8.93, -0.4 8.93 M-0.4 8.93 C-0.4 8.93, -0.4 8.93, -0.4 8.93 M1.24 12.69 C2.18 10.88, 5.77 9.06, 8.68 5.7 M0.93 14.15 C3.1 11.94, 4.69 9.98, 8.16 5.18 M1.6 18.62 C8.32 12.01, 11.5 5.47, 17.06 3.67 M3.15 17.2 C8.92 11.57, 13.61 5.09, 14.68 3.65 M6.02 21.23 C11.08 13.83, 13.52 10.08, 19.19 5.46 M6.49 19.53 C10.6 14.94, 14.89 9.54, 19.3 4.38 M7.02 22.18 C13.13 15.95, 17.54 10.15, 22.42 6.65 M7.61 22.24 C12.57 20.26, 14.5 15.98, 24.25 6.3 M13.83 23.92 C16.73 18.59, 21.28 15.98, 22.49 9.92 M13.26 25.08 C14.37 21.56, 17.69 18.51, 24.32 11.05" stroke="#12b886" stroke-width="0.5" fill="none"></path><path d="M12.53 0.62 C15.03 0.73, 19.67 2.27, 21.56 4.01 C23.45 5.75, 23.72 8.68, 23.85 11.05 C23.97 13.43, 23.65 16, 22.3 18.26 C20.95 20.52, 18.2 23.96, 15.74 24.62 C13.28 25.27, 9.96 23.62, 7.54 22.18 C5.12 20.74, 2.51 18.22, 1.23 15.97 C-0.06 13.72, -0.93 10.97, -0.17 8.67 C0.58 6.37, 3.28 3.48, 5.73 2.17 C8.19 0.86, 12.95 0.99, 14.53 0.82 C16.11 0.65, 15.24 1.1, 15.2 1.13 M6.09 1.92 C8.39 0.47, 12.22 -1.05, 14.88 -0.48 C17.55 0.09, 20.77 3.19, 22.06 5.34 C23.35 7.49, 23.01 10.02, 22.63 12.43 C22.25 14.84, 21.1 17.9, 19.76 19.78 C18.43 21.66, 16.75 23.47, 14.62 23.71 C12.49 23.96, 9.27 22.6, 7.01 21.26 C4.74 19.91, 1.92 17.75, 1.05 15.64 C0.18 13.53, 0.91 11.09, 1.78 8.6 C2.65 6.1, 5.57 1.87, 6.3 0.65 C7.02 -0.57, 6.1 0.95, 6.13 1.26" stroke="#495057" stroke-width="1" fill="none"></path></g><g stroke-linecap="round"><g transform="translate(1101.8084968691321 40.93584600424197) rotate(0 1.0769103882236095 16.466873633858995)" fill-rule="evenodd"><path d="M-7.84 -0.19 C-7.84 -0.19, -7.84 -0.19, -7.84 -0.19 M-7.84 -0.19 C-7.84 -0.19, -7.84 -0.19, -7.84 -0.19 M-13.91 11.14 C-8.24 7.4, -4.42 2.84, -2.36 0.17 M-13.05 11.25 C-9.42 7.19, -5.72 3.74, -2.3 0.63 M-12.4 19.07 C-8.51 13.51, -4.09 9.39, 2.72 -0.58 M-13.18 18.8 C-7.75 11.86, -2.09 5.76, 2.04 0.74 M-16.15 28.19 C-6.66 17.44, 3.11 6.55, 8.34 -1.06 M-14.68 26.91 C-6.24 16.32, 1.75 8.32, 8.05 -0.02 M-15.07 31.8 C-10.64 27.91, -3.27 21.52, 9.13 3.1 M-15.43 33.64 C-8.24 22.62, 1.45 14.27, 9.65 3.36 M-13.17 34.22 C-5.43 26.6, 2.92 19.59, 13.35 8.56 M-11.18 34.38 C-2.91 25.56, 4.32 16.21, 11.04 8.25 M-9.69 36.01 C-4.79 29.88, 2.86 23.67, 11.97 10.23 M-7.25 35.88 C-2.62 31.81, 2.18 26.01, 12.91 11.25 M-4.66 37.88 C4.04 27.97, 8.03 20.57, 14.49 16.68 M-3.02 37.09 C2.97 30.33, 9.06 22.46, 15.34 16.58 M0.46 38.46 C6.22 30.72, 11.01 26.03, 14.83 19.92 M2.64 37.84 C4.86 33.56, 8.14 30.17, 16.89 20.68 M7.54 36.83 C10.43 34.46, 12.77 29.36, 17.8 25.48 M8.69 36.35 C12.14 32.94, 14.94 28.22, 18.02 25.26" stroke="#12b886" stroke-width="0.5" fill="none"></path><path d="M-0.44 0.25 C0.82 0.5, 6.12 -5.07, 8.7 0.34 C11.29 5.75, 19.02 27.36, 15.06 32.71 C11.1 38.06, -11.15 37.93, -15.05 32.45 C-18.94 26.98, -10.93 5.43, -8.33 -0.14 C-5.73 -5.71, -0.98 -1.18, 0.55 -0.97 M1.53 -0.66 C2.59 -0.69, 5.46 -6.83, 8.12 -1.6 C10.77 3.63, 21.19 24.82, 17.45 30.72 C13.72 36.61, -10.33 38.87, -14.29 33.78 C-18.25 28.69, -8.45 5.62, -6.3 0.18 C-4.16 -5.26, -2.18 1.11, -1.4 1.14" stroke="#495057" stroke-width="1" fill="none"></path></g></g><mask></mask><g transform="translate(1036.5682131978826 99.43663156512957) rotate(0 76.171875 12)"><text x="0" y="0" font-family="Cascadia, Segoe UI Emoji" font-size="20px" fill="#1e1e1e" text-anchor="start" style="white-space: pre;" direction="ltr" dominant-baseline="text-before-edge">50% End Users</text></g><g stroke-linecap="round" transform="translate(1619.3818109804126 19.690721649484885) rotate(0 12.071116973872904 12.014314754698262)"><path d="M3.11 4.03 C3.11 4.03, 3.11 4.03, 3.11 4.03 M3.11 4.03 C3.11 4.03, 3.11 4.03, 3.11 4.03 M2.66 11.12 C4.99 8.91, 8.09 3.68, 12.85 1.62 M1.36 11.58 C4.63 9.24, 7.25 5.23, 11.98 0.52 M3.36 17.68 C6.62 14.18, 10.02 10.91, 15.78 1.77 M2.81 16.68 C7.07 12.95, 11.94 5.66, 14.79 2.24 M5.05 21.7 C9.24 14.07, 14.45 10.18, 19.47 3.23 M4.59 20.21 C10.23 14.11, 16.34 7.31, 18.69 4.36 M5.59 24.99 C12.57 17.34, 20.66 10.97, 21.77 5.76 M6.32 23.09 C13.87 16.75, 17.58 11.42, 21.85 6.16 M9.99 26.02 C15.01 21.92, 17.28 17.74, 26.1 10.45 M11.59 25.21 C14.24 21.67, 17.52 18.12, 24.83 8.89" stroke="#12b886" stroke-width="0.5" fill="none"></path><path d="M10.39 0.22 C12.88 -0.01, 16.94 1.32, 19.31 2.87 C21.67 4.43, 23.99 7.27, 24.57 9.55 C25.15 11.84, 24.08 14.34, 22.77 16.58 C21.46 18.82, 19.16 21.84, 16.72 23 C14.29 24.16, 10.73 24.2, 8.17 23.52 C5.6 22.83, 2.69 20.94, 1.35 18.88 C0.02 16.82, -0.2 13.66, 0.14 11.14 C0.47 8.62, 1.21 5.46, 3.34 3.77 C5.47 2.07, 11.07 1.67, 12.91 0.98 C14.75 0.29, 14.45 -0.25, 14.4 -0.36 M7.19 -0.38 C9.54 -1.83, 12.96 -1.53, 15.4 -0.61 C17.84 0.31, 20.14 2.68, 21.82 5.15 C23.51 7.61, 25.53 11.84, 25.51 14.17 C25.48 16.49, 23.78 17.63, 21.69 19.1 C19.6 20.57, 15.88 22.64, 12.97 23.01 C10.06 23.38, 6.45 22.51, 4.23 21.32 C2.02 20.13, 0.43 18.29, -0.31 15.87 C-1.04 13.44, -1.57 9.2, -0.18 6.76 C1.2 4.32, 6.93 2.01, 8.01 1.21 C9.1 0.42, 6.23 1.7, 6.32 1.96" stroke="#495057" stroke-width="1" fill="none"></path></g><g stroke-linecap="round"><g transform="translate(1631.3961257351116 43.71935115888141) rotate(0 0.9380077188026235 17.02713785846686)" fill-rule="evenodd"><path d="M-7.84 -0.19 C-7.84 -0.19, -7.84 -0.19, -7.84 -0.19 M-7.84 -0.19 C-7.84 -0.19, -7.84 -0.19, -7.84 -0.19 M-11.59 10.05 C-9.97 7.05, -7.79 4.12, -3.57 0.95 M-12.64 11.1 C-10.29 9.56, -8.21 7.07, -2.55 -0.26 M-14.84 17.8 C-9.13 12.76, -2.38 7.79, 0.55 0.28 M-12.44 18.14 C-8.46 12.97, -4.4 8.11, 0.66 0.95 M-13.91 25.85 C-6.54 18.36, 3.98 5.87, 10.33 -0.86 M-14.55 26.9 C-8.99 19.73, -2.17 10.79, 7.75 -0.32 M-15.27 34.78 C-5.51 22.54, 2.83 12.41, 10.27 1.94 M-14.5 33.09 C-5.93 21.22, 4.39 10.31, 9.59 3.65 M-13.04 35.13 C-3.44 25.72, 3.71 18.39, 11.65 6.2 M-11.85 34.88 C-3.79 25.19, 4.73 17.77, 12.66 7.07 M-7.8 38.65 C-3.09 30.77, 0.52 27.58, 14.66 11.15 M-8.46 35.71 C-2.81 30.93, 0.63 25.93, 14.43 12.04 M-2.74 36.75 C1.32 33.22, 6.53 24.91, 13.81 15.74 M-3.7 37.84 C2.45 29.7, 8.99 21.81, 15.54 17.62 M1.3 36.82 C8.72 30.8, 11.41 23.29, 17.22 18.82 M1.27 37.74 C5.7 32.52, 8.96 28.67, 16.09 21.22 M7.88 35.67 C10.7 33.55, 13.56 28.84, 18.38 24.33 M8.31 36.39 C10.9 33.25, 13.24 29.37, 16.85 26.05" stroke="#12b886" stroke-width="0.5" fill="none"></path><path d="M0.07 -0.2 C1.28 -0.2, 5.42 -5.51, 7.94 -0.1 C10.46 5.31, 19.13 26.76, 15.19 32.25 C11.26 37.74, -11.99 38.1, -15.7 32.84 C-19.4 27.59, -9.59 6.3, -7.02 0.72 C-4.45 -4.87, -1.35 -0.57, -0.26 -0.67 M-1.36 -1.35 C-0.37 -1.14, 3.79 -4.46, 6.96 1.38 C10.13 7.22, 21.36 28.79, 17.66 33.68 C13.95 38.57, -11.01 36.08, -15.28 30.71 C-19.55 25.34, -10.69 6.34, -7.97 1.48 C-5.26 -3.37, -0.3 2.04, 1.01 1.59" stroke="#495057" stroke-width="1" fill="none"></path></g></g><mask></mask><g transform="translate(1566.155842063862 102.22013671976902) rotate(0 82.03125 12)"><text x="0" y="0" font-family="Cascadia, Segoe UI Emoji" font-size="20px" fill="#1e1e1e" text-anchor="start" style="white-space: pre;" direction="ltr" dominant-baseline="text-before-edge">100% End Users</text></g><g stroke-linecap="round" transform="translate(10 209.11962125585137) rotate(0 86.08247422680412 42.268041237113266)"><path d="M3.16 8.04 C3.16 8.04, 3.16 8.04, 3.16 8.04 M3.16 8.04 C3.16 8.04, 3.16 8.04, 3.16 8.04 M0.93 16.71 C6.61 13.81, 6.13 7.45, 10.77 5.38 M0.93 16.71 C4.78 11.87, 6.7 9.56, 10.77 5.38 M0.67 23.1 C4.12 18.57, 10.66 14.3, 17.72 3.48 M0.67 23.1 C3.72 18.91, 8.21 16.36, 17.72 3.48 M1.06 28.75 C3.98 18.87, 11.59 12, 24.02 2.33 M1.06 28.75 C6.37 20.18, 13.87 15.85, 24.02 2.33 M0.8 35.14 C6.49 24.91, 13.57 14.5, 29.01 2.69 M0.8 35.14 C5.81 27.63, 15.34 19.25, 29.01 2.69 M1.19 40.79 C8.39 31.74, 19.61 20.05, 34.65 2.3 M1.19 40.79 C14.41 27.66, 26.77 11.17, 34.65 2.3 M0.93 47.19 C8.87 39.23, 19.57 23.72, 39.64 2.66 M0.93 47.19 C16.59 29.99, 30.15 14.5, 39.64 2.66 M0.67 53.58 C12.37 43.3, 22.39 26.51, 45.28 2.26 M0.67 53.58 C8.2 43.08, 19.12 33.09, 45.28 2.26 M1.06 59.23 C19.68 35.42, 39.36 18.59, 50.27 2.62 M1.06 59.23 C20.48 40.09, 37.24 18.02, 50.27 2.62 M0.8 65.62 C12.95 44.2, 25.94 26.93, 55.91 2.23 M0.8 65.62 C16.79 46.92, 35.19 24.53, 55.91 2.23 M2.51 69.76 C23.68 48.12, 44.26 22.59, 60.9 2.59 M2.51 69.76 C21.85 48.37, 39.67 26.63, 60.9 2.59 M3.56 74.65 C26.55 46.06, 50.85 18.08, 66.54 2.19 M3.56 74.65 C24.11 48.91, 44.57 24.85, 66.54 2.19 M5.27 78.78 C26.56 52, 43.61 28.79, 71.53 2.55 M5.27 78.78 C27.09 51.64, 49.33 27.71, 71.53 2.55 M8.29 81.4 C30.41 58.58, 47.78 37.02, 77.17 2.16 M8.29 81.4 C35.3 49.02, 62.09 20.63, 77.17 2.16 M11.3 84.03 C34.13 62.71, 51.1 34.34, 82.16 2.52 M11.3 84.03 C38.75 49.66, 66.41 16.54, 82.16 2.52 M15.64 85.14 C42.09 51.93, 72.48 18.39, 87.8 2.12 M15.64 85.14 C47.15 51.16, 73.79 20.15, 87.8 2.12 M21.28 84.75 C34.09 64.28, 53.17 47.31, 92.79 2.48 M21.28 84.75 C42.9 58.58, 67.44 33.74, 92.79 2.48 M26.92 84.35 C38.32 69.37, 56.74 52.71, 98.43 2.09 M26.92 84.35 C52.12 53.57, 80.71 22.1, 98.43 2.09 M31.91 84.71 C50.44 62.98, 66.74 45.1, 103.42 2.45 M31.91 84.71 C59.26 55.72, 88.53 22, 103.42 2.45 M36.9 85.07 C47.67 72.98, 69.97 54.27, 108.41 2.81 M36.9 85.07 C50.11 68.59, 67.77 52.02, 108.41 2.81 M42.54 84.68 C55.67 66.67, 70.84 53.03, 114.05 2.42 M42.54 84.68 C66.01 55.01, 88.67 30.23, 114.05 2.42 M47.53 85.04 C70.37 62.64, 87.64 39.01, 119.04 2.78 M47.53 85.04 C72.74 51.34, 100.5 22.58, 119.04 2.78 M53.17 84.64 C76.95 55.31, 106.71 24.24, 124.68 2.38 M53.17 84.64 C81.14 53.3, 106.97 25, 124.68 2.38 M58.16 85 C83.31 60.16, 113.24 24.92, 129.67 2.74 M58.16 85 C76.79 61.45, 100.06 36.76, 129.67 2.74 M63.8 84.61 C88.41 53.45, 114.78 26.21, 135.31 2.35 M63.8 84.61 C88.31 53.73, 111.66 23.48, 135.31 2.35 M68.79 84.97 C84.3 65.76, 96.03 53.24, 140.3 2.71 M68.79 84.97 C96.11 54.7, 124.22 22.78, 140.3 2.71 M74.43 84.58 C103.82 49.68, 130.87 21.99, 145.94 2.31 M74.43 84.58 C103.53 52.99, 129.67 19.27, 145.94 2.31 M79.42 84.94 C95.28 65.14, 111.72 49.42, 152.24 1.16 M79.42 84.94 C100.62 58.74, 121.98 33.5, 152.24 1.16 M85.06 84.54 C98.21 66.46, 118.57 45.77, 156.57 2.28 M85.06 84.54 C99.82 66.65, 116.31 49.17, 156.57 2.28 M90.05 84.9 C109.2 57.73, 125.91 39.92, 160.9 3.39 M90.05 84.9 C105.92 67.74, 119.01 52.65, 160.9 3.39 M95.69 84.51 C119.29 58.53, 135.61 35.73, 165.23 4.51 M95.69 84.51 C116 58.46, 139.01 32.84, 165.23 4.51 M100.68 84.87 C118.74 62.62, 140.42 41.71, 168.25 7.13 M100.68 84.87 C121.39 59.9, 144.38 33.57, 168.25 7.13 M106.32 84.47 C124.08 67.87, 135.51 46.86, 171.27 9.76 M106.32 84.47 C128.66 64.47, 146.26 38.96, 171.27 9.76 M111.31 84.83 C130.3 55.57, 154.54 34.3, 172.32 14.64 M111.31 84.83 C126.23 64.41, 145.84 45.6, 172.32 14.64 M116.95 84.44 C132.93 63.6, 142.74 48.94, 174.68 18.02 M116.95 84.44 C137.2 61.26, 157.49 35.69, 174.68 18.02 M121.94 84.8 C140.66 65.17, 160.04 43.2, 174.42 24.42 M121.94 84.8 C142.22 60.94, 162.09 37.47, 174.42 24.42 M127.58 84.4 C139.76 73.52, 152.38 58.99, 174.16 30.82 M127.58 84.4 C139.33 74.12, 149.74 59.8, 174.16 30.82 M132.57 84.76 C147.74 65.38, 167.97 49.3, 174.55 36.46 M132.57 84.76 C143.15 71.86, 153.02 61.92, 174.55 36.46 M138.21 84.37 C148.27 77.12, 157.86 64.52, 174.29 42.86 M138.21 84.37 C146.16 74.45, 152.61 66.84, 174.29 42.86 M143.2 84.73 C152.44 77.74, 158.27 70.98, 174.69 48.5 M143.2 84.73 C149.94 73.33, 158.98 65.3, 174.69 48.5 M148.84 84.33 C154.69 76.24, 160.67 67.88, 174.43 54.9 M148.84 84.33 C158.66 74.29, 165.8 63.18, 174.43 54.9 M152.51 86.2 C156.68 78.65, 165.96 70.98, 172.2 63.56 M152.51 86.2 C159.62 81, 162.25 72.2, 172.2 63.56 M159.47 84.3 C160.68 76.98, 165.06 77.76, 170.62 71.47 M159.47 84.3 C162.39 81.34, 164.42 78.18, 170.62 71.47" stroke="#ffc9c9" stroke-width="0.5" fill="none"></path><path d="M21.13 0 M21.13 0 C47.57 -2.68, 72.56 -3.95, 151.03 0 M21.13 0 C65.64 2.14, 107.99 2.53, 151.03 0 M151.03 0 C168.11 -3.35, 169.14 4.5, 172.16 21.13 M151.03 0 C167.62 4.1, 173.46 9.58, 172.16 21.13 M172.16 21.13 C172.84 33.03, 175.24 50.92, 172.16 63.4 M172.16 21.13 C172.15 36.51, 172.48 52.59, 172.16 63.4 M172.16 63.4 C175.52 76.74, 164.25 87.98, 151.03 84.54 M172.16 63.4 C168.85 81.56, 161.74 83.14, 151.03 84.54 M151.03 84.54 C104.71 82.85, 60.06 81.77, 21.13 84.54 M151.03 84.54 C109.35 81.44, 69.85 83.2, 21.13 84.54 M21.13 84.54 C4.69 82.97, 1.82 75.1, 0 63.4 M21.13 84.54 C5.82 86.02, -1.8 73.22, 0 63.4 M0 63.4 C-0.6 54.32, 2.11 42.58, 0 21.13 M0 63.4 C1.01 50.58, -1.5 35.62, 0 21.13 M0 21.13 C-1.63 9.13, 9.17 -1.5, 21.13 0 M0 21.13 C3.19 3.09, 11.62 2.42, 21.13 0" stroke="#e03131" stroke-width="1" fill="none"></path></g><g transform="translate(19.910599226804152 227.38766249296486) rotate(0 76.171875 24)"><text x="76.171875" y="0" font-family="Cascadia, Segoe UI Emoji" font-size="20px" fill="#e03131" text-anchor="middle" style="white-space: pre;" direction="ltr" dominant-baseline="text-before-edge">V2</text><text x="76.171875" y="24" font-family="Cascadia, Segoe UI Emoji" font-size="20px" fill="#e03131" text-anchor="middle" style="white-space: pre;" direction="ltr" dominant-baseline="text-before-edge">No Confidence</text></g><g stroke-linecap="round" transform="translate(533.4556165483998 207.7794150702839) rotate(0 86.0824742268041 42.26804123711338)"><path d="M21.13 0 M21.13 0 C60.07 -1.65, 91.88 4.76, 151.03 0 M21.13 0 C52.99 0.25, 89.62 -2.09, 151.03 0 M151.03 0 C163.6 2.13, 171.57 7.55, 172.16 21.13 M151.03 0 C162.18 -3.98, 168.05 3.18, 172.16 21.13 M172.16 21.13 C173.85 35.99, 169.7 50.14, 172.16 63.4 M172.16 21.13 C174.52 35.81, 171.93 51.33, 172.16 63.4 M172.16 63.4 C173.18 79.19, 163.2 81.74, 151.03 84.54 M172.16 63.4 C174.86 76.75, 164.94 81.81, 151.03 84.54 M151.03 84.54 C99.48 81.62, 57.19 85.98, 21.13 84.54 M151.03 84.54 C121.89 83.76, 97.82 87.46, 21.13 84.54 M21.13 84.54 C9.43 80.85, -0.78 73.5, 0 63.4 M21.13 84.54 C2.54 82.65, 1.94 76.8, 0 63.4 M0 63.4 C-2.01 54.01, -1.85 48.76, 0 21.13 M0 63.4 C0.24 48.4, -1 36.98, 0 21.13 M0 21.13 C-0.56 10.05, 4.31 3.62, 21.13 0 M0 21.13 C0.18 7.53, 7.12 4.02, 21.13 0" stroke="#2f9e44" stroke-width="1" fill="none"></path></g><g transform="translate(560.944340775204 214.0474563073974) rotate(0 58.59375 36)"><text x="58.59375" y="0" font-family="Cascadia, Segoe UI Emoji" font-size="20px" fill="#2f9e44" text-anchor="middle" style="white-space: pre;" direction="ltr" dominant-baseline="text-before-edge">V2</text><text x="58.59375" y="24" font-family="Cascadia, Segoe UI Emoji" font-size="20px" fill="#2f9e44" text-anchor="middle" style="white-space: pre;" direction="ltr" dominant-baseline="text-before-edge">Low </text><text x="58.59375" y="48" font-family="Cascadia, Segoe UI Emoji" font-size="20px" fill="#2f9e44" text-anchor="middle" style="white-space: pre;" direction="ltr" dominant-baseline="text-before-edge">Confidence</text></g><g stroke-linecap="round" transform="translate(1020.7752041772658 208.50106455482) rotate(0 86.08247422680415 42.26804123711338)"><path d="M21.13 0 M21.13 0 C67.84 1.46, 121.09 1.87, 151.03 0 M21.13 0 C70.42 0.79, 121.02 -1.32, 151.03 0 M151.03 0 C163.64 3.91, 173.89 9.58, 172.16 21.13 M151.03 0 C169.59 0.23, 172.45 6.22, 172.16 21.13 M172.16 21.13 C173.12 29.87, 175.38 44.95, 172.16 63.4 M172.16 21.13 C170.46 31.66, 170.95 46.7, 172.16 63.4 M172.16 63.4 C168.29 75.07, 168.41 80.94, 151.03 84.54 M172.16 63.4 C168.34 75.8, 167.5 82.88, 151.03 84.54 M151.03 84.54 C107.26 83.83, 64.62 82.33, 21.13 84.54 M151.03 84.54 C111.19 83.1, 72.95 84.11, 21.13 84.54 M21.13 84.54 C9.11 81.54, 1.67 75.21, 0 63.4 M21.13 84.54 C2.78 87.7, 2 76.79, 0 63.4 M0 63.4 C1.1 52.36, -1.08 43.72, 0 21.13 M0 63.4 C1.27 50.67, -1.16 41.48, 0 21.13 M0 21.13 C-1.47 10.8, 3.28 -0.37, 21.13 0 M0 21.13 C-2.59 10.57, 7.55 2.94, 21.13 0" stroke="#2f9e44" stroke-width="1" fill="none"></path></g><g transform="translate(1048.26392840407 214.76910579193327) rotate(0 58.59375 36)"><text x="58.59375" y="0" font-family="Cascadia, Segoe UI Emoji" font-size="20px" fill="#2f9e44" text-anchor="middle" style="white-space: pre;" direction="ltr" dominant-baseline="text-before-edge">V2</text><text x="58.59375" y="24" font-family="Cascadia, Segoe UI Emoji" font-size="20px" fill="#2f9e44" text-anchor="middle" style="white-space: pre;" direction="ltr" dominant-baseline="text-before-edge">Medium </text><text x="58.59375" y="48" font-family="Cascadia, Segoe UI Emoji" font-size="20px" fill="#2f9e44" text-anchor="middle" style="white-space: pre;" direction="ltr" dominant-baseline="text-before-edge">Confidence</text></g><g stroke-linecap="round" transform="translate(1559.641183558709 199.94436352389243) rotate(0 86.08247422680415 42.26804123711338)"><path d="M21.13 0 M21.13 0 C51.83 0.75, 84.9 5.36, 151.03 0 M21.13 0 C67.48 -1.04, 117.29 -0.3, 151.03 0 M151.03 0 C161.67 0.57, 168.28 8.76, 172.16 21.13 M151.03 0 C165.67 4.41, 171.55 10.88, 172.16 21.13 M172.16 21.13 C176.41 35.86, 171.59 43.44, 172.16 63.4 M172.16 21.13 C172.61 36.61, 171.93 53.91, 172.16 63.4 M172.16 63.4 C173.05 80.3, 164.27 84.06, 151.03 84.54 M172.16 63.4 C174.81 77.72, 163.24 84.89, 151.03 84.54 M151.03 84.54 C103.71 87.76, 65.13 85.45, 21.13 84.54 M151.03 84.54 C111.39 85.09, 75.32 85.3, 21.13 84.54 M21.13 84.54 C9.29 81.45, -3.16 79.74, 0 63.4 M21.13 84.54 C10.66 86.34, -0.13 73.9, 0 63.4 M0 63.4 C-0.7 50.44, -2.33 33.77, 0 21.13 M0 63.4 C1.05 54.29, -0.71 43.16, 0 21.13 M0 21.13 C3.47 8.95, 4.65 2.6, 21.13 0 M0 21.13 C-1.71 7.97, 7.18 -3.93, 21.13 0" stroke="#2f9e44" stroke-width="1" fill="none"></path></g><g transform="translate(1587.129907785513 206.2124047610057) rotate(0 58.59375 36)"><text x="58.59375" y="0" font-family="Cascadia, Segoe UI Emoji" font-size="20px" fill="#2f9e44" text-anchor="middle" style="white-space: pre;" direction="ltr" dominant-baseline="text-before-edge">V2</text><text x="58.59375" y="24" font-family="Cascadia, Segoe UI Emoji" font-size="20px" fill="#2f9e44" text-anchor="middle" style="white-space: pre;" direction="ltr" dominant-baseline="text-before-edge">Complete </text><text x="58.59375" y="48" font-family="Cascadia, Segoe UI Emoji" font-size="20px" fill="#2f9e44" text-anchor="middle" style="white-space: pre;" direction="ltr" dominant-baseline="text-before-edge">Confidence</text></g><g stroke-linecap="round" transform="translate(281.1875753112865 153.68663156512775) rotate(0 91 95.49999999999989)"><path d="M22.99 34.56 C22.99 34.56, 22.99 34.56, 22.99 34.56 M22.99 34.56 C22.99 34.56, 22.99 34.56, 22.99 34.56 M16.84 51.38 C20.58 40.83, 34.29 31.91, 44.97 15.96 M13.68 51.51 C22.59 40.77, 30.24 28.74, 41.83 16.66 M1.79 64.99 C19.58 47.23, 35.9 32.76, 53.61 11.89 M6.48 66.56 C16.48 51.94, 29.31 37.14, 52.04 15.12 M2.66 72.88 C18.64 59.05, 34.63 40.33, 63.08 10.76 M3.38 75.51 C22.9 54.63, 40 34.36, 59.01 9.89 M2.17 83.96 C27.99 59.99, 43.16 34.71, 64.98 5.67 M0.99 83.71 C17.89 62.18, 34.17 40.66, 69.08 8.28 M0.01 89.71 C26.56 56.33, 58.6 29.8, 71.84 9.31 M1.66 91.95 C25.48 59.27, 54.87 24.7, 74.54 5.84 M1.39 99.94 C30.99 64.97, 58.91 26.44, 86.89 3.74 M0.33 97.93 C29.9 64.84, 56.85 31.7, 85.69 1.76 M-4.38 100.84 C38.59 65.92, 72.45 21.29, 86.68 -1.1 M1.28 104.07 C21.03 80.51, 41.52 57.17, 87.68 3.27 M4.52 110.19 C33.14 69.14, 71.07 30.14, 91.35 0.05 M0.87 110.46 C28.76 80.79, 52.27 52.56, 93.02 2.68 M-0.98 117.15 C30.03 86.3, 53.19 59.62, 101.99 0.33 M2.36 112.42 C20.9 92, 39.48 66.84, 97.24 3.83 M2.92 114.25 C39.54 78.4, 76.17 34.91, 102.41 2.49 M5.91 118.2 C25.79 94.67, 47.46 67.31, 102.87 1.45 M4.08 122.1 C41.27 75.68, 87.12 32.09, 108.32 1.38 M6.03 123.49 C42.35 80.52, 83.21 34.51, 106.85 5.51 M7.57 128.44 C43.76 83.77, 80.43 39.69, 113.79 5.97 M7 128.18 C34.13 94.02, 62.34 60.01, 113.32 4.89 M4.86 126.61 C34.21 105.29, 61.05 75.83, 116.5 5.83 M10.25 128.59 C47.8 87.46, 83.53 47.69, 117.02 3.68 M8.31 137.55 C34.62 108.17, 56.02 77.08, 122.16 6.91 M11.17 133.26 C40.85 100.59, 71.62 64.11, 122.06 6.69 M11.69 137.09 C48.69 98.98, 86.47 56.55, 123.03 4.5 M9.83 139.92 C40.6 99.12, 72.77 62.36, 126.57 10.14 M15.26 142.38 C47.07 100.84, 82.27 67.78, 131.76 14 M14.34 143.72 C40.68 112.42, 65.33 83.35, 126.94 10.2 M18.41 148.2 C61.59 100.95, 98.52 47.18, 135.88 11.91 M15.74 147.29 C53.52 96.86, 96.86 49.34, 130.41 13.74 M14.73 147.2 C53.35 111.18, 87.66 67.6, 132.35 13.87 M17.29 150.69 C55.79 112.19, 92.14 68.02, 135.98 14.08 M21.21 156.87 C64.66 104.41, 109 58.2, 136.65 17.11 M21.92 152.16 C49.85 120.49, 77.65 88.1, 137.7 15.24 M20.7 157.07 C62.54 111.11, 98.97 67.83, 140.02 19.46 M21.02 155.42 C51.76 122.75, 76.21 92.31, 144.16 20.67 M24.47 163.52 C64.48 121.64, 96.68 72.13, 142.54 17.88 M27.15 160.86 C70.11 110.74, 117.35 54.8, 145.83 21.53 M30.67 165.28 C70.5 119.94, 107.96 73.81, 147.72 22.43 M26.77 164.81 C58.78 129.71, 91.85 93.78, 147.92 24.41 M30.85 166.31 C77.19 117.33, 115.93 75.24, 154.32 24.28 M29.06 166.82 C75.62 114.74, 123.47 58.47, 152.38 25.12 M32.43 170.88 C69.8 135.31, 102.72 94.83, 158.08 33.46 M30.6 168.86 C64.25 136.8, 92.9 101.88, 154 28.14 M33.89 176.41 C76.75 128.8, 115.74 82.27, 155 36.1 M36.83 173.87 C58.35 144.21, 83.69 116.96, 157.82 33.66 M37.95 176.4 C64.89 139.19, 102.39 102.48, 162.51 37.45 M37.45 174.45 C80.39 125.6, 121.95 77.33, 158.59 34.3 M42.05 177.98 C73.79 144.72, 99.18 111.28, 165.87 42.88 M43.18 176.19 C87.49 127.06, 131.03 77.98, 161.47 37.89 M46.2 177.88 C79.26 138.05, 113.61 93.48, 162.09 46.33 M47.83 179.35 C91.04 131.09, 130.96 84.68, 164.14 41.7 M50.76 180.69 C82.41 143.26, 115.17 108.68, 167.74 46.4 M48.4 178.88 C88.77 134.92, 129.45 89.35, 166.86 46.19 M55.03 184.37 C99.72 132.74, 139.94 82.36, 166.79 50.76 M53.81 183.69 C89.67 139.26, 129.77 96.58, 170.61 49.28 M55.01 182.48 C90.91 146.85, 130.78 102.07, 169.08 49.22 M56.99 184.63 C95.11 134.79, 136.6 90.28, 173.77 53.08 M60.57 186.68 C85.95 155.63, 112.21 133.18, 174.84 57.41 M62.3 186.73 C96.23 141.3, 136.25 98.34, 174.87 53.38 M66 184.75 C108.4 137.55, 150.69 91.27, 177.91 58.13 M62.28 189 C110.29 137.79, 151.09 86.4, 178.14 58.7 M68.45 185.58 C92.72 157.11, 124.52 123.19, 180.1 65.72 M70.39 187.11 C109.3 140.65, 155.29 92.23, 178.03 64.47 M77.84 185.91 C99.43 155.07, 138.16 119, 175.83 70.42 M73.14 189.94 C115.5 143.66, 155.7 94.04, 178.16 67.06 M78.63 192.11 C109.22 145.34, 147.45 104.44, 181.92 72.58 M78.11 191.07 C109.57 154.34, 136.13 123.11, 179.31 71.83 M85.65 188.14 C120.87 150.17, 154.46 108.06, 184.04 79.64 M84.05 190.53 C105.39 162.31, 130.51 131.84, 180.19 79.79 M90.64 189.57 C106.74 167.97, 131.16 139.42, 180.61 86.67 M89.66 190.52 C114.3 156.79, 145.48 123.86, 183.52 81.93 M95.39 194.1 C121.17 163.61, 146.13 128.11, 181.94 85.08 M92.98 191.71 C111.64 164.25, 134.3 140.36, 181.47 89.65 M101.58 191.77 C123.89 153.29, 157.22 120.27, 183.42 97.66 M99.47 193.21 C131.37 157.19, 161.01 120.92, 183.05 95.59 M99.97 191.98 C120.58 171.61, 138.37 145.2, 183.94 103.54 M101.48 193.32 C126.68 159.39, 154.7 131.62, 182.84 100.29 M108.79 191.98 C123.06 171.37, 141.3 153.37, 179.83 108.97 M110.81 191.76 C128.66 167.57, 148.41 143.51, 181.13 108.76 M116.43 188.39 C128.81 172.87, 142.97 154.73, 183.27 112.3 M115.81 187 C136.71 161.66, 160.96 136.84, 180.6 113.2 M125.16 187.72 C148.73 163.18, 167.56 139.3, 182.9 120.27 M123.15 184.43 C141.5 170.73, 154.68 153.31, 181.19 123.02 M130.91 178.79 C144.72 169.65, 153.3 153.98, 168.28 139.23 M132 182.62 C148.94 167.94, 158.62 150.21, 170.78 137.84 M150.61 168.66 C157.55 161.11, 157.21 158.5, 164.77 153.91 M151.39 167.3 C153.86 163.69, 157.56 163.09, 162.85 155.58" stroke="#b2f2bb" stroke-width="0.5" fill="none"></path><path d="M22.76 34.83 C28.88 25.32, 40.12 17.41, 50.19 11.67 C60.26 5.93, 71.89 1.66, 83.18 0.39 C94.46 -0.89, 106.9 0.3, 117.89 4.03 C128.89 7.76, 139.98 14.74, 149.15 22.76 C158.33 30.78, 167.66 41.64, 172.96 52.16 C178.27 62.69, 180.02 74.16, 181 85.93 C181.99 97.7, 182.36 110.85, 178.89 122.78 C175.42 134.72, 167.99 147.97, 160.16 157.55 C152.33 167.13, 141.91 174.66, 131.93 180.27 C121.95 185.88, 111.71 189.98, 100.27 191.2 C88.83 192.43, 74.65 191.1, 63.29 187.62 C51.93 184.14, 40.7 177.97, 32.11 170.32 C23.53 162.68, 17.42 152.82, 11.8 141.75 C6.18 130.67, -0.32 116.2, -1.6 103.86 C-2.88 91.52, -8.35 84.56, 4.13 67.69 C16.61 50.83, 52.51 12.2, 73.3 2.68 C94.09 -6.83, 128.72 8.87, 128.89 10.62 M17.91 45.65 C23.49 35.17, 32.31 21.69, 41.74 14.05 C51.18 6.4, 63.18 2.25, 74.52 -0.22 C85.87 -2.7, 98.71 -3.81, 109.84 -0.8 C120.97 2.22, 131.81 10.54, 141.29 17.86 C150.77 25.17, 160.21 33.23, 166.72 43.09 C173.22 52.95, 177.66 64.91, 180.31 77.01 C182.96 89.1, 184.96 104.08, 182.59 115.69 C180.23 127.29, 172.75 136.54, 166.12 146.63 C159.49 156.71, 151.99 168.79, 142.83 176.21 C133.67 183.63, 122.16 188.57, 111.15 191.15 C100.13 193.73, 88.08 194.12, 76.76 191.7 C65.44 189.29, 53.6 183.28, 43.24 176.66 C32.88 170.03, 21.16 162.24, 14.61 151.96 C8.05 141.69, 6.34 127.89, 3.92 115.01 C1.49 102.13, -1.42 86.99, 0.07 74.69 C1.57 62.38, 10.05 46.39, 12.87 41.16 C15.69 35.93, 15.38 41.71, 17 43.31" stroke="#1e1e1e" stroke-width="1" fill="none"></path></g><g transform="translate(313.74710822331065 225.15793396181243) rotate(0 58.59375000000003 24)"><text x="58.59375" y="0" font-family="Cascadia, Segoe UI Emoji" font-size="20px" fill="#1e1e1e" text-anchor="middle" style="white-space: pre;" direction="ltr" dominant-baseline="text-before-edge">Measure</text><text x="58.59375" y="24" font-family="Cascadia, Segoe UI Emoji" font-size="20px" fill="#1e1e1e" text-anchor="middle" style="white-space: pre;" direction="ltr" dominant-baseline="text-before-edge">Confidence</text></g><g stroke-linecap="round" transform="translate(765.4143794349975 155.43920888471553) rotate(0 91.00000000000006 95.5)"><path d="M26.14 30.67 C26.14 30.67, 26.14 30.67, 26.14 30.67 M26.14 30.67 C26.14 30.67, 26.14 30.67, 26.14 30.67 M8.08 58.93 C19.92 46.75, 26.18 32.21, 40.64 17.86 M3.87 59.48 C19.73 44.79, 32.12 29.98, 43.66 18.28 M6.13 64.19 C19.43 50.36, 29.38 38.4, 56.41 5.67 M6.49 65.94 C24.99 43.84, 44.01 21.62, 54.99 9.44 M3.61 70.08 C27.99 49.36, 42.39 27.6, 60.14 5.91 M4.86 74.54 C23.1 52.31, 43.8 31.44, 63.71 6.05 M5.01 83.97 C28.18 53.3, 55.64 27.35, 67.06 8.68 M5.42 79.2 C24.57 56.76, 44.94 35.42, 69.14 5.26 M3.04 85.4 C22.65 70.08, 39.7 48.03, 77.25 4.48 M2.87 87.53 C28.11 58.84, 48.21 34.56, 75.68 5.93 M1.8 98.74 C28.63 69.67, 51.94 40.27, 82.64 -0.1 M1.59 95.37 C20.92 77.27, 36.73 54.95, 82.14 2.14 M1.25 96.44 C18.31 78.82, 43.65 55.88, 85.58 -0.33 M2.35 99.7 C24.99 75.17, 47.86 51.26, 90.54 -1.08 M5.82 103.37 C34.09 68.82, 61.19 35.52, 96.69 0.89 M5.19 104.74 C25.14 81.15, 45.82 60.75, 94.22 4.25 M4.77 111.48 C31.96 81.91, 50.62 52.11, 95.86 6.46 M4.02 110.41 C28.6 85.25, 51.55 55.59, 97.04 4.26 M8.78 115.57 C44.39 73.89, 78.18 23.98, 104.31 3.18 M5.44 113.8 C40.32 77.77, 71 42.55, 103.77 3.07 M8.4 122.82 C40.22 84.82, 67.9 50.23, 104.91 7.95 M5.48 120.46 C43.02 81.23, 75.83 42.83, 106.62 2.73 M4.58 122.26 C39.83 85.88, 75.33 46.81, 114.82 4.05 M6.36 123.62 C43.01 83.43, 78.46 42.95, 112.08 5.25 M7.81 125.51 C52.78 81.89, 90.75 32.06, 117.2 8.59 M9.86 130.72 C46.42 84.97, 83.96 45.52, 115 5.8 M10.67 130.59 C51.87 89.33, 84.94 43.1, 118.49 8.06 M12.16 132.88 C52.09 87.31, 93.23 44.03, 121.98 6.03 M12.93 136.34 C54.44 97.46, 86.47 48.61, 128.79 9.03 M15.15 137.19 C39.99 102.86, 67.34 73.58, 126.11 6.51 M16.79 139.74 C57.74 90.27, 100.59 49.56, 127.18 10.23 M15.95 141.67 C52.2 96.06, 90.02 53.1, 130.51 8.56 M13.96 140.1 C51.58 102.9, 87.29 65.18, 128.72 13.72 M16.23 145.27 C58.64 97.22, 99.65 50.23, 133.52 11.11 M19.58 145.87 C51.45 122.86, 76.2 92.76, 133.71 12.9 M18.38 148.42 C49.18 109.86, 80.92 72.35, 136.29 12.6 M24.68 149.84 C66.03 107.28, 107.34 54.65, 137.49 14.29 M20.2 149.97 C63.46 100.08, 107.02 52.63, 138.83 14.38 M20.64 152.41 C69.34 105.36, 113.25 56.38, 142.36 18.06 M25.66 156.21 C49.56 124.45, 76.34 94.21, 142.07 19.03 M25.76 159.6 C68.87 108.09, 117.81 55.26, 143.93 22.93 M25.67 156.66 C64.72 117.64, 102.19 73.01, 144.62 21.04 M29.75 166.28 C74.66 115.36, 114.82 67.91, 151.09 22.78 M28.84 161.01 C64.23 117.95, 103.86 70.22, 148.86 25.11 M34.16 163.43 C67.58 124.9, 103.98 83.01, 153.75 22.55 M32.17 164.13 C79.81 111.78, 121.88 59.32, 150.99 27.88 M32.29 166.63 C72.78 128.59, 105.18 80.43, 158.74 26.83 M35.17 168.35 C73.63 124.38, 112.07 84.25, 155.19 28.21 M37.68 171.84 C72.63 134.85, 109.17 94.19, 159.62 29.56 M38.67 168.97 C78.17 126.42, 115.18 81.61, 157.61 30.63 M39.92 174.88 C67.15 145.34, 100.9 110.26, 158.46 32.29 M38.81 171.45 C73.33 135.46, 102.92 101.25, 158.51 37.37 M39.81 176.67 C94.17 114.95, 140.41 65.48, 163.08 39.15 M44.49 174.47 C74.36 140.15, 102.32 107.64, 161.66 37.1 M49.2 175.22 C93.74 127.64, 128.45 83.46, 162.22 41.67 M47.45 175.64 C67.85 152.22, 95.05 124.43, 163.76 43.45 M46.87 178.18 C80.2 143.1, 111.07 114.35, 163.95 44.22 M48.39 181.76 C74.39 145.16, 99.92 114.85, 167.18 46.23 M52.96 183.8 C100 126.64, 143.75 77.35, 170.95 48.77 M53.67 183.6 C92.38 137.62, 135.68 90.29, 169.41 49.96 M52.84 185.44 C100.97 135.13, 145 83.04, 168.28 51.43 M57.41 186.11 C85.04 146.09, 116.59 110.71, 173.12 52.1 M60.91 187.55 C86.55 157.77, 116.27 122.68, 173.87 55.39 M59.56 186.17 C84.7 162.38, 106.37 134.84, 174.88 53.8 M61.84 184.71 C93.78 147.62, 131.34 107.28, 178.39 59.46 M65.36 189.38 C100.05 141.67, 141.13 92.51, 175.29 58.16 M65.66 186.36 C98.13 145.54, 138.31 111.18, 175.08 60.33 M70.73 188.52 C106.68 150.86, 139.7 112.06, 179.08 62.22 M73.65 187.04 C109.35 153.91, 136.33 122.64, 178.21 65.5 M74.34 187.58 C99.2 160.21, 122.43 137.01, 179.76 67.73 M78.14 190.41 C110.1 150.12, 149.42 108.89, 177.61 75.37 M79.73 187.49 C109.05 151.12, 145.19 114.05, 180.48 72.87 M84.33 187.49 C114.96 156.33, 138.16 126.6, 177.85 75.95 M83.34 190.12 C116.63 151.22, 147.69 113.58, 179.39 78.77 M92.17 190.89 C117.22 158.23, 144.12 117.95, 183.38 85.32 M86.65 190.28 C108.55 165.29, 133.19 141.66, 181.07 81.75 M90.13 192.59 C116.93 161.86, 140.25 135.98, 185.03 87.71 M92.19 191.24 C125.21 151.35, 159.57 115.67, 181.27 89.08 M96.44 187.44 C116.26 170.85, 140.57 147.01, 183.25 98.21 M99.04 189.95 C120.56 165.37, 140.15 140.47, 180.39 97.49 M104.87 186.88 C129.17 163.64, 140.79 140.93, 183.13 102.99 M106.87 188.57 C127.98 162.71, 152.17 135.44, 180.78 103.14 M113.27 182.73 C132.04 166.02, 154.35 139.06, 181.02 113.35 M114.73 187.95 C131.87 166.26, 150.15 146.28, 179.57 113.38 M118.02 184.15 C135.12 159.88, 152.13 140.5, 179 119.19 M121.7 182.38 C134.9 164, 154.58 143.05, 177.4 118.01 M122.6 185.95 C135.57 166.39, 153.45 152.53, 176.01 129.77 M125.78 185.61 C146.04 159.61, 164.79 137.02, 175.84 127.77 M141.87 178.18 C156.34 154.26, 170.41 138.52, 177.7 131.44 M138.38 174.27 C147.46 163.39, 160.7 148.3, 177.44 129.84 M151 169.16 C156.45 163.05, 154.25 157.22, 163.9 147.55 M151.51 164.54 C154.97 161.1, 159.17 157.43, 167.48 149.47" stroke="#b2f2bb" stroke-width="0.5" fill="none"></path><path d="M54.52 8.7 C63.97 2.89, 78.19 0.51, 89.93 -0.03 C101.66 -0.57, 114.44 0.91, 124.91 5.44 C135.39 9.97, 144.48 18.7, 152.77 27.16 C161.05 35.61, 169.76 44.82, 174.62 56.17 C179.48 67.52, 181.92 82.98, 181.92 95.25 C181.91 107.53, 179.07 118.52, 174.58 129.84 C170.09 141.15, 163.16 154.24, 154.98 163.14 C146.8 172.05, 135.69 178.76, 125.51 183.26 C115.33 187.75, 105.11 189.62, 93.91 190.12 C82.71 190.61, 69.26 190.73, 58.3 186.24 C47.35 181.75, 36.34 172.28, 28.18 163.17 C20.01 154.06, 13.87 142.93, 9.32 131.56 C4.76 120.18, 1.64 106.98, 0.84 94.94 C0.05 82.9, 0.28 70.05, 4.52 59.3 C8.77 48.55, 15.71 39.91, 26.33 30.45 C36.95 20.98, 58.84 7.18, 68.24 2.49 C77.65 -2.2, 82.17 0.7, 82.76 2.29 M150.81 23.19 C160.18 30.18, 168.42 42.15, 173.62 52.7 C178.82 63.26, 180.95 74.79, 182.01 86.51 C183.07 98.23, 183.36 111.75, 179.97 123.05 C176.59 134.34, 169.55 144.58, 161.68 154.27 C153.82 163.96, 142.84 174.7, 132.79 181.18 C122.74 187.66, 113.05 191.83, 101.38 193.16 C89.7 194.5, 74.31 193.27, 62.72 189.18 C51.14 185.09, 40.63 176.84, 31.87 168.62 C23.11 160.4, 15.49 150.56, 10.17 139.86 C4.86 129.16, 1.43 116.9, -0.02 104.43 C-1.48 91.95, -2.18 76.87, 1.45 64.99 C5.07 53.1, 13.91 41.77, 21.74 33.13 C29.58 24.49, 38.18 19.02, 48.46 13.14 C58.75 7.26, 72.06 -1.09, 83.43 -2.15 C94.8 -3.22, 105.81 2.66, 116.68 6.73 C127.56 10.81, 143.62 19.22, 148.68 22.3 C153.74 25.37, 148.22 23.95, 147.06 25.19" stroke="#1e1e1e" stroke-width="1" fill="none"></path></g><g transform="translate(797.9739123470217 226.9105112814002) rotate(0 58.59375000000006 24)"><text x="58.59375" y="0" font-family="Cascadia, Segoe UI Emoji" font-size="20px" fill="#1e1e1e" text-anchor="middle" style="white-space: pre;" direction="ltr" dominant-baseline="text-before-edge">Measure</text><text x="58.59375" y="24" font-family="Cascadia, Segoe UI Emoji" font-size="20px" fill="#1e1e1e" text-anchor="middle" style="white-space: pre;" direction="ltr" dominant-baseline="text-before-edge">Confidence</text></g><g stroke-linecap="round" transform="translate(1286.0315972687101 156.16085836925208) rotate(0 91 95.5)"><path d="M25.4 30.03 C25.4 30.03, 25.4 30.03, 25.4 30.03 M25.4 30.03 C25.4 30.03, 25.4 30.03, 25.4 30.03 M16.28 49.81 C18.61 37.73, 31.69 33.71, 42.4 22.61 M14.96 48.01 C23.78 41.59, 29.34 30.83, 39.56 19.1 M4.09 60.96 C19.86 48.42, 30.74 30.23, 55.67 5.66 M5.41 62.35 C18.33 47.31, 30.73 35.17, 53.71 7.69 M2.66 67.79 C21.25 58.49, 34.38 39.81, 54.83 15.28 M7.36 71.41 C25.76 47.45, 43.5 27.88, 56.97 10.01 M1.68 81.48 C26.93 53.7, 42 35.89, 63.39 11.99 M2.8 80.54 C27.81 52.33, 49.08 30.2, 63.29 9.29 M0.94 86.56 C16.07 66.27, 37.18 49.17, 69.89 2.33 M-0.11 86 C31.31 56.15, 57.08 21.72, 71.93 8.04 M-2.39 94.13 C25.6 69.14, 48.48 43.08, 80.06 7.41 M-1.54 93.96 C31.01 61.46, 57.75 28.83, 77.85 2.48 M-0.59 96.93 C29.58 72.29, 54.49 41.82, 91.27 0.42 M1.4 101.29 C24.74 72.81, 51.43 47.03, 88.49 1.73 M1.84 108.8 C18.45 79.87, 46.62 49.94, 94.62 2.49 M2.23 104.86 C32.71 71.42, 62.01 37.02, 92.01 1.43 M2.58 109.2 C34.01 76.5, 61.52 47.21, 93.73 4.77 M5.62 107.68 C27.48 83.35, 48.29 59.82, 98.42 3.58 M2.75 114.69 C26.28 84.07, 55.04 52.63, 104.21 3.3 M7 116.24 C26.38 92.06, 50.43 62.84, 101.23 1.16 M9.31 119.94 C37.26 81.75, 71.73 41.91, 106.05 6.24 M5.18 119.2 C39.34 81.6, 69.81 43.54, 108.13 3.11 M7.6 125.47 C31.26 88.86, 63.19 58.21, 110.13 6.86 M9.15 124.92 C30.07 100.94, 48.58 75.2, 109.74 5.05 M5.91 125.43 C46.21 87.71, 78.79 46.06, 114.04 4.02 M8.86 126.97 C38.49 94.76, 69.6 62.55, 113.69 7.53 M14.52 135.81 C44.24 88.98, 77.09 55.68, 117.3 10.95 M12.57 134.1 C47.84 90.16, 81.2 48.81, 118.04 6.58 M15 137.97 C33.01 106.74, 58.37 76.89, 127.78 8.75 M10.33 135.52 C40.73 107.56, 66.17 78.13, 124.04 8.91 M12.57 137.37 C55.28 92.63, 99.75 46.68, 127.59 12.62 M12.68 141.35 C47.74 104.69, 79.68 68.04, 128.19 11.91 M20.07 140.59 C54.68 99.2, 90.38 55.34, 129.58 15.12 M16.78 145.45 C42.86 110.35, 67.61 81.19, 133 12.69 M21.04 143.57 C56.21 102.96, 96.83 59.93, 133.12 14.67 M19.79 147.36 C46.93 115.82, 75.51 83.62, 133.1 14.3 M22.92 150.6 C53.36 117.53, 77.63 86.78, 133.34 14.05 M22.31 149.05 C58.42 105.49, 99.46 58.33, 138.6 17.96 M23.52 151.83 C54.59 120.11, 91.47 76.77, 142.21 15.38 M25.12 154.21 C64.58 104.62, 108.92 53.65, 142.55 19.87 M25.57 156.79 C48.83 125.39, 76.78 98.99, 145.17 23.94 M25.9 159.46 C62.91 113.44, 104.56 67.3, 143.7 20.65 M27.15 163.83 C51.47 129.22, 85.31 95.56, 144.14 20.3 M28.04 161.6 C73.08 110.42, 116.73 58.95, 147.87 23.38 M28.28 161.69 C71 114.53, 109.25 73.57, 150.82 23.96 M29.36 164.92 C73.95 116.78, 116.32 65.41, 151.43 26.84 M29.99 170.21 C70.98 117.77, 112.35 65.15, 150.42 24.72 M35.5 167.6 C77.27 116.19, 116.99 69.11, 155.28 26.72 M38.9 172.1 C73.65 127.86, 112.88 79.47, 158.26 31.04 M34.73 171.31 C72.41 125.51, 110.34 78.83, 155.76 29.71 M36.33 175.41 C80.87 128.41, 118.6 77.5, 160.85 31.95 M41.29 173.4 C77.06 127.96, 113.44 86.92, 159.89 33.16 M45.53 170.82 C81.47 136.39, 121.97 89.96, 157.75 35.85 M44.92 173.91 C74.59 139.19, 105.19 104.77, 161.56 37.62 M46.75 175.84 C97.1 120.07, 141.25 71.81, 161.43 38.51 M48.13 177.57 C79.72 140.86, 106.21 107.77, 163.62 40.57 M50.53 178.38 C96.24 129.04, 141.4 71.68, 163.08 49.3 M49.75 179.09 C95.09 125.28, 140.07 75.34, 165.9 44.48 M53.41 180.18 C91.96 132.03, 126.53 91.25, 165.76 49.7 M54.91 180.33 C88.16 137.7, 119.68 99.52, 168.65 48.97 M55.19 180.34 C98.16 141.12, 132.89 95.72, 170.95 55.3 M58.55 183.62 C90.9 142.75, 125.51 100.43, 169.34 50.63 M62.69 186.83 C94.24 147.28, 126.36 107.32, 171.68 58.31 M59.4 184.98 C101.62 138.15, 142.48 87.26, 174.01 55.23 M68.32 182.47 C101.69 150.19, 131.22 106.78, 174.36 61.78 M64.83 185.88 C95.56 149.55, 131.43 109.03, 173.39 57.76 M65.21 189.71 C103.8 143.75, 146.57 96.99, 171.99 66.64 M68.22 187.72 C100.22 148.82, 134.7 113.24, 174.31 63.13 M71.04 190.58 C95.41 161.17, 116.78 141.69, 179.23 67.91 M75.04 189.62 C105.4 154.92, 135.67 119.93, 177.09 68.2 M77.89 193 C108.88 156.91, 139.73 124.24, 176.36 71.74 M78.92 188.38 C111.11 153.33, 141.04 116.89, 177.66 72.54 M82.72 192.22 C106.99 162.66, 138.13 130.35, 177.02 74.86 M82.46 189.75 C106.72 159.71, 136.62 126.2, 181.65 79.65 M86.54 187.61 C114.75 159.87, 143.52 125.25, 184.73 84.38 M86.55 190.9 C122.15 153.68, 154.12 113.13, 183.06 82.47 M90.28 195.16 C112.05 160.51, 143.4 131.52, 181.44 89.53 M92.59 190.75 C117.92 161.56, 143.38 131.87, 183.16 88.91 M96.57 197.22 C117.07 162.66, 143.55 135.46, 185.29 91.37 M94.42 193.37 C129.33 154.35, 159.79 118.68, 182.41 93.32 M102.24 189.71 C126.51 161.6, 154 127.05, 182.53 99.37 M101.13 193.02 C121.15 167.65, 143.92 148.11, 182.67 98.73 M111.55 194.21 C129.05 171.3, 146.53 149.12, 177.88 112.29 M108.58 191.95 C123.36 170.81, 142.66 153.86, 179.84 107.61 M111.99 192.88 C135.99 164.77, 162.37 132.89, 173.85 115.55 M113.31 189.06 C131.96 167.49, 149.33 148.68, 177.35 116.9 M123.43 192.02 C138.1 174.37, 148.87 159.54, 177.78 121.89 M120.1 189.23 C140.95 164.97, 159.75 144, 175.57 124.46 M130.59 184.74 C146.29 163.29, 160.35 145.26, 178.41 130.67 M128.6 183.75 C142.44 171.92, 152.01 158.11, 178.49 130.09 M144.85 169.25 C155.05 158.93, 161.11 152.03, 167.93 140.22 M145.4 174.33 C153.34 163.73, 161.81 150.57, 170.12 145.63" stroke="#b2f2bb" stroke-width="0.5" fill="none"></path><path d="M87.14 -1.38 C98.05 -3.16, 113.74 2.8, 124.64 7.5 C135.54 12.19, 144.39 18.4, 152.54 26.81 C160.68 35.23, 168.48 47.15, 173.5 58.01 C178.53 68.87, 182.61 80.31, 182.71 91.96 C182.8 103.62, 178.16 116.48, 174.07 127.95 C169.99 139.41, 165.88 151.44, 158.2 160.74 C150.52 170.03, 139.04 178.53, 127.99 183.71 C116.94 188.88, 103.39 191.7, 91.93 191.79 C80.46 191.89, 69.75 189.04, 59.19 184.28 C48.63 179.51, 36.87 171.33, 28.58 163.19 C20.3 155.05, 14.43 146.2, 9.47 135.44 C4.52 124.68, -0.67 110.77, -1.15 98.6 C-1.63 86.44, 2.23 73.83, 6.61 62.46 C10.98 51.09, 17.02 39.34, 25.08 30.4 C33.14 21.47, 42.26 13.67, 54.97 8.84 C67.67 4.01, 91.35 1.83, 101.32 1.43 C111.28 1.02, 114.9 4.98, 114.76 6.43 M133.83 13.97 C143.72 19.4, 154.91 31.01, 162.43 40.04 C169.95 49.07, 175.59 56.5, 178.94 68.17 C182.3 79.84, 184.28 97.99, 182.56 110.07 C180.84 122.15, 175.04 130.08, 168.59 140.64 C162.15 151.19, 153.34 165.84, 143.9 173.4 C134.47 180.95, 123.34 183.31, 112 185.97 C100.67 188.63, 86.78 190.86, 75.9 189.35 C65.01 187.84, 56.65 183.29, 46.7 176.91 C36.76 170.52, 23.75 160.6, 16.22 151.04 C8.69 141.48, 4.27 130.44, 1.52 119.55 C-1.23 108.66, -2.52 97.29, -0.29 85.7 C1.94 74.11, 8.6 61.29, 14.92 50.03 C21.25 38.78, 29.08 26.07, 37.68 18.16 C46.27 10.25, 55.14 5.49, 66.49 2.56 C77.85 -0.38, 94.54 -1.45, 105.81 0.55 C117.08 2.55, 129.32 12.37, 134.12 14.55 C138.92 16.73, 135.26 12.79, 134.61 13.63" stroke="#1e1e1e" stroke-width="1" fill="none"></path></g><g transform="translate(1318.5911301807344 227.63216076593676) rotate(0 58.59375 24)"><text x="58.59375" y="0" font-family="Cascadia, Segoe UI Emoji" font-size="20px" fill="#1e1e1e" text-anchor="middle" style="white-space: pre;" direction="ltr" dominant-baseline="text-before-edge">Measure</text><text x="58.59375" y="24" font-family="Cascadia, Segoe UI Emoji" font-size="20px" fill="#1e1e1e" text-anchor="middle" style="white-space: pre;" direction="ltr" dominant-baseline="text-before-edge">Confidence</text></g><g stroke-linecap="round"><g transform="translate(190.2249297094657 254.74821946176712) rotate(0 43.154602977147505 -3.205223153232737)"><path d="M1 -0.65 C15.19 -1.93, 69.07 -4.85, 83.22 -5.76 M-1.9 -3.47 C13.3 -4.56, 73.88 -2.76, 88.21 -2.84" stroke="#1e1e1e" stroke-width="1" fill="none"></path></g><g transform="translate(190.2249297094657 254.74821946176712) rotate(0 43.154602977147505 -3.205223153232737)"><path d="M58.96 3.34 C64.42 4.64, 70.41 -1.59, 90.43 -2.35 M61.11 6.65 C67.09 7.19, 71.55 1.66, 89.08 -2.74" stroke="#1e1e1e" stroke-width="1" fill="none"></path></g><g transform="translate(190.2249297094657 254.74821946176712) rotate(0 43.154602977147505 -3.205223153232737)"><path d="M59.24 -17.18 C64.92 -11.16, 70.84 -12.66, 90.43 -2.35 M61.39 -13.87 C67.45 -9.09, 71.85 -10.37, 89.08 -2.74" stroke="#1e1e1e" stroke-width="1" fill="none"></path></g></g><mask></mask><g stroke-linecap="round"><g transform="translate(460.5690186102557 249.3258068228597) rotate(0 34.404809769197755 -0.4180967654936012)"><path d="M-0.02 0.72 C11.75 0.61, 60.19 1.37, 72.29 1.87 M-3.48 -1.36 C7.88 -1.13, 58.17 -2.86, 70.68 -2.69" stroke="#1e1e1e" stroke-width="1" fill="none"></path></g><g transform="translate(460.5690186102557 249.3258068228597) rotate(0 34.404809769197755 -0.4180967654936012)"><path d="M43.66 9.6 C53.68 6.25, 66.39 0.49, 67.11 0.55 M40.76 6.01 C47.61 6.96, 55.88 3.49, 72.62 -2.07" stroke="#1e1e1e" stroke-width="1" fill="none"></path></g><g transform="translate(460.5690186102557 249.3258068228597) rotate(0 34.404809769197755 -0.4180967654936012)"><path d="M43.39 -10.92 C53.87 -6.92, 66.68 -5.33, 67.11 0.55 M40.49 -14.51 C47.39 -8.68, 55.73 -7.27, 72.62 -2.07" stroke="#1e1e1e" stroke-width="1" fill="none"></path></g></g><mask></mask><g stroke-linecap="round"><g transform="translate(710.0535546927301 250.955840102798) rotate(0 26.22433441934197 -1.6578144958617713)"><path d="M1.78 1.02 C10.35 -0.04, 44.09 -3.9, 53.15 -4.34 M-0.7 -0.9 C7.23 -1.65, 40.88 0.1, 50.21 -0.68" stroke="#1e1e1e" stroke-width="1" fill="none"></path></g><g transform="translate(710.0535546927301 250.955840102798) rotate(0 26.22433441934197 -1.6578144958617713)"><path d="M26.1 7.09 C33.79 7.58, 46.92 2.41, 48.38 2.3 M25.2 10.78 C29.66 8.1, 40.02 3.45, 49.62 -0.94" stroke="#1e1e1e" stroke-width="1" fill="none"></path></g><g transform="translate(710.0535546927301 250.955840102798) rotate(0 26.22433441934197 -1.6578144958617713)"><path d="M25.89 -11.59 C33.92 -4.37, 47.13 -2.81, 48.38 2.3 M24.99 -7.9 C29.52 -5.6, 39.94 -5.26, 49.62 -0.94" stroke="#1e1e1e" stroke-width="1" fill="none"></path></g></g><mask></mask><g stroke-linecap="round"><g transform="translate(949.2424107227898 256.2887109164906) rotate(0 27.933269448088595 -0.29144089228975645)"><path d="M-0.76 0.65 C8.76 0.24, 46.77 -1.44, 56.63 -1.23 M4.02 -1.46 C13.11 -1.74, 44.98 -0.2, 53.8 0.91" stroke="#1e1e1e" stroke-width="1" fill="none"></path></g><g transform="translate(949.2424107227898 256.2887109164906) rotate(0 27.933269448088595 -0.29144089228975645)"><path d="M26.89 6.98 C29.87 7.48, 42.22 1.95, 57.61 4.06 M25.74 6.9 C34.94 6.88, 43.56 3.43, 55.44 2" stroke="#1e1e1e" stroke-width="1" fill="none"></path></g><g transform="translate(949.2424107227898 256.2887109164906) rotate(0 27.933269448088595 -0.29144089228975645)"><path d="M28.5 -12.7 C31.19 -6.65, 43.09 -6.6, 57.61 4.06 M27.35 -12.78 C36.42 -6.96, 44.58 -4.58, 55.44 2" stroke="#1e1e1e" stroke-width="1" fill="none"></path></g></g><mask></mask><g stroke-linecap="round"><g transform="translate(1196.65149283706 253.68822970336282) rotate(0 44.12506437277216 -0.2586790397878076)"><path d="M0.3 -2.68 C14.88 -2.33, 71.74 1.48, 85.93 2.16 M-2.97 2.04 C12.63 1.47, 75.57 -2.94, 91.23 -2.54" stroke="#1e1e1e" stroke-width="1" fill="none"></path></g><g transform="translate(1196.65149283706 253.68822970336282) rotate(0 44.12506437277216 -0.2586790397878076)"><path d="M59.52 5.63 C70.98 2.18, 76.74 2.25, 90.05 -0.67 M63.26 10.11 C68.07 5.05, 74.9 3.66, 91.53 -3.65" stroke="#1e1e1e" stroke-width="1" fill="none"></path></g><g transform="translate(1196.65149283706 253.68822970336282) rotate(0 44.12506437277216 -0.2586790397878076)"><path d="M58.92 -14.88 C70.54 -13.31, 76.45 -8.22, 90.05 -0.67 M62.66 -10.4 C67.6 -11.12, 74.56 -8.18, 91.53 -3.65" stroke="#1e1e1e" stroke-width="1" fill="none"></path></g></g><mask></mask><g stroke-linecap="round"><g transform="translate(1470.1605742289162 250.8716627600918) rotate(0 42.754020088417406 -1.9249053164342058)"><path d="M-0.58 0.16 C13.72 -0.45, 71.25 -3.41, 86.09 -4.01 M4.3 -2.22 C18.19 -2.32, 69.82 -0.7, 83.74 -0.33" stroke="#1e1e1e" stroke-width="1" fill="none"></path></g><g transform="translate(1470.1605742289162 250.8716627600918) rotate(0 42.754020088417406 -1.9249053164342058)"><path d="M55.51 8.84 C64.24 9.45, 73.84 5.52, 80.13 1.2 M53.47 7.31 C63.12 7.15, 72.11 3.16, 81.81 0.41" stroke="#1e1e1e" stroke-width="1" fill="none"></path></g><g transform="translate(1470.1605742289162 250.8716627600918) rotate(0 42.754020088417406 -1.9249053164342058)"><path d="M56.09 -11.67 C64.6 -4.72, 74.02 -2.3, 80.13 1.2 M54.05 -13.21 C63.4 -7.23, 72.22 -5.09, 81.81 0.41" stroke="#1e1e1e" stroke-width="1" fill="none"></path></g></g><mask></mask><g stroke-linecap="round"><g transform="translate(85.44517338331781 205.04946460837277) rotate(0 -0.6410467655173164 -40.14987402680242)"><path d="M1.73 2.58 C1.96 -10.93, 0.04 -68.47, -0.51 -82.88 M-0.78 1.51 C-0.79 -11.45, -2.45 -65.93, -3.03 -79.83" stroke="#1e1e1e" stroke-width="1" fill="none"></path></g><g transform="translate(85.44517338331781 205.04946460837277) rotate(0 -0.6410467655173164 -40.14987402680242)"><path d="M11.89 -52.74 C4.44 -60.56, 0.45 -62.59, -2.13 -81.49 M7.57 -52.25 C5.88 -62.65, 2.64 -72.59, -4.37 -78.63" stroke="#1e1e1e" stroke-width="1" fill="none"></path></g><g transform="translate(85.44517338331781 205.04946460837277) rotate(0 -0.6410467655173164 -40.14987402680242)"><path d="M-8.62 -52.03 C-11.31 -60.26, -10.56 -62.46, -2.13 -81.49 M-12.94 -51.53 C-7.5 -62.51, -3.6 -72.7, -4.37 -78.63" stroke="#1e1e1e" stroke-width="1" fill="none"></path></g></g><mask></mask><g stroke-linecap="round"><g transform="translate(615.3153032534476 202.4520620109704) rotate(0 0.03464950068712369 -38.91100564177077)"><path d="M1.8 -1.63 C1.98 -15.53, 0.29 -68.33, 0.37 -81.48 M-0.67 3.66 C-0.76 -9.91, -2.06 -62.83, -1.67 -77.67" stroke="#1e1e1e" stroke-width="1" fill="none"></path></g><g transform="translate(615.3153032534476 202.4520620109704) rotate(0 0.03464950068712369 -38.91100564177077)"><path d="M6.3 -48.97 C5.88 -53.88, 4.42 -68.69, -0.63 -77.26 M6.76 -50.73 C5.85 -61.02, 3.44 -68.06, -3.04 -77.19" stroke="#1e1e1e" stroke-width="1" fill="none"></path></g><g transform="translate(615.3153032534476 202.4520620109704) rotate(0 0.03464950068712369 -38.91100564177077)"><path d="M-14.22 -48.94 C-9 -54.12, -4.82 -68.94, -0.63 -77.26 M-13.76 -50.71 C-7.74 -60.82, -3.24 -67.87, -3.04 -77.19" stroke="#1e1e1e" stroke-width="1" fill="none"></path></g></g><mask></mask><g stroke-linecap="round"><g transform="translate(1108.821796759941 205.04946460837277) rotate(0 -1.3590665380260134 -38.28018768458776)"><path d="M1.1 0.7 C0.72 -11.88, -3.84 -64.55, -4.14 -77.26 M-1.75 -1.38 C-1.03 -13.39, 1.38 -60.78, 1.42 -73.98" stroke="#1e1e1e" stroke-width="1" fill="none"></path></g><g transform="translate(1108.821796759941 205.04946460837277) rotate(0 -1.3590665380260134 -38.28018768458776)"><path d="M11.85 -47.71 C8.08 -49.41, 8.25 -57.74, -0.61 -76.72 M11.02 -46.2 C7.77 -57.61, 1.95 -67.65, 0.33 -74.21" stroke="#1e1e1e" stroke-width="1" fill="none"></path></g><g transform="translate(1108.821796759941 205.04946460837277) rotate(0 -1.3590665380260134 -38.28018768458776)"><path d="M-8.66 -48.31 C-7.64 -50.04, -2.66 -58.22, -0.61 -76.72 M-9.49 -46.8 C-5.03 -57.6, -3.14 -67.41, 0.33 -74.21" stroke="#1e1e1e" stroke-width="1" fill="none"></path></g></g><mask></mask><g stroke-linecap="round"><g transform="translate(1647.78283572098 197.25725681616518) rotate(0 -1.2209725761737218 -32.105784144780046)"><path d="M1.4 -2.07 C1.6 -13.65, -0.58 -56.29, -1.47 -67.19 M-1.29 2.98 C-1.23 -8.29, -4.25 -52.16, -3.81 -63.38" stroke="#1e1e1e" stroke-width="1" fill="none"></path></g><g transform="translate(1647.78283572098 197.25725681616518) rotate(0 -1.2209725761737218 -32.105784144780046)"><path d="M4.08 -35.66 C4.87 -44.82, 2.25 -46.07, -0.38 -65.82 M7.77 -35.84 C1.85 -46, -2.42 -55.53, -4.08 -65.27" stroke="#1e1e1e" stroke-width="1" fill="none"></path></g><g transform="translate(1647.78283572098 197.25725681616518) rotate(0 -1.2209725761737218 -32.105784144780046)"><path d="M-16.43 -35.23 C-11.48 -44.68, -9.94 -46.02, -0.38 -65.82 M-12.74 -35.42 C-11.05 -46.01, -7.72 -55.7, -4.08 -65.27" stroke="#1e1e1e" stroke-width="1" fill="none"></path></g></g><mask></mask></svg>