<svg version="1.1" xmlns="http://www.w3.org/2000/svg" viewBox="0 0 1143.1140463917525 621.5" width="2286.228092783505" height="1243">
  <!-- svg-source:excalidraw -->
  
  <defs>
    <style class="style-fonts">
      @font-face {
        font-family: "Virgil";
        src: url("https://excalidraw.com/Virgil.woff2");
      }
      @font-face {
        font-family: "Cascadia";
        src: url("https://excalidraw.com/Cascadia.woff2");
      }
    </style>
    
  </defs>
  <rect x="0" y="0" width="1143.1140463917525" height="621.5" fill="#ffffff"></rect><g stroke-linecap="round" transform="translate(223 196.5) rotate(0 96 128)"><path d="M7.86 8.16 C7.86 8.16, 7.86 8.16, 7.86 8.16 M7.86 8.16 C7.86 8.16, 7.86 8.16, 7.86 8.16 M3.66 19.09 C5.17 14.82, 10.17 11.06, 18.1 2.48 M3.66 19.09 C9.7 13.25, 14.61 8.15, 18.1 2.48 M2.75 26.24 C8.22 18.92, 13.35 13.09, 24.4 1.33 M2.75 26.24 C11.42 16.22, 19.3 8.04, 24.4 1.33 M2.48 32.64 C14.52 18.55, 25.49 8.05, 30.7 0.18 M2.48 32.64 C12.45 20.94, 21.84 9.5, 30.7 0.18 M2.88 38.28 C14.08 26.75, 24.03 12.03, 34.37 2.05 M2.88 38.28 C9.71 28.09, 17.71 19.41, 34.37 2.05 M2.62 44.68 C14.36 27.96, 29.51 16.55, 39.36 2.41 M2.62 44.68 C9.19 35.84, 17.96 26.48, 39.36 2.41 M2.36 51.07 C12.99 37.66, 24.24 26.23, 45 2.02 M2.36 51.07 C15.46 37.01, 26.54 24.15, 45 2.02 M2.75 56.72 C19.35 39.04, 34.05 19.51, 49.99 2.38 M2.75 56.72 C14.88 42.63, 25.8 29.32, 49.99 2.38 M2.49 63.11 C20.96 42.94, 35.16 24.99, 55.63 1.98 M2.49 63.11 C24.17 39.27, 44.32 15.06, 55.63 1.98 M2.23 69.51 C24.05 44.87, 43.12 21.14, 60.62 2.34 M2.23 69.51 C17.64 50.86, 32.42 33.18, 60.62 2.34 M2.62 75.16 C24.9 50.93, 46.41 23.9, 66.26 1.95 M2.62 75.16 C25.2 50.86, 46.35 25.59, 66.26 1.95 M2.36 81.55 C29.19 53.19, 50.92 25.62, 71.25 2.31 M2.36 81.55 C22.52 58.49, 43.53 34.75, 71.25 2.31 M2.76 87.2 C19.66 66.3, 39.89 47.1, 76.89 1.91 M2.76 87.2 C24.56 60.65, 49.05 34.3, 76.89 1.91 M2.49 93.59 C23.3 68.12, 44.14 44.6, 81.88 2.27 M2.49 93.59 C33.16 57.62, 64.5 23.05, 81.88 2.27 M2.23 99.99 C28.31 70.53, 55.28 36.89, 87.52 1.88 M2.23 99.99 C33.52 65.16, 63.42 28.78, 87.52 1.88 M2.63 105.64 C27.12 76.53, 54.58 44.51, 92.51 2.24 M2.63 105.64 C26.32 78.43, 50.59 50.75, 92.51 2.24 M2.37 112.03 C35.42 73.19, 71.15 36.14, 97.49 2.6 M2.37 112.03 C36.58 71.36, 71.66 31.17, 97.49 2.6 M2.1 118.43 C34.95 81.48, 62.08 49.29, 103.14 2.21 M2.1 118.43 C31.81 84.01, 60.93 50.75, 103.14 2.21 M2.5 124.07 C24.14 100.75, 46.87 74.61, 108.12 2.57 M2.5 124.07 C31.22 92.69, 58.19 60.69, 108.12 2.57 M2.24 130.47 C26.72 102.73, 52.03 75.67, 113.77 2.17 M2.24 130.47 C29.92 98.26, 57.87 65.08, 113.77 2.17 M2.63 136.11 C45.22 84.03, 90.26 35.23, 118.76 2.53 M2.63 136.11 C27.15 107.92, 52.07 77.82, 118.76 2.53 M2.37 142.51 C27.96 109.72, 56.05 81.17, 124.4 2.14 M2.37 142.51 C29.84 111.48, 56.5 81.01, 124.4 2.14 M2.11 148.91 C31.28 117.74, 55.55 82.85, 129.39 2.5 M2.11 148.91 C34.38 110, 66.54 73.09, 129.39 2.5 M2.5 154.55 C47.42 101.28, 93.19 50.04, 135.03 2.1 M2.5 154.55 C36.51 115.59, 69.26 76.89, 135.03 2.1 M2.24 160.95 C50.03 106.41, 96.87 53.42, 140.02 2.46 M2.24 160.95 C33.47 123.25, 64.26 88.67, 140.02 2.46 M1.98 167.35 C41.15 122.88, 81.93 76.82, 145 2.82 M1.98 167.35 C43.62 117.98, 86.45 69.59, 145 2.82 M2.38 172.99 C34.19 137.97, 62.94 99.52, 150.65 2.43 M2.38 172.99 C39.15 129.42, 76.36 87.59, 150.65 2.43 M2.11 179.39 C58.49 113.19, 114.52 50.61, 155.63 2.79 M2.11 179.39 C54.94 120.97, 105.03 61.29, 155.63 2.79 M2.51 185.03 C61.35 118.76, 118.6 54.69, 161.28 2.39 M2.51 185.03 C42.09 138.7, 84 91.85, 161.28 2.39 M2.25 191.43 C36.92 151.28, 74.7 107.28, 168.23 0.49 M2.25 191.43 C65.08 119.8, 126.7 47.8, 168.23 0.49 M1.99 197.83 C65.55 126.57, 126.7 54.31, 171.91 2.36 M1.99 197.83 C45 147.64, 87.75 98.32, 171.91 2.36 M2.38 203.47 C51.42 148.37, 101.29 91.03, 176.24 3.47 M2.38 203.47 C54.7 145.77, 104.49 88.02, 176.24 3.47 M2.12 209.87 C51.15 153.68, 100.03 96.26, 179.91 5.34 M2.12 209.87 C50.83 153.43, 99.5 97.4, 179.91 5.34 M1.86 216.27 C57.33 154.36, 110.36 95.15, 182.93 7.97 M1.86 216.27 C71.05 136.29, 141.33 56.69, 182.93 7.97 M0.28 224.17 C68.32 143.19, 136.51 65.29, 185.95 10.59 M0.28 224.17 C72.33 140.68, 144.09 57.16, 185.95 10.59 M0.68 229.82 C39.44 185.54, 79.37 141.94, 188.97 13.22 M0.68 229.82 C41.15 184.62, 80.85 139.15, 188.97 13.22 M1.73 234.71 C37.65 189.82, 77.02 146.1, 190.02 18.1 M1.73 234.71 C62.43 162.79, 123.88 90.7, 190.02 18.1 M3.44 238.84 C53.36 184.01, 100.79 128.39, 191.07 22.99 M3.44 238.84 C70.06 160.83, 138.83 81.24, 191.07 22.99 M4.49 243.73 C76.55 160.48, 147.36 80.94, 191.46 28.64 M4.49 243.73 C53.19 188.78, 101.02 131.88, 191.46 28.64 M7.51 246.35 C67.73 178.61, 128.63 107.71, 193.17 32.77 M7.51 246.35 C60.43 186.77, 111.98 127.34, 193.17 32.77 M10.52 248.98 C79.04 173.53, 144.46 95.06, 192.91 39.17 M10.52 248.98 C82.48 165.88, 155.08 84.51, 192.91 39.17 M12.89 252.36 C77.93 179.95, 142.63 105.71, 193.3 44.81 M12.89 252.36 C56.84 201.86, 102.21 151.28, 193.3 44.81 M17.22 253.47 C68.76 197.01, 119.79 138.1, 193.04 51.21 M17.22 253.47 C84.4 178.23, 150.94 100.45, 193.04 51.21 M20.24 256.09 C82.2 187.27, 140.25 120.08, 192.78 57.61 M20.24 256.09 C88.68 178.91, 155.88 102.17, 192.78 57.61 M25.22 256.45 C77.01 198.64, 127.57 138.55, 193.18 63.25 M25.22 256.45 C79.55 193.85, 134.15 131.82, 193.18 63.25 M29.56 257.57 C85.34 191.91, 138.8 128.87, 192.91 69.65 M29.56 257.57 C74.03 206.17, 119.62 153.54, 192.91 69.65 M34.54 257.93 C76.96 210.01, 115.55 164.96, 193.31 75.29 M34.54 257.93 C93.13 191.93, 149.77 126.07, 193.31 75.29 M39.53 258.29 C78.98 211.59, 118.54 164.04, 193.05 81.69 M39.53 258.29 C88.74 200.84, 138.65 145.54, 193.05 81.69 M45.17 257.89 C79.59 219.12, 113.87 178.21, 192.79 88.09 M45.17 257.89 C86.7 210.78, 128.72 163.5, 192.79 88.09 M50.16 258.25 C87.41 215.65, 125.97 169.65, 193.18 93.73 M50.16 258.25 C104.55 195.51, 157.79 132.61, 193.18 93.73 M55.8 257.86 C105.73 199.39, 157.36 142.48, 192.92 100.13 M55.8 257.86 C97.38 208.06, 139.97 159.02, 192.92 100.13 M60.79 258.22 C113.9 201.19, 163.85 140.7, 193.31 105.77 M60.79 258.22 C108.88 203.24, 156.19 147.85, 193.31 105.77 M66.43 257.83 C101.77 217.91, 137.3 178.97, 193.05 112.17 M66.43 257.83 C108.28 208.72, 149.28 160.8, 193.05 112.17 M71.42 258.19 C103.95 218.53, 141.36 178.61, 192.79 118.56 M71.42 258.19 C121.21 201.58, 169.94 145.42, 192.79 118.56 M77.06 257.79 C124.11 204.9, 171.1 151.67, 193.18 124.21 M77.06 257.79 C106.08 224.35, 135.38 191.41, 193.18 124.21 M82.05 258.15 C115.62 217.58, 152.35 180.61, 192.92 130.61 M82.05 258.15 C115.8 219.53, 148.22 182.74, 192.92 130.61 M87.69 257.76 C113.5 225.61, 142.29 193.12, 193.32 136.25 M87.69 257.76 C111.64 229.4, 136.13 200.8, 193.32 136.25 M92.68 258.12 C115.6 229.51, 141.39 204.42, 193.06 142.65 M92.68 258.12 C119.22 227.81, 145.34 196.01, 193.06 142.65 M98.32 257.72 C119.11 232.51, 140.42 209.93, 192.8 149.04 M98.32 257.72 C124.17 225.55, 151.95 195.17, 192.8 149.04 M103.31 258.08 C134.87 225.23, 163.5 190.14, 193.19 154.69 M103.31 258.08 C121.41 236.61, 141.42 214.8, 193.19 154.69 M108.3 258.44 C135.24 228.9, 164.14 198.11, 192.93 161.08 M108.3 258.44 C128.41 233.47, 150.15 210.3, 192.93 161.08 M113.94 258.05 C136 229.63, 159.76 205.48, 193.32 166.73 M113.94 258.05 C133.46 238.09, 152.32 216.41, 193.32 166.73 M118.93 258.41 C135.63 238.66, 152.16 221.84, 193.06 173.13 M118.93 258.41 C136.25 239.2, 152.53 220.51, 193.06 173.13 M124.57 258.01 C144.66 235.45, 162.05 215.66, 192.8 179.52 M124.57 258.01 C145.47 235.07, 164.82 211.23, 192.8 179.52 M129.56 258.37 C147.93 237.59, 164.81 221.05, 193.19 185.17 M129.56 258.37 C151.89 232.83, 172.81 208.55, 193.19 185.17 M135.2 257.98 C151.73 239.22, 168.9 218.48, 192.93 191.56 M135.2 257.98 C147.75 242.24, 161.01 227.52, 192.93 191.56 M140.19 258.34 C154.3 244.02, 165.73 227.96, 193.33 197.21 M140.19 258.34 C159.57 234.52, 179.95 211.78, 193.33 197.21 M145.83 257.94 C154.39 244.95, 165.14 236.4, 193.07 203.61 M145.83 257.94 C156.26 244.4, 169.16 230.83, 193.07 203.61 M150.82 258.3 C161 245.33, 170.07 237.48, 192.8 210 M150.82 258.3 C167.09 240.47, 181.9 223.32, 192.8 210 M156.46 257.91 C171.97 243.73, 184.08 225.31, 193.2 215.65 M156.46 257.91 C167.56 247.4, 176.66 234.74, 193.2 215.65 M162.1 257.52 C171.03 247.31, 181.63 235.01, 192.94 222.04 M162.1 257.52 C174.23 243.73, 185.48 230.06, 192.94 222.04 M167.75 257.12 C178.47 245.06, 184.64 237.51, 194.64 226.18 M167.75 257.12 C173.79 250.17, 180.16 243.4, 194.64 226.18 M174.7 255.22 C181.16 249.29, 186.16 245.16, 193.73 233.33 M174.7 255.22 C181.12 248.9, 185.34 241.9, 193.73 233.33" stroke="#b2f2bb" stroke-width="0.5" fill="none"></path><path d="M32 0 M32 0 C82.5 0.83, 131.14 -0.1, 160 0 M32 0 C71.89 0.95, 112.74 1.34, 160 0 M160 0 C180.8 -1.36, 192.82 12.47, 192 32 M160 0 C181.15 -0.2, 190.86 10.84, 192 32 M192 32 C195.2 83.37, 193.85 137.67, 192 224 M192 32 C191.37 97.26, 190.67 164.75, 192 224 M192 224 C190.42 243.89, 182.33 255.25, 160 256 M192 224 C190.64 244.61, 180.09 257.37, 160 256 M160 256 C132.47 257.41, 109.03 255.46, 32 256 M160 256 C113.05 256.51, 67.97 255.96, 32 256 M32 256 C11.9 255.72, -0.41 245.94, 0 224 M32 256 C9.85 253.79, -0.41 247.09, 0 224 M0 224 C-1.91 156.82, -2.39 89.1, 0 32 M0 224 C0.24 176.57, 0 126.32, 0 32 M0 32 C-1.22 9.18, 9.98 -1.22, 32 0 M0 32 C1.21 10.86, 9.88 -0.67, 32 0" stroke="#2f9e44" stroke-width="1" fill="none"></path></g><g stroke-linecap="round" transform="translate(503 128.5) rotate(0 104 200)"><path d="M7.86 8.16 C7.86 8.16, 7.86 8.16, 7.86 8.16 M7.86 8.16 C7.86 8.16, 7.86 8.16, 7.86 8.16 M2.35 20.59 C5.38 13.1, 13.98 10.06, 18.1 2.48 M2.35 20.59 C7.17 12.38, 12.07 9.26, 18.1 2.48 M2.75 26.24 C7.75 15.17, 17.53 9.18, 24.4 1.33 M2.75 26.24 C8.19 20.14, 16.41 10.22, 24.4 1.33 M2.48 32.64 C7.87 26.47, 17.52 11.35, 30.7 0.18 M2.48 32.64 C10.65 22.65, 20.08 12.78, 30.7 0.18 M2.88 38.28 C12.58 27.34, 18.75 24.09, 34.37 2.05 M2.88 38.28 C14.51 22.6, 29.58 10.29, 34.37 2.05 M2.62 44.68 C14.92 34.36, 20.19 27.67, 39.36 2.41 M2.62 44.68 C12.03 32.49, 22.59 20.24, 39.36 2.41 M2.36 51.07 C18 32.83, 27.83 21.95, 45 2.02 M2.36 51.07 C16.49 32.4, 35.41 14.44, 45 2.02 M2.75 56.72 C9.45 46.12, 21.76 33.35, 49.99 2.38 M2.75 56.72 C17.42 37.95, 32.77 20.75, 49.99 2.38 M2.49 63.11 C17.52 44.36, 33.65 19.39, 55.63 1.98 M2.49 63.11 C23.71 40.52, 41.06 20.69, 55.63 1.98 M2.88 68.76 C21.48 45.35, 46.25 22.48, 60.62 2.34 M2.88 68.76 C19 51.7, 30.48 38.27, 60.62 2.34 M2.62 75.16 C21.19 58.22, 37.31 36.36, 66.26 1.95 M2.62 75.16 C26.97 50.2, 48.98 25.52, 66.26 1.95 M2.36 81.55 C24.27 52.86, 47.12 28.62, 71.25 2.31 M2.36 81.55 C24.69 54.22, 45.4 29.47, 71.25 2.31 M2.76 87.2 C20.68 63.87, 37.33 43.83, 76.89 1.91 M2.76 87.2 C28.35 53.96, 60.96 22.05, 76.89 1.91 M2.49 93.59 C30.12 55.32, 66.95 19.99, 81.88 2.27 M2.49 93.59 C21.54 70.53, 43.09 45.22, 81.88 2.27 M2.23 99.99 C33.41 60.72, 69.06 20.37, 87.52 1.88 M2.23 99.99 C20.44 78.92, 42.85 56.43, 87.52 1.88 M2.63 105.64 C24.07 84.45, 43.01 61.64, 92.51 2.24 M2.63 105.64 C31.31 71.05, 59.99 35, 92.51 2.24 M2.37 112.03 C31.33 78.23, 64.97 45.04, 97.49 2.6 M2.37 112.03 C23.06 90.41, 45.59 63.63, 97.49 2.6 M2.76 117.68 C41.86 76.51, 83.44 32.16, 103.14 2.21 M2.76 117.68 C32.03 85.45, 62.4 52.36, 103.14 2.21 M2.5 124.07 C40.38 78.25, 75.6 32.78, 108.12 2.57 M2.5 124.07 C44.77 75.66, 85.13 27.25, 108.12 2.57 M2.24 130.47 C30.96 94.32, 63.22 57.29, 113.77 2.17 M2.24 130.47 C41.48 86.09, 76.69 43.12, 113.77 2.17 M2.63 136.11 C41.82 90.29, 78.73 50.03, 118.76 2.53 M2.63 136.11 C27.79 105.12, 56.49 70.1, 118.76 2.53 M2.37 142.51 C42.07 94.77, 85.38 40.94, 124.4 2.14 M2.37 142.51 C45.28 93.6, 87.34 44.18, 124.4 2.14 M2.77 148.16 C52.32 95.23, 102.3 36.97, 129.39 2.5 M2.77 148.16 C36.13 108.58, 72.71 65.23, 129.39 2.5 M2.5 154.55 C33.55 112.19, 71.44 73.23, 135.03 2.1 M2.5 154.55 C30.66 120.65, 58.93 85.9, 135.03 2.1 M2.24 160.95 C57.71 98.92, 111.65 36.41, 140.02 2.46 M2.24 160.95 C48.92 105.6, 94.98 54.08, 140.02 2.46 M2.64 166.59 C57.3 109.16, 108.08 44.14, 145.66 2.07 M2.64 166.59 C51.12 107.16, 102.95 47.11, 145.66 2.07 M2.38 172.99 C38.97 127.29, 82.02 80.1, 150.65 2.43 M2.38 172.99 C37.47 133.64, 75.33 90.33, 150.65 2.43 M2.11 179.39 C35.25 144.52, 70.72 102.11, 155.63 2.79 M2.11 179.39 C57.85 112.69, 112.28 46.99, 155.63 2.79 M2.51 185.03 C60.81 123.97, 110.73 63.18, 161.28 2.39 M2.51 185.03 C56.95 128.24, 109.41 66.91, 161.28 2.39 M2.25 191.43 C39.34 154.55, 70.77 112.35, 166.26 2.75 M2.25 191.43 C57.22 126.52, 115.06 59.13, 166.26 2.75 M2.64 197.07 C72.78 121.94, 140.85 41.5, 171.91 2.36 M2.64 197.07 C58.44 130.03, 113.35 65.37, 171.91 2.36 M2.38 203.47 C38.88 153.02, 84.13 109.44, 176.89 2.72 M2.38 203.47 C46.18 153.5, 88.27 104.06, 176.89 2.72 M2.12 209.87 C50.23 155.03, 100.33 98.84, 183.85 0.81 M2.12 209.87 C59.45 144.37, 115.95 80.08, 183.85 0.81 M2.51 215.51 C75.47 137.59, 145.86 54.81, 187.52 2.68 M2.51 215.51 C46.68 161, 95.38 106.49, 187.52 2.68 M2.25 221.91 C44.78 170.09, 88.46 119.96, 191.2 4.55 M2.25 221.91 C62.6 157, 120.77 88.73, 191.2 4.55 M2.65 227.55 C79.76 139.44, 152.39 51.2, 195.53 5.67 M2.65 227.55 C46.36 178.39, 90.41 130.75, 195.53 5.67 M2.39 233.95 C76.63 141.01, 155.54 55.15, 199.2 7.54 M2.39 233.95 C55.7 171.14, 110.96 107.61, 199.2 7.54 M2.12 240.35 C56.17 184.61, 108.83 122.67, 202.22 10.16 M2.12 240.35 C59.57 178.03, 117 114.46, 202.22 10.16 M2.52 245.99 C72.53 165.23, 139.21 90.67, 204.58 13.54 M2.52 245.99 C43.26 200.95, 83.99 153.18, 204.58 13.54 M2.26 252.39 C46.13 198.31, 89.32 147.53, 206.29 17.68 M2.26 252.39 C80.17 160.92, 160.96 71.25, 206.29 17.68 M2 258.79 C50.62 203.38, 93.42 150.08, 206.69 23.32 M2 258.79 C72.79 178.32, 142.95 97.81, 206.69 23.32 M2.39 264.43 C70.74 186.09, 143.8 104.27, 207.74 28.21 M2.39 264.43 C75.8 176.18, 151.85 88.72, 207.74 28.21 M2.13 270.83 C78.56 186.96, 152.06 100.77, 208.79 33.09 M2.13 270.83 C81.88 178.7, 159.61 86.73, 208.79 33.09 M2.52 276.47 C75.88 197.1, 144.49 111.44, 209.18 38.74 M2.52 276.47 C64.18 207.41, 125.22 133.64, 209.18 38.74 M2.26 282.87 C84.03 194.21, 164.97 101.18, 208.92 45.14 M2.26 282.87 C60.18 213, 119.21 143.05, 208.92 45.14 M2 289.27 C84.87 195.3, 170.73 104.53, 209.32 50.78 M2 289.27 C72.68 207.71, 143.08 126.59, 209.32 50.78 M2.4 294.91 C54.5 232.68, 109.59 169.41, 209.05 57.18 M2.4 294.91 C61.44 224.41, 120.08 156.45, 209.05 57.18 M2.13 301.31 C67.34 226.62, 129.34 151.62, 208.79 63.57 M2.13 301.31 C54.87 241.04, 108.47 180.7, 208.79 63.57 M2.53 306.95 C81.91 216.61, 159.05 130.97, 209.19 69.22 M2.53 306.95 C49.48 246.81, 98.91 192.63, 209.19 69.22 M2.27 313.35 C67.57 238.68, 134.21 160.96, 208.93 75.62 M2.27 313.35 C67.28 236.87, 131.01 162.33, 208.93 75.62 M2.01 319.75 C74 240.57, 140.33 160.15, 208.66 82.01 M2.01 319.75 C57.98 252.89, 112.4 189.49, 208.66 82.01 M2.4 325.39 C72.48 240.77, 144.63 160.09, 209.06 87.66 M2.4 325.39 C50.11 273.96, 93.59 220.28, 209.06 87.66 M2.14 331.79 C46.43 280.18, 91.36 235.12, 208.8 94.05 M2.14 331.79 C77.53 240.71, 155.74 152.99, 208.8 94.05 M1.88 338.19 C65.18 266.73, 131.17 195.76, 209.19 99.7 M1.88 338.19 C67.53 259.9, 133.43 181.32, 209.19 99.7 M2.27 343.83 C61.88 272.35, 124.81 197.73, 208.93 106.09 M2.27 343.83 C83.52 252.63, 162.28 159.07, 208.93 106.09 M2.01 350.23 C86.72 256.68, 166.33 164.04, 208.67 112.49 M2.01 350.23 C54.32 291.55, 106.67 227.93, 208.67 112.49 M2.4 355.87 C83 262.55, 161.02 164.63, 209.06 118.14 M2.4 355.87 C49.34 304.51, 91.91 255.11, 209.06 118.14 M2.14 362.27 C51.89 306.67, 99.52 253.42, 208.8 124.53 M2.14 362.27 C65.9 295.11, 126.96 222.96, 208.8 124.53 M1.23 369.42 C54.29 310.19, 105.91 249.96, 209.2 130.18 M1.23 369.42 C82.3 276.66, 163.3 185.03, 209.2 130.18 M2.28 374.31 C59.65 306.63, 120.92 240.96, 208.94 136.57 M2.28 374.31 C78.85 289.59, 154.42 201.96, 208.94 136.57 M2.67 379.95 C75.85 293.92, 146.76 213.21, 208.67 142.97 M2.67 379.95 C70.06 299.43, 139.67 220.12, 208.67 142.97 M4.38 384.08 C61.8 313.03, 116.91 250.45, 209.07 148.62 M4.38 384.08 C54.37 322.59, 103.74 263.55, 209.07 148.62 M6.74 387.46 C70.48 304.37, 144.4 226.73, 208.81 155.01 M6.74 387.46 C72.76 309.36, 136.1 237.15, 208.81 155.01 M9.1 390.84 C87.66 307.33, 159.88 219.6, 209.2 160.66 M9.1 390.84 C47.45 341.8, 89.79 294.38, 209.2 160.66 M12.12 393.47 C88.23 305.1, 161.13 224.9, 208.94 167.05 M12.12 393.47 C60.23 337.04, 112.06 277.23, 208.94 167.05 M14.49 396.85 C79.51 316.01, 146.6 236.56, 208.68 173.45 M14.49 396.85 C80.09 324.42, 140.13 252.36, 208.68 173.45 M18.16 398.72 C59.46 351.77, 103.77 303.45, 209.07 179.09 M18.16 398.72 C80.36 321.5, 144 249.19, 209.07 179.09 M22.49 399.83 C71.7 343.85, 121.49 287.44, 208.81 185.49 M22.49 399.83 C90.79 321.15, 156.56 244.69, 208.81 185.49 M26.82 400.94 C79.19 342.67, 138.62 275.92, 209.21 191.14 M26.82 400.94 C98.58 323.5, 168.78 242.29, 209.21 191.14 M31.81 401.3 C71.16 356.21, 115.35 309.59, 208.94 197.53 M31.81 401.3 C89.42 332.9, 148.04 264.46, 208.94 197.53 M36.8 401.66 C81.02 352.53, 125.36 299.01, 208.68 203.93 M36.8 401.66 C85.58 347.97, 132.07 289.69, 208.68 203.93 M42.44 401.27 C95.78 336.14, 148.64 272.15, 209.08 209.57 M42.44 401.27 C92.84 347.13, 142.53 289.82, 209.08 209.57 M47.43 401.63 C78.92 355.8, 114.16 319.19, 208.82 215.97 M47.43 401.63 C110.4 328.12, 172.63 252.9, 208.82 215.97 M53.07 401.24 C107.83 331.1, 169.3 260.35, 209.21 221.61 M53.07 401.24 C115.91 328.51, 178.84 256.12, 209.21 221.61 M58.06 401.6 C107.51 343.69, 152.53 290.23, 208.95 228.01 M58.06 401.6 C107.05 347.47, 154.27 290.17, 208.95 228.01 M63.7 401.2 C121.2 338.32, 176.25 271.07, 208.69 234.41 M63.7 401.2 C95.5 369.71, 122.93 334.04, 208.69 234.41 M68.69 401.56 C113.69 343.69, 163.79 286.44, 209.08 240.05 M68.69 401.56 C112.66 352.03, 159.23 303.85, 209.08 240.05 M74.33 401.17 C104.97 371.99, 128.37 335.89, 208.82 246.45 M74.33 401.17 C122.11 348.34, 168.51 294.86, 208.82 246.45 M79.32 401.53 C129.67 343.23, 176.44 289.58, 209.22 252.09 M79.32 401.53 C114.69 355.22, 154.17 314.02, 209.22 252.09 M84.96 401.13 C134.71 349.08, 176.24 291.23, 208.95 258.49 M84.96 401.13 C125.22 352.13, 168.86 304.42, 208.95 258.49 M89.95 401.49 C116.5 373.23, 141.31 340.45, 208.69 264.89 M89.95 401.49 C118.46 366.95, 143.09 338.78, 208.69 264.89 M94.93 401.85 C122.34 369.7, 149.82 340.17, 209.09 270.53 M94.93 401.85 C130.06 358.12, 168.74 317.25, 209.09 270.53 M100.58 401.46 C127.32 369.41, 155.59 338.74, 208.83 276.93 M100.58 401.46 C136.52 355.87, 172.41 314.62, 208.83 276.93 M105.56 401.82 C139.44 361.6, 174.95 318.5, 209.22 282.57 M105.56 401.82 C137.25 366.21, 166.22 328.75, 209.22 282.57 M111.21 401.42 C137.79 375.07, 154.33 354.64, 208.96 288.97 M111.21 401.42 C147.25 360.33, 178.68 324.29, 208.96 288.97 M116.19 401.78 C150.05 359, 189.2 323.28, 208.7 295.37 M116.19 401.78 C146.88 364.22, 176.39 327.81, 208.7 295.37 M121.84 401.39 C151.41 366.45, 181.18 327.19, 209.09 301.01 M121.84 401.39 C154.16 365.42, 184.83 331.97, 209.09 301.01 M126.82 401.75 C141.39 384.27, 157.24 366.4, 208.83 307.41 M126.82 401.75 C157.9 367.38, 187.16 334.95, 208.83 307.41 M132.47 401.35 C155.83 375.4, 172.39 350.35, 209.23 313.05 M132.47 401.35 C162.6 371.35, 186.7 340.49, 209.23 313.05 M137.45 401.71 C165.29 374.9, 190.56 341.1, 208.96 319.45 M137.45 401.71 C160 374.68, 184 350.53, 208.96 319.45 M143.1 401.32 C167.2 381.36, 181.65 352.13, 208.7 325.85 M143.1 401.32 C159.27 386.18, 175.93 367.49, 208.7 325.85 M148.08 401.68 C164.52 384.56, 175.16 371.16, 209.1 331.49 M148.08 401.68 C163.93 381.46, 182.15 361.93, 209.1 331.49 M153.07 402.04 C176.03 379.37, 197.46 352.51, 208.84 337.89 M153.07 402.04 C167.38 385.64, 184.85 365.24, 208.84 337.89 M158.71 401.65 C180.23 380.67, 192.67 359.38, 209.23 343.53 M158.71 401.65 C174.17 385.85, 188.07 369.56, 209.23 343.53 M163.7 402.01 C176.85 385.37, 190.45 375.07, 208.97 349.93 M163.7 402.01 C175.6 389.97, 188.77 374.84, 208.97 349.93 M169.34 401.61 C181.04 389.09, 187.98 374.1, 208.71 356.33 M169.34 401.61 C180.14 386.33, 195.53 373.22, 208.71 356.33 M176.3 399.71 C187.93 389.11, 195.72 380.8, 209.1 361.97 M176.3 399.71 C189.55 384.28, 201.5 368.81, 209.1 361.97 M181.94 399.31 C186.77 387.02, 196.86 380.17, 208.84 368.37 M181.94 399.31 C191.11 386.94, 202.02 377.87, 208.84 368.37 M188.24 398.16 C191.32 389.76, 198.39 379.91, 206.61 377.03 M188.24 398.16 C195.36 390.79, 203.59 381.89, 206.61 377.03 M191.92 400.03 C197.01 397.11, 199.55 394.08, 205.04 384.94 M191.92 400.03 C195.21 396.11, 198.09 390.95, 205.04 384.94" stroke="#b2f2bb" stroke-width="0.5" fill="none"></path><path d="M32 0 M32 0 C76.5 -3.18, 124.08 0.86, 176 0 M32 0 C73.75 -2.15, 121.43 0.42, 176 0 M176 0 C197.38 2.36, 209.92 7.22, 208 32 M176 0 C197.38 -3.72, 210.97 6.48, 208 32 M208 32 C207.98 128.9, 207.82 230.22, 208 368 M208 32 C206.15 154.15, 205.44 274.81, 208 368 M208 368 C207.1 393.04, 194.59 396.38, 176 400 M208 368 C207.85 386.7, 199.4 404.15, 176 400 M176 400 C142.73 398.24, 106.47 397.65, 32 400 M176 400 C140.81 400.89, 108.96 404.84, 32 400 M32 400 C7.84 402.73, -2.04 392.82, 0 368 M32 400 C14.84 401.23, -4.32 390.96, 0 368 M0 368 C-2 275.83, -1.84 185.46, 0 32 M0 368 C-0.08 272.86, -1.73 177.95, 0 32 M0 32 C-0.63 12.65, 9.86 1.62, 32 0 M0 32 C2.38 8.64, 12.69 -0.76, 32 0" stroke="#2f9e44" stroke-width="1" fill="none"></path></g><g stroke-linecap="round" transform="translate(10 280.5) rotate(0 66 48)"><path d="M5.73 6.31 C5.73 6.31, 5.73 6.31, 5.73 6.31 M5.73 6.31 C5.73 6.31, 5.73 6.31, 5.73 6.31 M0.22 18.74 C2.94 13.95, 12.07 5.04, 14.66 2.14 M0.22 18.74 C2.91 16.68, 7.36 9.27, 14.66 2.14 M0.62 24.39 C8.48 22.01, 8.68 14.5, 20.3 1.75 M0.62 24.39 C7.82 21.1, 12.17 14.15, 20.3 1.75 M0.36 30.78 C9 23.84, 14.19 19.93, 25.94 1.35 M0.36 30.78 C5.45 21.3, 13.87 14.25, 25.94 1.35 M0.75 36.43 C3.84 28.31, 13.65 22.93, 30.93 1.71 M0.75 36.43 C9.12 25.49, 15.99 16.84, 30.93 1.71 M0.49 42.83 C16.05 32.01, 24.99 10.97, 36.57 1.32 M0.49 42.83 C10.35 30.88, 17.14 20.7, 36.57 1.32 M0.23 49.22 C18 29.7, 34.5 16.03, 41.56 1.68 M0.23 49.22 C11.63 34.86, 23.33 20.06, 41.56 1.68 M0.62 54.87 C18.23 39.65, 34.51 18.96, 47.2 1.28 M0.62 54.87 C11.13 40.53, 21.33 31.63, 47.2 1.28 M0.36 61.26 C11.1 48.62, 23.24 37.1, 52.19 1.64 M0.36 61.26 C13.21 49.31, 24.44 35.37, 52.19 1.64 M0.75 66.91 C11.13 53.28, 27.13 31.85, 57.83 1.25 M0.75 66.91 C24.12 42.54, 45.13 14.45, 57.83 1.25 M0.49 73.3 C15.69 54.15, 24.32 42.63, 62.82 1.61 M0.49 73.3 C26.15 43.4, 51.93 17.22, 62.82 1.61 M1.54 78.19 C24.5 48.77, 48.69 16.72, 68.46 1.21 M1.54 78.19 C26.03 49.98, 48.88 20.62, 68.46 1.21 M3.25 82.33 C21.08 65.24, 40.72 48.62, 73.45 1.57 M3.25 82.33 C31.3 48.71, 61.03 17.37, 73.45 1.57 M4.96 86.46 C27.8 64.57, 55.46 31.3, 79.09 1.18 M4.96 86.46 C21.49 70.06, 35.46 50.37, 79.09 1.18 M6.66 90.59 C21.86 68.68, 41.79 53.55, 84.08 1.54 M6.66 90.59 C24.4 69.01, 44.15 46.12, 84.08 1.54 M10.34 92.46 C25.71 67.47, 47.78 46.7, 89.07 1.9 M10.34 92.46 C26.66 71.77, 43.02 54.38, 89.07 1.9 M14.01 94.33 C44.62 61.05, 71.22 28.67, 94.71 1.5 M14.01 94.33 C31.6 73.13, 52.72 51.09, 94.71 1.5 M18.35 95.45 C41.36 66.52, 62.08 43.58, 99.7 1.86 M18.35 95.45 C41.77 66.06, 69.74 32.93, 99.7 1.86 M23.33 95.81 C53.3 61.79, 76.16 32.29, 105.34 1.47 M23.33 95.81 C46.78 69.15, 69.88 42.79, 105.34 1.47 M26.35 98.43 C52.59 73.56, 78.14 42.49, 110.33 1.83 M26.35 98.43 C53.66 66.96, 81.96 34.05, 110.33 1.83 M31.99 98.04 C52.52 76.62, 72.27 51.7, 114.66 2.94 M31.99 98.04 C60.08 68.15, 88.95 36.58, 114.66 2.94 M36.98 98.4 C69.86 58.97, 102.68 27.8, 120.3 2.55 M36.98 98.4 C56.31 72.55, 82.74 45.56, 120.3 2.55 M42.62 98 C61.68 75.49, 86.57 49.22, 123.32 5.17 M42.62 98 C73.97 61.11, 105.85 21.04, 123.32 5.17 M47.61 98.36 C68.35 69.76, 96.25 41.1, 126.99 7.04 M47.61 98.36 C63.61 77.84, 84.64 57.78, 126.99 7.04 M53.25 97.97 C72.22 76.53, 90.54 59.07, 129.36 10.42 M53.25 97.97 C78.11 72.67, 104.03 43.84, 129.36 10.42 M58.24 98.33 C87.97 66.3, 113.38 34.44, 131.06 14.56 M58.24 98.33 C82.67 74.23, 103.98 46.51, 131.06 14.56 M63.88 97.93 C86.08 70.09, 116.73 39.89, 132.11 19.44 M63.88 97.93 C77.34 82.02, 90.95 67.26, 132.11 19.44 M68.87 98.29 C80.52 81.54, 96.01 65.44, 132.51 25.09 M68.87 98.29 C85.93 75.57, 102.95 57.59, 132.51 25.09 M74.51 97.9 C87.87 80.08, 111.22 61.05, 132.9 30.73 M74.51 97.9 C97.3 74.18, 116.08 48.16, 132.9 30.73 M79.5 98.26 C101.04 78.38, 114.73 53.21, 132.64 37.13 M79.5 98.26 C97.22 74.19, 115.72 53.84, 132.64 37.13 M85.14 97.87 C102.41 81.6, 119.44 59.04, 132.38 43.53 M85.14 97.87 C95.2 88.53, 104.23 75.14, 132.38 43.53 M90.13 98.23 C103.04 83.68, 120.46 66.13, 132.78 49.17 M90.13 98.23 C107.62 79.28, 124.23 61.95, 132.78 49.17 M95.12 98.59 C105.94 87.67, 111.03 82, 132.51 55.57 M95.12 98.59 C108.61 82.55, 121.15 67.3, 132.51 55.57 M100.76 98.19 C109.5 90.48, 112.19 81.76, 132.25 61.96 M100.76 98.19 C107.65 90.98, 116.93 79.46, 132.25 61.96 M105.75 98.55 C117.27 85.52, 126.37 78.67, 132.65 67.61 M105.75 98.55 C111.98 88.75, 119.23 81.87, 132.65 67.61 M110.74 98.91 C114.1 92.96, 120.03 82.87, 132.39 74.01 M110.74 98.91 C115.79 93.27, 124.88 82.81, 132.39 74.01 M119 95.5 C122.3 86.57, 128.31 80.1, 133.44 78.89 M119 95.5 C124.03 93.84, 127.44 88.42, 133.44 78.89" stroke="#b2f2bb" stroke-width="0.5" fill="none"></path><path d="M24 0 M24 0 C47.66 -0.59, 69.57 0.04, 108 0 M24 0 C50.93 -1.88, 78.28 -2.6, 108 0 M108 0 C122.7 3.95, 130.55 10.23, 132 24 M108 0 C123.14 -3.19, 128.32 4.31, 132 24 M132 24 C133.16 35.34, 135.28 54.3, 132 72 M132 24 C130.32 36.42, 130.38 48, 132 72 M132 72 C132.36 87.73, 124.49 92.75, 108 96 M132 72 C133.9 90.96, 125.03 94.59, 108 96 M108 96 C85.3 98.56, 59.82 97.84, 24 96 M108 96 C78.05 95.87, 47.98 95.45, 24 96 M24 96 C5.03 99.23, 1.56 85.28, 0 72 M24 96 C8.38 93.1, -1.24 87.54, 0 72 M0 72 C-0.61 59.76, 1.54 53.97, 0 24 M0 72 C0.6 59.09, -0.07 46.45, 0 24 M0 24 C-0.56 10.19, 4.17 0.66, 24 0 M0 24 C-0.17 9.55, 8.14 -1.46, 24 0" stroke="#2f9e44" stroke-width="1" fill="none"></path></g><g transform="translate(58.421875 304.5) rotate(0 17.578125 24)"><text x="17.578125" y="0" font-family="Cascadia, Segoe UI Emoji" font-size="20px" fill="#1e1e1e" text-anchor="middle" style="white-space: pre;" direction="ltr" dominant-baseline="text-before-edge">CI</text><text x="17.578125" y="24" font-family="Cascadia, Segoe UI Emoji" font-size="20px" fill="#1e1e1e" text-anchor="middle" style="white-space: pre;" direction="ltr" dominant-baseline="text-before-edge">Env</text></g><g stroke-linecap="round" transform="translate(536 209.5) rotate(0 65.5 48)"><path d="M5.73 6.31 C5.73 6.31, 5.73 6.31, 5.73 6.31 M5.73 6.31 C5.73 6.31, 5.73 6.31, 5.73 6.31 M0.22 18.74 C3.75 11.66, 11.52 4.86, 14.66 2.14 M0.22 18.74 C5.64 12.36, 12.42 6.21, 14.66 2.14 M0.62 24.39 C3.95 15.02, 11.74 12.15, 20.3 1.75 M0.62 24.39 C7.02 18.23, 8.32 12.54, 20.3 1.75 M0.36 30.78 C2.62 21.4, 7.85 21.19, 25.94 1.35 M0.36 30.78 C6.55 23.83, 15.67 14.83, 25.94 1.35 M0.75 36.43 C9.54 23.26, 17.16 18.29, 30.93 1.71 M0.75 36.43 C8.89 29.35, 14.22 19.93, 30.93 1.71 M0.49 42.83 C6.49 31.13, 22.67 15.86, 36.57 1.32 M0.49 42.83 C12.58 29.27, 25.24 15.25, 36.57 1.32 M0.23 49.22 C15.33 35.23, 27.54 16.7, 41.56 1.68 M0.23 49.22 C15.78 33.1, 27.12 20.14, 41.56 1.68 M0.62 54.87 C13.12 41.18, 17.97 28.48, 47.2 1.28 M0.62 54.87 C12.95 36.51, 29.17 24.23, 47.2 1.28 M0.36 61.26 C8.64 50.26, 24.06 40.06, 52.19 1.64 M0.36 61.26 C17.79 39.43, 34.43 22.12, 52.19 1.64 M0.75 66.91 C17.74 45.14, 31.35 26.44, 57.83 1.25 M0.75 66.91 C16.17 52.5, 31.32 36.46, 57.83 1.25 M0.49 73.3 C13 58.64, 29.5 39.43, 62.82 1.61 M0.49 73.3 C18.22 57.98, 29.98 36.48, 62.82 1.61 M1.54 78.19 C21.47 57.51, 33.8 34.18, 68.46 1.21 M1.54 78.19 C14.46 62.38, 31.22 44.27, 68.46 1.21 M3.25 82.33 C30.42 52.61, 54.57 24.6, 73.45 1.57 M3.25 82.33 C21.04 60.76, 41.14 36.8, 73.45 1.57 M4.96 86.46 C26.51 59.08, 54.07 30.11, 79.09 1.18 M4.96 86.46 C30.16 56.28, 56.12 26.54, 79.09 1.18 M6.66 90.59 C33.05 62.65, 59.01 34.62, 84.08 1.54 M6.66 90.59 C29.52 61, 56.01 31.26, 84.08 1.54 M10.34 92.46 C43.7 59.93, 68.26 22.35, 89.07 1.9 M10.34 92.46 C36.93 57.51, 66.72 25.07, 89.07 1.9 M14.01 94.33 C46.69 59.85, 79.01 21.76, 94.71 1.5 M14.01 94.33 C44.12 63.45, 70.27 33.38, 94.71 1.5 M18.35 95.45 C47.29 64.37, 73.9 26.97, 99.7 1.86 M18.35 95.45 C43.58 67.88, 66.54 42.14, 99.7 1.86 M23.33 95.81 C47.42 73.09, 69.46 49.59, 105.34 1.47 M23.33 95.81 C41.43 73.08, 64.31 47.67, 105.34 1.47 M26.35 98.43 C59.64 66.73, 90.05 25.4, 109.67 2.58 M26.35 98.43 C58.29 64.99, 87.98 31.08, 109.67 2.58 M31.99 98.04 C58.12 68.02, 76.71 41.85, 114.66 2.94 M31.99 98.04 C56.32 70.52, 81.16 38.86, 114.66 2.94 M36.98 98.4 C63.38 72.07, 91.23 34.98, 119.64 3.3 M36.98 98.4 C59.15 73, 82.94 45.19, 119.64 3.3 M42.62 98 C72.91 71.91, 97.17 43.95, 123.32 5.17 M42.62 98 C71.57 62.81, 101.47 28.93, 123.32 5.17 M47.61 98.36 C71.39 74.23, 88.1 52.6, 126.34 7.8 M47.61 98.36 C76.8 67.61, 105.14 31.97, 126.34 7.8 M53.25 97.97 C80.48 65.91, 110.72 31.07, 128.7 11.18 M53.25 97.97 C76.99 70.75, 101.04 40.87, 128.7 11.18 M58.24 98.33 C79.74 67.28, 110.41 38.91, 131.06 14.56 M58.24 98.33 C86.9 68.12, 115.9 34.86, 131.06 14.56 M63.88 97.93 C92.54 63.82, 117.25 39.7, 131.46 20.2 M63.88 97.93 C88.53 69.34, 109.85 44.87, 131.46 20.2 M68.87 98.29 C89.35 69.23, 116.75 42.72, 132.51 25.09 M68.87 98.29 C95.91 70.1, 119.14 38.69, 132.51 25.09 M74.51 97.9 C99.74 71.86, 117.31 52.22, 132.25 31.49 M74.51 97.9 C97.71 73.34, 119.81 46.5, 132.25 31.49 M79.5 98.26 C90.93 85.88, 106.06 64.5, 131.99 37.88 M79.5 98.26 C90 84.19, 103.21 71.81, 131.99 37.88 M85.14 97.87 C98.34 79.74, 113.12 61.8, 132.38 43.53 M85.14 97.87 C101.56 77.88, 117.17 59.99, 132.38 43.53 M90.13 98.23 C102.92 88.11, 107.11 79.76, 132.12 49.92 M90.13 98.23 C105.39 79.8, 123.93 58.88, 132.12 49.92 M95.12 98.59 C104.07 84.28, 118.65 68.39, 131.86 56.32 M95.12 98.59 C104.13 88.13, 110.83 79.62, 131.86 56.32 M100.76 98.19 C113.98 89.78, 117.58 80.09, 132.25 61.96 M100.76 98.19 C107.68 88.62, 115.47 78.72, 132.25 61.96 M107.72 96.29 C116.84 93.46, 118.46 82.76, 131.99 68.36 M107.72 96.29 C112.48 91.28, 117.91 84.91, 131.99 68.36 M113.36 95.89 C117.07 87.12, 121.07 82.21, 131.73 74.76 M113.36 95.89 C120.46 85.87, 126.56 77.23, 131.73 74.76 M119 95.5 C124.44 86.92, 130.8 86.22, 132.78 79.65 M119 95.5 C120.35 92.61, 123.71 88.91, 132.78 79.65" stroke="#b2f2bb" stroke-width="0.5" fill="none"></path><path d="M24 0 M24 0 C46.39 1.45, 77.87 0.69, 107 0 M24 0 C48.1 0.28, 69.28 -1.03, 107 0 M107 0 C123.38 2.74, 134.56 5.3, 131 24 M107 0 C125.32 2.3, 135.35 9.33, 131 24 M131 24 C129.06 35.17, 129.25 44.6, 131 72 M131 24 C130.36 37.8, 129.62 52.79, 131 72 M131 72 C134.73 87.18, 125.71 98.91, 107 96 M131 72 C133.87 89.17, 124.34 98.95, 107 96 M107 96 C83.93 94.26, 60.88 94.53, 24 96 M107 96 C86.57 95.58, 64.18 94.05, 24 96 M24 96 C7.73 97.69, -3.6 87.6, 0 72 M24 96 C7.35 98.76, -4.09 83.76, 0 72 M0 72 C1.92 59.04, -3.71 40.84, 0 24 M0 72 C0.32 54.42, 0.84 35.24, 0 24 M0 24 C-0.32 10.92, 8.63 0.12, 24 0 M0 24 C0.01 3.89, 6.24 4.37, 24 0" stroke="#2f9e44" stroke-width="1" fill="none"></path></g><g transform="translate(589.78125 245.5) rotate(0 11.71875 12)"><text x="11.71875" y="0" font-family="Cascadia, Segoe UI Emoji" font-size="20px" fill="#2f9e44" text-anchor="middle" style="white-space: pre;" direction="ltr" dominant-baseline="text-before-edge">V2</text></g><g stroke-linecap="round" transform="translate(254 295.5) rotate(0 65.5 48)"><path d="M5.73 6.31 C5.73 6.31, 5.73 6.31, 5.73 6.31 M5.73 6.31 C5.73 6.31, 5.73 6.31, 5.73 6.31 M0.22 18.74 C3.82 11.65, 8.11 11.26, 14.66 2.14 M0.22 18.74 C4.35 14.03, 7.6 10.57, 14.66 2.14 M0.62 24.39 C10.97 12.09, 16.36 3.41, 20.3 1.75 M0.62 24.39 C8.33 17.36, 14.22 7.94, 20.3 1.75 M0.36 30.78 C6.97 24.65, 17.94 11.68, 25.94 1.35 M0.36 30.78 C8.55 21.05, 13.83 14.61, 25.94 1.35 M0.75 36.43 C6.28 22.53, 17.56 12.08, 30.93 1.71 M0.75 36.43 C8.17 28.06, 14.75 16.62, 30.93 1.71 M0.49 42.83 C11.04 30.49, 32.12 8.14, 36.57 1.32 M0.49 42.83 C7.19 31.97, 16.23 21.78, 36.57 1.32 M0.23 49.22 C5.34 37.44, 17.74 28.4, 41.56 1.68 M0.23 49.22 C16.62 32.64, 33.21 13.89, 41.56 1.68 M0.62 54.87 C14.25 36.16, 34.7 12.72, 47.2 1.28 M0.62 54.87 C17.2 37.11, 32.46 17.52, 47.2 1.28 M0.36 61.26 C18.16 47.46, 31.74 26.82, 52.19 1.64 M0.36 61.26 C11.79 46.91, 26.19 33.18, 52.19 1.64 M0.75 66.91 C14.61 47.46, 32.18 28.62, 57.83 1.25 M0.75 66.91 C14.49 52.47, 27.05 36.69, 57.83 1.25 M0.49 73.3 C19.85 51.64, 42.5 21.18, 62.82 1.61 M0.49 73.3 C19.42 51.65, 36.95 31.36, 62.82 1.61 M1.54 78.19 C17.75 58.73, 36.73 40.66, 68.46 1.21 M1.54 78.19 C27.96 50.3, 55.31 18.3, 68.46 1.21 M3.25 82.33 C27.26 61.24, 46.47 34.39, 73.45 1.57 M3.25 82.33 C26.33 58.08, 51.76 30.94, 73.45 1.57 M4.96 86.46 C26.95 57.58, 50.42 27.8, 79.09 1.18 M4.96 86.46 C31.12 58.02, 59.42 26.4, 79.09 1.18 M6.66 90.59 C30.97 63.33, 54.93 29.49, 84.08 1.54 M6.66 90.59 C32.62 56.85, 58.83 27.34, 84.08 1.54 M10.34 92.46 C22.98 76.45, 39.38 53.32, 89.07 1.9 M10.34 92.46 C33.21 64.4, 56.93 40.72, 89.07 1.9 M14.01 94.33 C46.45 58.26, 69.18 27.28, 94.71 1.5 M14.01 94.33 C33.65 71.32, 52.76 47.42, 94.71 1.5 M18.35 95.45 C47.13 62.08, 80.26 21.25, 99.7 1.86 M18.35 95.45 C41.85 70.66, 69.07 41.2, 99.7 1.86 M23.33 95.81 C39.17 72.3, 60.7 48.15, 105.34 1.47 M23.33 95.81 C48.11 65.24, 74.19 37.92, 105.34 1.47 M26.35 98.43 C63.01 61.43, 88.87 22.32, 109.67 2.58 M26.35 98.43 C47.1 77.35, 67.98 52.37, 109.67 2.58 M31.99 98.04 C50.25 71.25, 72.58 50.56, 114.66 2.94 M31.99 98.04 C61.69 65.85, 91.13 27.32, 114.66 2.94 M36.98 98.4 C59.1 67.66, 87.56 44.33, 119.64 3.3 M36.98 98.4 C63.47 68.96, 86.22 39.73, 119.64 3.3 M42.62 98 C61.69 74.17, 83.13 48.45, 123.32 5.17 M42.62 98 C60.03 77.64, 78.51 53.89, 123.32 5.17 M47.61 98.36 C71.74 68.56, 103.53 31.96, 126.34 7.8 M47.61 98.36 C68.2 70.71, 94.79 45.99, 126.34 7.8 M53.25 97.97 C67.87 74.8, 86.73 58.11, 128.7 11.18 M53.25 97.97 C70.86 81.74, 87.7 60.39, 128.7 11.18 M58.24 98.33 C84.36 72.08, 106.29 39.14, 131.06 14.56 M58.24 98.33 C78.66 70.79, 102.79 47.67, 131.06 14.56 M63.88 97.93 C90.93 70.39, 115.43 38.76, 131.46 20.2 M63.88 97.93 C79.48 76.39, 98.53 56.24, 131.46 20.2 M68.87 98.29 C89.72 71.61, 117.61 51.45, 132.51 25.09 M68.87 98.29 C81.87 82.42, 97.4 63.54, 132.51 25.09 M74.51 97.9 C93.45 69.35, 118.11 46.37, 132.25 31.49 M74.51 97.9 C96.83 70.64, 115.89 45.7, 132.25 31.49 M79.5 98.26 C90.83 84.46, 111.92 65.51, 131.99 37.88 M79.5 98.26 C96.15 79.65, 110.28 61.44, 131.99 37.88 M85.14 97.87 C98.58 86.08, 107.62 70.18, 132.38 43.53 M85.14 97.87 C98.02 86.78, 107.96 73.69, 132.38 43.53 M90.13 98.23 C102.97 83.31, 114.12 72.87, 132.12 49.92 M90.13 98.23 C103.56 82.86, 118.69 65.06, 132.12 49.92 M95.12 98.59 C111.17 81.03, 124.11 63, 131.86 56.32 M95.12 98.59 C108.3 81.82, 122.56 67.51, 131.86 56.32 M100.76 98.19 C110.22 87.33, 114.96 85.44, 132.25 61.96 M100.76 98.19 C106.84 91.19, 116.07 80.18, 132.25 61.96 M107.72 96.29 C112.02 90.76, 125.18 77.46, 131.99 68.36 M107.72 96.29 C113.81 87.39, 124.88 79.76, 131.99 68.36 M113.36 95.89 C116.99 94.02, 118.73 81.61, 131.73 74.76 M113.36 95.89 C120.59 89.02, 128.7 78.93, 131.73 74.76 M119 95.5 C121.5 90.34, 121.88 86.32, 132.78 79.65 M119 95.5 C125.2 89.49, 130.56 82.95, 132.78 79.65" stroke="#b2f2bb" stroke-width="0.5" fill="none"></path><path d="M24 0 M24 0 C50.54 1.07, 71.73 -3.11, 107 0 M24 0 C51.55 -2.02, 80.64 0.52, 107 0 M107 0 C121.28 -2.6, 127.54 7.54, 131 24 M107 0 C119.99 -0.06, 135.27 11.96, 131 24 M131 24 C128.53 34.5, 129.26 54.18, 131 72 M131 24 C132.33 35.12, 130.68 45.4, 131 72 M131 72 C127.55 87.04, 125.23 92.39, 107 96 M131 72 C128.25 83.93, 121.62 91.57, 107 96 M107 96 C84.84 93.45, 69.83 96.82, 24 96 M107 96 C79.63 94.96, 54.16 97.26, 24 96 M24 96 C9.46 98.38, -1.47 87.15, 0 72 M24 96 C8.17 97.29, -4.43 84.25, 0 72 M0 72 C2.42 53.22, -1.53 37.11, 0 24 M0 72 C0.39 58.89, 1.33 42.85, 0 24 M0 24 C-3.37 6.16, 5.65 -2.76, 24 0 M0 24 C3.81 4.01, 9.88 -0.56, 24 0" stroke="#2f9e44" stroke-width="1" fill="none"></path></g><g transform="translate(307.78125 331.5) rotate(0 11.71875 12)"><text x="11.71875" y="0" font-family="Cascadia, Segoe UI Emoji" font-size="20px" fill="#2f9e44" text-anchor="middle" style="white-space: pre;" direction="ltr" dominant-baseline="text-before-edge">V2</text></g><g stroke-linecap="round" transform="translate(542 422.5) rotate(0 65.5 48)"><path d="M5.73 6.31 C5.73 6.31, 5.73 6.31, 5.73 6.31 M5.73 6.31 C5.73 6.31, 5.73 6.31, 5.73 6.31 M0.22 18.74 C3.94 10.67, 4.84 10.79, 14.66 2.14 M0.22 18.74 C5.44 14.1, 5.57 10.8, 14.66 2.14 M0.62 24.39 C3.42 13, 17.02 7.65, 20.3 1.75 M0.62 24.39 C8.02 15.54, 12.52 11.27, 20.3 1.75 M0.36 30.78 C12.94 22.04, 20.5 6.94, 25.94 1.35 M0.36 30.78 C5.18 23.32, 12.05 17.2, 25.94 1.35 M0.75 36.43 C12.69 19.35, 22.47 13.1, 30.93 1.71 M0.75 36.43 C6.6 27.48, 15.35 17.14, 30.93 1.71 M0.49 42.83 C12.16 27.6, 23.69 11.27, 36.57 1.32 M0.49 42.83 C14.46 28, 22.72 14.46, 36.57 1.32 M0.23 49.22 C9.85 41.46, 21.43 31.7, 41.56 1.68 M0.23 49.22 C12.75 30.82, 26.16 16.61, 41.56 1.68 M0.62 54.87 C13.87 41.29, 25.5 29.04, 47.2 1.28 M0.62 54.87 C17.61 34.78, 32.97 16.06, 47.2 1.28 M0.36 61.26 C12.56 46.48, 34.57 23.26, 52.19 1.64 M0.36 61.26 C21.22 40.48, 42.11 15.85, 52.19 1.64 M0.75 66.91 C11.02 51.75, 29.96 35.35, 57.83 1.25 M0.75 66.91 C18.26 45.18, 37.69 21.55, 57.83 1.25 M0.49 73.3 C18.06 58.3, 33.36 37.55, 62.82 1.61 M0.49 73.3 C18.88 54.69, 33.57 31.77, 62.82 1.61 M1.54 78.19 C22.64 52.96, 41.6 27.21, 68.46 1.21 M1.54 78.19 C21.98 57.19, 41.86 34.14, 68.46 1.21 M3.25 82.33 C15.02 60.48, 29.87 48.17, 73.45 1.57 M3.25 82.33 C30.91 51.23, 56.57 17.3, 73.45 1.57 M4.96 86.46 C28.8 52.84, 59.17 17.88, 79.09 1.18 M4.96 86.46 C34.75 51.89, 65.36 16.68, 79.09 1.18 M6.66 90.59 C32.65 58.93, 53.21 33.32, 84.08 1.54 M6.66 90.59 C31.5 63.49, 55.09 32.84, 84.08 1.54 M10.34 92.46 C41.13 59.36, 70.01 21.59, 89.07 1.9 M10.34 92.46 C28.18 75.8, 41.89 55.27, 89.07 1.9 M14.01 94.33 C38.03 61.4, 66.57 28.99, 94.71 1.5 M14.01 94.33 C38.47 65.4, 66.81 38.94, 94.71 1.5 M18.35 95.45 C38.47 79.4, 49.38 56.57, 99.7 1.86 M18.35 95.45 C47.25 63.8, 74.67 32.13, 99.7 1.86 M23.33 95.81 C55.43 57.64, 84.64 24.19, 105.34 1.47 M23.33 95.81 C45.31 66.08, 70.91 40.86, 105.34 1.47 M26.35 98.43 C61 63.49, 87.05 23.45, 109.67 2.58 M26.35 98.43 C52.98 65.36, 82.57 33.81, 109.67 2.58 M31.99 98.04 C50.68 79.12, 67.44 55.6, 114.66 2.94 M31.99 98.04 C52.21 73.43, 68.7 54.62, 114.66 2.94 M36.98 98.4 C57 74.85, 77.52 53.33, 119.64 3.3 M36.98 98.4 C62.24 66.41, 90.65 37.37, 119.64 3.3 M42.62 98 C62.97 74.23, 84.26 51.59, 123.32 5.17 M42.62 98 C69.49 63.93, 95.82 33.68, 123.32 5.17 M47.61 98.36 C73.15 67.82, 100.22 34.43, 126.34 7.8 M47.61 98.36 C71.96 71.39, 93.36 42.63, 126.34 7.8 M53.25 97.97 C74.52 76.98, 86.07 62.29, 128.7 11.18 M53.25 97.97 C81.29 65.96, 105.15 38.61, 128.7 11.18 M58.24 98.33 C84.51 63.97, 116.36 36.66, 131.06 14.56 M58.24 98.33 C82.44 68.55, 105.27 39.82, 131.06 14.56 M63.88 97.93 C86.68 71.15, 109.65 39.71, 131.46 20.2 M63.88 97.93 C89.07 70.08, 113.02 44.37, 131.46 20.2 M68.87 98.29 C79.84 84.96, 91.99 71.36, 132.51 25.09 M68.87 98.29 C93.3 71.46, 116.09 46.47, 132.51 25.09 M74.51 97.9 C92.72 78.16, 104.07 59.09, 132.25 31.49 M74.51 97.9 C97.66 75.69, 115.05 52.55, 132.25 31.49 M79.5 98.26 C100.87 79.09, 119.34 53.13, 131.99 37.88 M79.5 98.26 C95.69 78, 113.64 60.81, 131.99 37.88 M85.14 97.87 C103.23 84.35, 112.08 61.57, 132.38 43.53 M85.14 97.87 C96.79 87.48, 109.31 73.54, 132.38 43.53 M90.13 98.23 C102.27 86.02, 108.95 77.16, 132.12 49.92 M90.13 98.23 C100.61 84, 113.74 70.33, 132.12 49.92 M95.12 98.59 C110.41 84.65, 124.54 66.18, 131.86 56.32 M95.12 98.59 C104.2 88.24, 116.57 73.71, 131.86 56.32 M100.76 98.19 C115.56 85.07, 121.01 71.8, 132.25 61.96 M100.76 98.19 C110.77 88.59, 119.18 78.6, 132.25 61.96 M107.72 96.29 C114.27 86.65, 121.7 83.45, 131.99 68.36 M107.72 96.29 C114.06 90.37, 122.06 81.19, 131.99 68.36 M113.36 95.89 C119.14 90.19, 119.94 82.26, 131.73 74.76 M113.36 95.89 C117.41 88.78, 125.97 83.53, 131.73 74.76 M119 95.5 C125.7 90.48, 128.43 88, 132.78 79.65 M119 95.5 C125 88.74, 129.65 81.68, 132.78 79.65" stroke="#a5d8ff" stroke-width="0.5" fill="none"></path><path d="M24 0 M24 0 C45.39 -2.49, 71.52 -0.5, 107 0 M24 0 C54.73 -0.36, 86.8 2.24, 107 0 M107 0 C125.94 2.3, 135 4.46, 131 24 M107 0 C122.84 -3.83, 128.59 10.69, 131 24 M131 24 C130.13 38.62, 127.48 45.47, 131 72 M131 24 C131.41 40.87, 132.1 57.65, 131 72 M131 72 C128.13 91.67, 121.26 97.72, 107 96 M131 72 C126.56 88.55, 124.52 97.59, 107 96 M107 96 C75.21 97.05, 51.22 94.72, 24 96 M107 96 C80.96 96.59, 51.06 96.28, 24 96 M24 96 C9.92 92.55, 0.04 84.76, 0 72 M24 96 C10.97 91.81, -0.24 86.07, 0 72 M0 72 C1.89 57.17, 1.85 40.32, 0 24 M0 72 C-1.12 56.71, -0.4 46.84, 0 24 M0 24 C-2.74 4.38, 7.87 -2.29, 24 0 M0 24 C2.06 12.15, 5.12 2.43, 24 0" stroke="#1971c2" stroke-width="1" fill="none"></path></g><g transform="translate(595.78125 458.5) rotate(0 11.71875 12)"><text x="11.71875" y="0" font-family="Cascadia, Segoe UI Emoji" font-size="20px" fill="#1971c2" text-anchor="middle" style="white-space: pre;" direction="ltr" dominant-baseline="text-before-edge">V1</text></g><g stroke-linecap="round" transform="translate(1011.6177214938702 133.97058492971576) rotate(0 12.071116973872904 12.014314754698233)"><path d="M4.56 2.64 C4.56 2.64, 4.56 2.64, 4.56 2.64 M4.56 2.64 C4.56 2.64, 4.56 2.64, 4.56 2.64 M1.52 11.5 C5.14 8.82, 7.63 6.73, 12.58 0.89 M1.84 11.32 C5.57 7.34, 8.13 3.86, 11.64 0.89 M2.44 16.47 C7.99 12.56, 8.58 11.13, 16.4 1.35 M3 16.62 C6.57 11.46, 10.42 7.81, 17.37 1.07 M5.34 21.42 C11.14 15.06, 15.12 10.95, 19.81 3.02 M5.84 20.53 C11.02 13.77, 16.38 7.29, 20.49 2.84 M7.34 22.68 C13.07 17.36, 17.84 13.61, 22.89 5.21 M7.33 24.27 C12.85 18.47, 17.74 13.3, 22.02 6.57 M11.35 24.9 C15.77 18.56, 20.78 13.26, 26.02 11.59 M11.28 26.54 C14.33 21.95, 17.56 17.32, 24.77 10.12" stroke="#12b886" stroke-width="0.5" fill="none"></path><path d="M11.26 0.17 C13.95 -0.2, 17.84 0.04, 19.9 1.74 C21.95 3.44, 23.11 7.58, 23.57 10.36 C24.02 13.14, 23.7 16.39, 22.63 18.42 C21.57 20.45, 19.63 21.57, 17.17 22.54 C14.72 23.5, 10.44 24.98, 7.9 24.2 C5.36 23.43, 3.23 20.26, 1.94 17.88 C0.64 15.5, -0.34 12.51, 0.12 9.94 C0.58 7.37, 2.34 4.04, 4.72 2.46 C7.1 0.88, 12.62 0.7, 14.41 0.43 C16.2 0.17, 15.47 0.6, 15.48 0.88 M8.58 1.31 C10.77 0.65, 15.54 1.38, 18.12 2.19 C20.7 3.01, 23.08 4.09, 24.05 6.2 C25.03 8.31, 24.95 12.37, 23.97 14.84 C22.99 17.31, 20.34 19.41, 18.18 21.03 C16.02 22.64, 13.7 24.69, 11.02 24.54 C8.34 24.4, 3.8 22.31, 2.09 20.17 C0.38 18.02, 0.79 14.42, 0.76 11.67 C0.73 8.93, 0.28 5.35, 1.91 3.69 C3.55 2.02, 9.44 2.47, 10.57 1.69 C11.7 0.9, 8.92 -0.78, 8.71 -1.02" stroke="#495057" stroke-width="1" fill="none"></path></g><g stroke-linecap="round"><g transform="translate(1023.632036248569 157.99921443911228) rotate(0 -0.3878570008820361 16.522513257001037)" fill-rule="evenodd"><path d="M-7.84 -0.19 C-7.84 -0.19, -7.84 -0.19, -7.84 -0.19 M-7.84 -0.19 C-7.84 -0.19, -7.84 -0.19, -7.84 -0.19 M-13.95 12.26 C-8.71 6.84, -5.89 4.77, -3.47 -0.57 M-13.21 10.74 C-10.66 8.03, -7.61 5.2, -2.17 -0.28 M-14.9 17.76 C-8.45 12.58, -7.06 11.83, 0 0.4 M-13.31 18.12 C-7.26 11.29, -2.34 4.6, 2.45 0.7 M-14.47 27.93 C-6.32 18.18, 0.52 7.68, 7.43 -2.01 M-16.12 26.32 C-7.85 18.66, -1.65 11.08, 7.84 -1.09 M-15.93 34.5 C-7.78 24.01, -0.33 15.79, 11.05 2.76 M-15.29 32.66 C-5.73 22.97, 2.33 12.46, 9.21 3.64 M-11.71 36.66 C-4.55 25.95, 5.57 14.22, 11.6 9.14 M-11.16 33.93 C-4.7 26.86, 3.22 16.58, 12.36 7.59 M-6.93 37.09 C-2.49 29.48, 2.8 24.09, 12.51 11.53 M-7.26 37.05 C-1.07 28.01, 8.09 19.3, 13.23 12.22 M-3.55 36.36 C2.71 33.64, 4.46 28.53, 13.21 18.3 M-3.51 36.61 C3.07 30.17, 7.36 24.56, 14.03 16.82 M0.54 37.27 C8.27 31.46, 9.95 27.96, 16.55 19.96 M1.51 38.34 C5.55 33.87, 10.16 27.45, 15.58 19.9 M9.09 37.51 C11.52 33.97, 13 31.57, 17.05 25.75 M7.67 35.64 C11.24 33.23, 13.5 30.24, 18 25.07" stroke="#12b886" stroke-width="0.5" fill="none"></path><path d="M-0.1 -1.19 C1.32 -1.43, 5.23 -6, 7.95 -0.37 C10.67 5.26, 20.36 27.25, 16.22 32.59 C12.07 37.93, -13.07 37.15, -16.93 31.69 C-20.78 26.23, -9.89 5.02, -6.9 -0.16 C-3.92 -5.34, -0.03 0.68, 1 0.6 M-1.61 0.8 C-0.3 1.24, 4.11 -3.98, 6.98 0.97 C9.84 5.93, 19.58 25.26, 15.55 30.53 C11.53 35.81, -13.26 37.67, -17.16 32.61 C-21.05 27.54, -10.53 5.59, -7.79 0.14 C-5.05 -5.31, -1.94 -0.32, -0.72 -0.12" stroke="#495057" stroke-width="1" fill="none"></path></g></g><mask></mask><g stroke-linecap="round" transform="translate(1009.6177214938702 338.97058492971587) rotate(0 12.071116973872904 12.014314754698262)"><path d="M4.39 2.49 C4.39 2.49, 4.39 2.49, 4.39 2.49 M4.39 2.49 C4.39 2.49, 4.39 2.49, 4.39 2.49 M3.24 11.22 C6.17 7.66, 8.3 3.64, 10.08 0.5 M2.25 10.26 C5.31 7.82, 7.11 5.47, 10.33 1.06 M2.09 18.27 C6.24 12.56, 9.6 9.03, 15.88 1.74 M2.7 16.52 C7.69 11.92, 11.28 6.62, 14.13 2.57 M4.98 22.02 C8.7 15.34, 15.33 7.63, 18.45 5.82 M5.52 19.28 C8.9 15.79, 13.66 9.14, 19.21 4.27 M9.1 23.2 C11.79 17.61, 15.28 14.3, 21.32 5.95 M8.77 23.16 C12.45 17.09, 19.04 11.33, 22.04 6.63 M12.53 22.54 C17.22 21.15, 17.84 17.63, 23.47 11.04 M12.56 22.77 C17.16 18.49, 19.7 14.97, 24.22 9.71 M16.25 24.17 C21.74 20.16, 22.7 17.89, 27.27 12.32 M16.98 24.97 C19.74 21.92, 22.94 17.41, 26.55 12.27" stroke="#12b886" stroke-width="0.5" fill="none"></path><path d="M12.77 0.96 C15.13 1.28, 18.46 2.75, 20.43 4.31 C22.4 5.87, 24.42 7.77, 24.59 10.32 C24.77 12.87, 23.02 17.47, 21.48 19.59 C19.93 21.71, 17.72 22.56, 15.31 23.03 C12.91 23.51, 9.27 23.54, 7.04 22.45 C4.81 21.35, 2.95 18.66, 1.94 16.47 C0.93 14.27, 0.53 11.65, 0.98 9.27 C1.43 6.89, 2.28 3.58, 4.63 2.2 C6.99 0.83, 13.36 1.1, 15.1 1.01 C16.85 0.92, 15.17 1.74, 15.1 1.68 M17.04 -0.69 C19.43 -0.26, 21.92 2.81, 23.04 5.08 C24.17 7.35, 24.19 10.14, 23.77 12.95 C23.35 15.76, 22.64 20.06, 20.52 21.94 C18.4 23.82, 13.64 24.48, 11.05 24.25 C8.46 24.01, 6.93 22.37, 4.99 20.53 C3.05 18.68, -0.16 15.37, -0.57 13.18 C-0.98 10.98, 1.28 9.7, 2.54 7.37 C3.8 5.04, 4.82 0.49, 7.01 -0.8 C9.2 -2.1, 14.03 -0.5, 15.67 -0.41 C17.31 -0.33, 16.59 -0.52, 16.85 -0.28" stroke="#495057" stroke-width="1" fill="none"></path></g><g stroke-linecap="round"><g transform="translate(1021.632036248569 362.9992144391124) rotate(0 0.844345751907781 16.70974353239785)" fill-rule="evenodd"><path d="M-7.84 -0.19 C-7.84 -0.19, -7.84 -0.19, -7.84 -0.19 M-7.84 -0.19 C-7.84 -0.19, -7.84 -0.19, -7.84 -0.19 M-12.48 12.25 C-9.91 6.83, -6.65 4.46, -1.4 -0.87 M-12.38 10.85 C-9.98 8.84, -9.41 7.54, -2.42 -0.56 M-12.86 18.71 C-10.34 12.26, -2.93 8.97, 1.61 0.58 M-13.38 17.37 C-7.35 11.97, -3.51 7.45, 1.71 1.64 M-14.26 24.82 C-7.68 15.1, 2.1 6.37, 7.44 -2.49 M-15.97 27.42 C-9.27 18.49, -1.99 12.34, 8.25 -0.86 M-16.13 34.23 C-4.85 21.04, 4.77 10.26, 8.83 3.82 M-15.31 32.52 C-9.69 25.09, -1.26 17.48, 10.28 3.54 M-11.06 33.54 C-2.61 25.55, 7.31 14.46, 10.86 8.87 M-11.77 33.88 C-6.17 28.87, -2.21 23.65, 11.32 8.23 M-7.86 36.37 C-2.25 28.59, 6.86 22.17, 13.77 13.46 M-7.18 37.08 C-1.02 28.7, 5.87 19.88, 12.75 11.56 M-3.64 37.7 C0.02 33.16, 6.55 26.4, 14.33 15.88 M-3.99 37.63 C0.76 32.03, 6 27.15, 14.02 16 M1.01 38.26 C6.18 31.75, 9.54 27.82, 17.23 20.08 M2.43 36.42 C6.85 29.83, 12.92 24.27, 16.89 21.46 M8.11 37.26 C11.38 32.16, 14.87 28.21, 18.63 24.67 M8.52 36.08 C10.67 33.4, 12.43 31.54, 16.73 25.17" stroke="#12b886" stroke-width="0.5" fill="none"></path><path d="M0.2 0.55 C1.39 0.55, 4.28 -5.57, 7.1 -0.35 C9.92 4.87, 20.81 26.38, 17.13 31.87 C13.44 37.37, -10.71 38.06, -15.01 32.64 C-19.32 27.23, -11.36 4.81, -8.71 -0.62 C-6.06 -6.05, -0.45 -0.04, 0.89 0.07 M-1.16 -0.21 C0.41 0, 6.32 -4.55, 9.34 1 C12.35 6.55, 20.87 28.21, 16.94 33.11 C13.01 38.01, -10.27 36.01, -14.24 30.4 C-18.21 24.79, -9.12 4.67, -6.89 -0.56 C-4.67 -5.78, -1.98 -0.81, -0.9 -0.93" stroke="#495057" stroke-width="1" fill="none"></path></g></g><mask></mask><g stroke-linecap="round" transform="translate(1007.6177214938705 237.97058492971587) rotate(0 12.071116973872904 12.014314754698233)"><path d="M3.29 5.51 C3.29 5.51, 3.29 5.51, 3.29 5.51 M3.29 5.51 C3.29 5.51, 3.29 5.51, 3.29 5.51 M1.76 12.87 C3.85 8.94, 8.28 5.73, 10.15 1.45 M0.47 14.82 C3.33 10.66, 6.6 8.55, 10.76 2.67 M2.74 18.83 C9.79 10.5, 15.21 4.57, 16.55 1.26 M3.56 17.12 C6.26 13.17, 11.66 9.05, 17.99 0.98 M5.84 20.41 C10.9 16.3, 17.47 9.06, 19.23 5.54 M5.13 20.74 C8.89 17.86, 11.05 14.71, 19.69 4.91 M9.7 22.48 C12.59 17.79, 18.97 14.52, 22.8 9.38 M10.38 23.19 C13.62 18.13, 17.64 12.6, 21.78 7.49 M12.63 25.29 C14.99 22.33, 20.04 17.25, 25.34 9.58 M12.3 25.23 C15.72 21.18, 19.58 17.83, 25.05 9.69" stroke="#12b886" stroke-width="0.5" fill="none"></path><path d="M17.94 0.67 C20.15 1.6, 21.65 5.58, 22.62 7.94 C23.58 10.3, 24.35 12.57, 23.71 14.84 C23.07 17.1, 20.8 20.13, 18.76 21.54 C16.73 22.95, 13.98 23.43, 11.51 23.27 C9.03 23.12, 5.91 22.36, 3.92 20.61 C1.92 18.85, -0.31 15.25, -0.44 12.76 C-0.57 10.28, 1.59 7.6, 3.13 5.68 C4.68 3.77, 6.21 2.05, 8.84 1.27 C11.46 0.48, 17.08 0.75, 18.89 0.98 C20.7 1.2, 19.81 2.24, 19.69 2.62 M6.3 0.12 C8.46 -0.87, 13.02 0.14, 15.43 0.93 C17.83 1.73, 19.14 3.07, 20.72 4.9 C22.3 6.72, 24.97 9.49, 24.89 11.89 C24.82 14.29, 21.98 17.04, 20.25 19.29 C18.53 21.54, 17.16 25.15, 14.54 25.38 C11.93 25.61, 7.01 22.49, 4.57 20.67 C2.14 18.86, 0.44 16.9, -0.06 14.48 C-0.57 12.06, 0.22 8.51, 1.54 6.18 C2.86 3.84, 7.25 1.06, 7.85 0.47 C8.45 -0.12, 5.15 2.53, 5.15 2.62" stroke="#495057" stroke-width="1" fill="none"></path></g><g stroke-linecap="round"><g transform="translate(1019.6320362485692 261.9992144391124) rotate(0 1.2307652875939539 16.617107838670734)" fill-rule="evenodd"><path d="M-7.84 -0.19 C-7.84 -0.19, -7.84 -0.19, -7.84 -0.19 M-7.84 -0.19 C-7.84 -0.19, -7.84 -0.19, -7.84 -0.19 M-13.51 12.36 C-7.74 6.53, -7.24 2.96, -4.03 0.8 M-13.41 12 C-10.25 8.38, -8.61 7.3, -3.54 0.2 M-11.27 18.59 C-7.78 11.58, -2.52 7.03, 1.06 0.44 M-12.81 18.16 C-9.31 14.21, -5.27 10.5, 1.59 1.75 M-15.13 26.45 C-11 19.04, -5.42 15.46, 8.87 -2.19 M-15.05 27.46 C-6.07 15.91, 4.02 5.59, 8.56 -0.96 M-14.58 32.53 C-7.58 22.64, 2.47 13.36, 10.08 3.79 M-14.9 33.46 C-8.45 25.37, -1.09 17.26, 10.54 3.87 M-11.37 35.88 C-7.14 29.43, -2.35 21.1, 13.1 7.65 M-12.29 35.28 C-7.57 29.81, -1.98 23.8, 11.28 7.77 M-6.97 38 C-1.6 31.31, 5.06 21.51, 14.01 13.62 M-8.81 36.67 C-1.47 27.92, 6.33 20.58, 14.11 11.52 M-2.69 37.33 C2.66 29.33, 7.95 24.38, 13.9 14.91 M-2.99 37.55 C2.78 29.04, 9.65 23.37, 14.18 16.24 M1.24 37.5 C7.72 31.06, 13.61 25.71, 18.27 21.91 M1.54 37.47 C5.48 34.85, 8.7 31.5, 16.72 20.76 M7.78 36.48 C12.88 31.31, 13.78 29.58, 17.23 26.39 M8.63 36.01 C9.97 32.93, 12.6 30.05, 17.84 25.39" stroke="#12b886" stroke-width="0.5" fill="none"></path><path d="M1.11 -0.16 C2.76 0, 6.65 -4.66, 9.01 0.6 C11.38 5.87, 19.34 26.17, 15.32 31.42 C11.29 36.67, -11.13 37.34, -15.13 32.11 C-19.13 26.87, -11.12 5.21, -8.69 0.02 C-6.27 -5.18, -1.89 0.83, -0.58 0.94 M0.23 -1.3 C1.89 -1.46, 5.66 -6.82, 8.59 -1.2 C11.53 4.42, 21.68 26.67, 17.84 32.41 C14.01 38.15, -10.3 38.58, -14.42 33.25 C-18.54 27.91, -9.36 5.89, -6.86 0.41 C-4.37 -5.06, -0.51 0.51, 0.53 0.4" stroke="#495057" stroke-width="1" fill="none"></path></g></g><mask></mask><g stroke-linecap="round" transform="translate(63.61772149387048 513.9705849297158) rotate(0 12.071116973872847 12.014314754698262)"><path d="M2.99 5.25 C2.99 5.25, 2.99 5.25, 2.99 5.25 M2.99 5.25 C2.99 5.25, 2.99 5.25, 2.99 5.25 M1.46 13.08 C2.83 9.41, 5.34 8.66, 11.59 0.66 M1.52 13.84 C5.16 8.65, 9.68 4.41, 11.36 1.58 M3.34 17.64 C6.58 12.1, 12.81 7.21, 17.5 0.97 M3.02 18.56 C6.65 13.6, 11.32 8.59, 17.97 1.05 M4.59 23.25 C7.09 18.82, 10.18 12.45, 21.84 3.31 M3.66 22.65 C6.93 18.89, 11.04 14.59, 20.01 3.44 M8.98 25.37 C12.64 20.6, 17.62 12.73, 24.05 7.78 M7.14 24.03 C12.45 17.62, 18.25 12.58, 24.15 5.67 M12.61 25.45 C16.83 18.73, 21.04 15.04, 25.91 6.81 M12.31 25.67 C16.88 18.52, 22.57 14.21, 26.2 8.13" stroke="#12b886" stroke-width="0.5" fill="none"></path><path d="M8.64 -0.06 C11.04 -1.12, 14.34 -0.51, 16.84 0.49 C19.34 1.49, 22.37 3.49, 23.63 5.92 C24.89 8.35, 25.21 12.45, 24.41 15.07 C23.61 17.69, 20.88 20.01, 18.84 21.63 C16.8 23.25, 14.74 24.8, 12.17 24.81 C9.6 24.82, 5.33 23.72, 3.41 21.7 C1.5 19.68, 0.8 15.37, 0.68 12.69 C0.56 10.01, 0.78 7.64, 2.69 5.6 C4.6 3.57, 10.29 1.29, 12.13 0.5 C13.97 -0.3, 13.91 0.74, 13.73 0.84 M6.26 1.25 C8.45 -0.09, 13.66 -0.69, 16.18 -0.15 C18.69 0.39, 19.89 2.01, 21.35 4.49 C22.81 6.97, 25.27 12.29, 24.94 14.74 C24.62 17.19, 21.52 17.83, 19.41 19.18 C17.3 20.53, 14.57 22.61, 12.26 22.83 C9.96 23.04, 7.35 21.93, 5.6 20.46 C3.84 18.99, 2.7 16.12, 1.73 14 C0.77 11.89, -1.25 10.17, -0.2 7.76 C0.85 5.36, 6.81 0.45, 8.04 -0.43 C9.27 -1.3, 7.47 2.07, 7.18 2.5" stroke="#495057" stroke-width="1" fill="none"></path></g><g stroke-linecap="round"><g transform="translate(75.6320362485692 537.9992144391124) rotate(0 -0.5339330325176661 16.993872581359994)" fill-rule="evenodd"><path d="M-7.84 -0.19 C-7.84 -0.19, -7.84 -0.19, -7.84 -0.19 M-7.84 -0.19 C-7.84 -0.19, -7.84 -0.19, -7.84 -0.19 M-14.19 10.86 C-10.46 8.14, -7.03 4.83, -3.76 -1.26 M-12.74 12.11 C-9.81 7.45, -5.19 2.68, -3.19 0.8 M-12.49 18.3 C-8.54 11.53, -4.33 8.76, 0.32 1.57 M-12.27 18.65 C-8.15 12.86, -4.4 6.45, 0.78 1.31 M-15.64 26.9 C-7.65 17.19, 0.62 9.56, 7.49 -0.34 M-14.41 26.5 C-5.77 15.63, 3.99 5.8, 8.05 -0.19 M-16.02 34.69 C-8.16 24.96, -1.81 14.59, 10.39 4.61 M-14.52 32.44 C-6.09 22.95, 1.86 12.13, 10.88 3.72 M-13.55 34.12 C-2.04 25.07, 3.17 16.51, 11.73 6.62 M-11.57 34.99 C-4.02 25.39, 4.57 15.34, 11.72 8.21 M-7.38 35.64 C0.25 29.23, 8.51 17.63, 14.43 10.35 M-8.44 37.57 C-0.89 29.04, 5.34 21.19, 14.36 11.99 M-3.98 38.09 C1.78 28.96, 9.23 23.17, 14.91 16.92 M-3.18 38.03 C2.79 29.59, 9.85 23, 14.18 16.35 M3.74 37.02 C8.16 33.5, 8.63 25.88, 14.5 20.13 M2.77 38.05 C6.61 32.18, 11.33 26.92, 16.35 20.52 M6.94 37.43 C10.85 33.68, 13.53 30.91, 16.11 26.61 M7.65 35.76 C11.18 33.23, 13.38 30.47, 17.04 25.46" stroke="#12b886" stroke-width="0.5" fill="none"></path><path d="M-0.7 -0.62 C0.61 -0.71, 6.22 -5.38, 8.9 0.07 C11.57 5.51, 19.58 26.57, 15.33 32.05 C11.09 37.54, -12.57 38.2, -16.6 32.98 C-20.62 27.75, -11.66 6.29, -8.83 0.7 C-6 -4.88, -1.1 -0.59, 0.37 -0.56 M1.13 1.67 C2.28 1.74, 6.23 -3.64, 8.41 1.64 C10.59 6.93, 18.39 28.5, 14.21 33.38 C10.03 38.26, -13.11 36.24, -16.65 30.92 C-20.2 25.6, -9.56 6.32, -7.07 1.47 C-4.57 -3.39, -2.97 2, -1.69 1.77" stroke="#495057" stroke-width="1" fill="none"></path></g></g><mask></mask><g transform="translate(54 587.5) rotate(0 17.578125 12)"><text x="0" y="0" font-family="Cascadia, Segoe UI Emoji" font-size="20px" fill="#1e1e1e" text-anchor="start" style="white-space: pre;" direction="ltr" dominant-baseline="text-before-edge">Dev</text></g><g stroke-linecap="round" transform="translate(1011.6177214938705 492.97058492971576) rotate(0 12.071116973872904 12.014314754698262)"><path d="M1.35 5.15 C1.35 5.15, 1.35 5.15, 1.35 5.15 M1.35 5.15 C1.35 5.15, 1.35 5.15, 1.35 5.15 M-0.51 12.48 C2.93 10.14, 2.96 8.73, 11.83 0.67 M-0.77 13.52 C2.64 10.67, 4.85 7.11, 10.1 0.43 M1.43 17.47 C5.02 10.2, 10.47 8.17, 16.29 1.62 M1.89 17.55 C4.88 12.34, 10.44 7.86, 15.79 0.85 M5.11 20.57 C7.57 15.39, 14.78 7.06, 19.86 2.16 M3.28 20.69 C9.06 13.8, 14.51 8.67, 19.6 3.32 M7.32 25.04 C13.38 15.96, 19.27 8.51, 21.92 4.24 M7.42 22.93 C11.45 17.53, 16.14 13.61, 22.1 5.7 M9.83 23.31 C15.55 19.53, 18.44 16.59, 25.98 7.3 M10.12 24.63 C14.35 21.17, 16.86 16.86, 25.02 8.92 M15.59 27.71 C15.16 23.15, 17.7 20.91, 23.49 17.18 M14.51 26.9 C17.98 22.86, 20.87 18.95, 23.52 17" stroke="#12b886" stroke-width="0.5" fill="none"></path><path d="M9.78 0.65 C11.92 0.03, 14.58 0.01, 16.93 1.23 C19.29 2.44, 22.84 5.45, 23.89 7.96 C24.95 10.47, 24.02 14.08, 23.27 16.29 C22.52 18.51, 21.35 19.95, 19.38 21.25 C17.42 22.56, 14.08 24.2, 11.49 24.13 C8.9 24.06, 5.91 22.66, 3.84 20.82 C1.77 18.99, -0.57 15.79, -0.94 13.12 C-1.3 10.46, -0.12 6.89, 1.65 4.81 C3.41 2.72, 7.89 1.48, 9.67 0.62 C11.44 -0.25, 12.08 -0.56, 12.27 -0.37 M10.46 1.71 C12.79 0.95, 14.7 -0.84, 16.73 -0.07 C18.76 0.71, 21.4 3.94, 22.64 6.37 C23.88 8.8, 24.65 12, 24.18 14.49 C23.71 16.98, 22.36 19.58, 19.82 21.32 C17.28 23.06, 11.57 25.4, 8.93 24.94 C6.28 24.48, 5.45 20.45, 3.94 18.57 C2.44 16.69, 0.37 15.97, -0.09 13.65 C-0.54 11.33, -0.5 7.08, 1.22 4.66 C2.93 2.24, 8.92 -0.37, 10.21 -0.85 C11.51 -1.34, 8.96 1.36, 8.98 1.75" stroke="#495057" stroke-width="1" fill="none"></path></g><g stroke-linecap="round"><g transform="translate(1023.6320362485692 516.9992144391124) rotate(0 0.16643299877864592 16.585126279619715)" fill-rule="evenodd"><path d="M-7.84 -0.19 C-7.84 -0.19, -7.84 -0.19, -7.84 -0.19 M-7.84 -0.19 C-7.84 -0.19, -7.84 -0.19, -7.84 -0.19 M-13.6 10.06 C-8.2 8.39, -7.32 3.55, -1.6 -1.2 M-13.03 12.12 C-9.48 8.16, -7.01 4.84, -2.7 0.01 M-14.12 18.17 C-8.6 13.93, -4.71 10.56, 2.99 1.51 M-13.65 17.91 C-7.86 11.71, -3.74 6.22, 1.65 1.5 M-16.13 26.83 C-8.36 20.3, -5.44 16.2, 8.33 -0.37 M-15.56 26.98 C-9.28 18.56, -2.64 11.7, 9.3 -0.65 M-15.2 34.05 C-6.26 24.22, 0.81 16.55, 9.12 4.32 M-14.7 33.15 C-6.14 22.6, 2.53 12.33, 9.79 4.14 M-11.89 33.79 C-3.51 25.49, 3.82 18.8, 12.19 6.52 M-11.9 35.38 C-3.7 26.57, 3.85 18.34, 11.32 7.87 M-7.22 35.26 C0.25 25.39, 8.35 16.54, 15.32 12.89 M-7.29 36.9 C-2.11 29.89, 3.27 22.78, 14.07 11.43 M-2.8 37.3 C1.54 31.66, 2.96 28.36, 16.56 15.83 M-3.53 36.73 C1.4 32.25, 5.54 27.49, 14.41 17.65 M0.06 36.74 C7.29 32.77, 13.6 27.51, 17.6 21.63 M1.91 37.13 C6.19 33.43, 9.56 26.74, 17.15 20.71 M6.92 37.18 C10.91 31.21, 13.6 27.74, 16.37 26.66 M7.85 36.02 C10.93 33.53, 12.9 30.59, 16.81 25.75" stroke="#12b886" stroke-width="0.5" fill="none"></path><path d="M-0.58 0.94 C0.73 1.06, 4.36 -4.39, 7.19 0.7 C10.02 5.79, 20.26 26.1, 16.39 31.48 C12.52 36.86, -12.12 38.3, -16.03 32.97 C-19.93 27.65, -9.91 4.9, -7.05 -0.47 C-4.19 -5.85, 0.09 0.49, 1.12 0.71 M1.32 0.39 C3.07 0.16, 7.06 -6.4, 9.47 -1.05 C11.89 4.3, 20.02 27.18, 15.82 32.51 C11.61 37.83, -11.81 36.38, -15.78 30.9 C-19.75 25.43, -10.56 4.81, -8.02 -0.33 C-5.48 -5.48, -1.76 -0.01, -0.54 0.04" stroke="#495057" stroke-width="1" fill="none"></path></g></g><mask></mask><g transform="translate(1012.0000000000005 575.5) rotate(0 17.578125 12)"><text x="0" y="0" font-family="Cascadia, Segoe UI Emoji" font-size="20px" fill="#1e1e1e" text-anchor="start" style="white-space: pre;" direction="ltr" dominant-baseline="text-before-edge">Dev</text></g><g stroke-linecap="round"><g transform="translate(423 334.93928290599956) rotate(0 37.26584304951149 -0.43141850732263265)"><path d="M-0.24 -2.77 C12.48 -2.54, 65.26 1.09, 78.35 1.62 M-3.82 1.9 C8.46 1.39, 63.34 -0.93, 76.84 -1.98" stroke="#2f9e44" stroke-width="1" fill="none"></path></g><g transform="translate(423 334.93928290599956) rotate(0 37.26584304951149 -0.43141850732263265)"><path d="M45.33 11.8 C63.25 7.35, 71.8 0.21, 78.48 -4.38 M47.76 10.13 C59.48 5.76, 69.1 3.09, 74.98 -3.48" stroke="#2f9e44" stroke-width="1" fill="none"></path></g><g transform="translate(423 334.93928290599956) rotate(0 37.26584304951149 -0.43141850732263265)"><path d="M44.16 -8.69 C62.55 -5.49, 71.53 -4.99, 78.48 -4.38 M46.59 -10.36 C58.87 -8, 68.87 -3.94, 74.98 -3.48" stroke="#2f9e44" stroke-width="1" fill="none"></path></g></g><mask></mask><g stroke-linecap="round"><g transform="translate(1005.6636043044095 251.68678255494615) rotate(0 -169.39842029738736 -5.874325592947486)"><path d="M0.98 0.99 C-55.52 -0.33, -281.15 -6.5, -337.58 -8.79 M-1.93 -0.95 C-58.92 -2.97, -283.53 -11.1, -339.78 -12.74" stroke="#2f9e44" stroke-width="1" fill="none"></path></g><g transform="translate(1005.6636043044095 251.68678255494615) rotate(0 -169.39842029738736 -5.874325592947486)"><path d="M-309.85 -21.94 C-318.52 -18.56, -334.17 -11.65, -341.52 -11.02 M-310.57 -21.32 C-318.77 -21.03, -324.76 -17.11, -339.7 -12.93" stroke="#2f9e44" stroke-width="1" fill="none"></path></g><g transform="translate(1005.6636043044095 251.68678255494615) rotate(0 -169.39842029738736 -5.874325592947486)"><path d="M-310.53 -1.43 C-318.83 -5.24, -334.25 -5.52, -341.52 -11.02 M-311.25 -0.81 C-319.36 -4.7, -325.21 -4.95, -339.7 -12.93" stroke="#2f9e44" stroke-width="1" fill="none"></path></g></g><mask></mask><g stroke-linecap="round"><g transform="translate(1008.6874823695407 150.80595968401917) rotate(0 -169.73658317819172 45.2197072292019)"><path d="M-2.7 0.33 C-58.96 15.53, -282.77 77.62, -338.76 92.4 M1.03 -1.96 C-55.41 12.26, -283.68 72.45, -340.5 87.91" stroke="#2f9e44" stroke-width="1" fill="none"></path></g><g transform="translate(1008.6874823695407 150.80595968401917) rotate(0 -169.73658317819172 45.2197072292019)"><path d="M-315.44 72.05 C-320.69 76.13, -331.84 76.95, -344.33 89.84 M-317.9 69.64 C-321.47 77.62, -330.86 82.53, -339.54 86.19" stroke="#2f9e44" stroke-width="1" fill="none"></path></g><g transform="translate(1008.6874823695407 150.80595968401917) rotate(0 -169.73658317819172 45.2197072292019)"><path d="M-310.14 91.87 C-316.92 90.77, -329.43 86.5, -344.33 89.84 M-312.61 89.47 C-317.74 91.46, -328.74 90.35, -339.54 86.19" stroke="#2f9e44" stroke-width="1" fill="none"></path></g></g><mask></mask><g stroke-linecap="round"><g transform="translate(1008.2319211337187 350.5361617931119) rotate(0 -169.47189725251076 -51.77381837229029)"><path d="M-2.05 -2.1 C-58.29 -20.12, -283.15 -88.78, -338.91 -106.48 M2.03 2.94 C-54.42 -14.76, -284.47 -84.71, -340.98 -102.91" stroke="#2f9e44" stroke-width="1" fill="none"></path></g><g transform="translate(1008.2319211337187 350.5361617931119) rotate(0 -169.47189725251076 -51.77381837229029)"><path d="M-314.01 -103.86 C-318.56 -100.67, -328.63 -104.36, -338.96 -104.16 M-309.61 -104.3 C-322.48 -101.99, -331.95 -102.5, -342.91 -102.67" stroke="#2f9e44" stroke-width="1" fill="none"></path></g><g transform="translate(1008.2319211337187 350.5361617931119) rotate(0 -169.47189725251076 -51.77381837229029)"><path d="M-320.12 -84.27 C-323.39 -85.84, -331.95 -94.38, -338.96 -104.16 M-315.72 -84.71 C-326.68 -88.97, -334.11 -96.04, -342.91 -102.67" stroke="#2f9e44" stroke-width="1" fill="none"></path></g></g><mask></mask><g transform="translate(969.0515463917525 92.46907216494844) rotate(0 82.03125 12)"><text x="0" y="0" font-family="Cascadia, Segoe UI Emoji" font-size="20px" fill="#1e1e1e" text-anchor="start" style="white-space: pre;" direction="ltr" dominant-baseline="text-before-edge">100% End Users</text></g><g stroke-linecap="round"><g transform="translate(1006.0434000631863 497.18528635534824) rotate(0 -166.46960533587605 -126.63785950953249)"><path d="M-1.96 -0.21 C-57.55 -42.82, -278.28 -211.23, -333.63 -253.06 M2.17 -2.8 C-53.66 -43.8, -278.86 -207.67, -335.11 -249.91" stroke="#e03131" stroke-width="1" fill="none"></path></g><g transform="translate(1006.0434000631863 497.18528635534824) rotate(0 -166.46960533587605 -126.63785950953249)"><path d="M-306.63 -239.42 C-316.26 -242.94, -322.13 -246.74, -332.32 -249.88 M-305.47 -243.36 C-312.82 -242.96, -318.93 -244.81, -336.84 -250.97" stroke="#e03131" stroke-width="1" fill="none"></path></g><g transform="translate(1006.0434000631863 497.18528635534824) rotate(0 -166.46960533587605 -126.63785950953249)"><path d="M-318.81 -222.9 C-325.14 -231.15, -327.4 -239.84, -332.32 -249.88 M-317.65 -226.85 C-322.52 -230.1, -325.85 -235.73, -336.84 -250.97" stroke="#e03131" stroke-width="1" fill="none"></path></g></g><mask></mask><g stroke-linecap="round"><g transform="translate(604.8127568498028 421.5) rotate(0 -3.1146323991941927 -58.78200026325885)"><path d="M-2.29 -0.71 C-3.94 -19.68, -7.11 -94.2, -7.89 -112.96 M1.66 -3.56 C0.77 -23.39, -0.5 -97.82, -2.29 -116.86" stroke="#1971c2" stroke-width="1" fill="none"></path></g><g transform="translate(604.8127568498028 421.5) rotate(0 -3.1146323991941927 -58.78200026325885)"><path d="M8.37 -91.34 C7.8 -100.45, 3.08 -108.18, -2.9 -114.74 M8.64 -88.51 C4.1 -98.77, 0.56 -112.82, -2.23 -117.38" stroke="#1971c2" stroke-width="1" fill="none"></path></g><g transform="translate(604.8127568498028 421.5) rotate(0 -3.1146323991941927 -58.78200026325885)"><path d="M-12.12 -90.3 C-5.11 -99.46, -2.23 -107.57, -2.9 -114.74 M-11.86 -87.48 C-8.33 -98.01, -3.83 -112.46, -2.23 -117.38" stroke="#1971c2" stroke-width="1" fill="none"></path></g></g><mask></mask><g stroke-linecap="round"><g transform="translate(147 329.4071125818864) rotate(0 36.987317708381454 0.5034776349614845)"><path d="M0.37 -0.82 C12.75 -0.51, 62.32 0.18, 74.87 0.69 M-0.89 1.37 C11.27 1.89, 61.17 1.91, 73.85 1.7" stroke="#2f9e44" stroke-width="1" fill="none"></path></g><g transform="translate(147 329.4071125818864) rotate(0 36.987317708381454 0.5034776349614845)"><path d="M44.36 11.91 C53.97 9.43, 66.33 3.55, 74.14 2.72 M46.3 13.1 C52.36 8.59, 59.9 6.11, 74.27 0.86" stroke="#2f9e44" stroke-width="1" fill="none"></path></g><g transform="translate(147 329.4071125818864) rotate(0 36.987317708381454 0.5034776349614845)"><path d="M44.23 -8.61 C53.69 -3.93, 66.09 -2.65, 74.14 2.72 M46.17 -7.42 C52.16 -6.62, 59.74 -3.8, 74.27 0.86" stroke="#2f9e44" stroke-width="1" fill="none"></path></g></g><mask></mask><g transform="translate(547 152.5) rotate(0 64.453125 24)"><text x="64.453125" y="0" font-family="Cascadia, Segoe UI Emoji" font-size="20px" fill="#1e1e1e" text-anchor="middle" style="white-space: pre;" direction="ltr" dominant-baseline="text-before-edge">Production </text><text x="64.453125" y="24" font-family="Cascadia, Segoe UI Emoji" font-size="20px" fill="#1e1e1e" text-anchor="middle" style="white-space: pre;" direction="ltr" dominant-baseline="text-before-edge">Env</text></g><g transform="translate(274.578125 210.5) rotate(0 46.875 24)"><text x="46.875" y="0" font-family="Cascadia, Segoe UI Emoji" font-size="20px" fill="#1e1e1e" text-anchor="middle" style="white-space: pre;" direction="ltr" dominant-baseline="text-before-edge">Staging </text><text x="46.875" y="24" font-family="Cascadia, Segoe UI Emoji" font-size="20px" fill="#1e1e1e" text-anchor="middle" style="white-space: pre;" direction="ltr" dominant-baseline="text-before-edge">Env</text></g><g mask="url(#mask-MmdiFRywAPzCkB7rkN4af)" stroke-linecap="round"><g transform="translate(75.67163392377205 512.4966951621287) rotate(0 -1.033959123084827 -66.14964256796799)"><path d="M0.62 0.52 C0.19 -21.45, -2.36 -110.49, -2.69 -132.82 M-0.52 -0.25 C-0.54 -21.91, -0.14 -109.16, -0.36 -131.19" stroke="#2f9e44" stroke-width="1" fill="none"></path></g><g transform="translate(75.67163392377205 512.4966951621287) rotate(0 -1.033959123084827 -66.14964256796799)"><path d="M10.82 -104.23 C7.5 -110.09, 3.41 -120.22, -1.45 -130.04 M9.53 -103.8 C6.48 -115.15, 2.88 -126.09, -1.31 -130.5" stroke="#2f9e44" stroke-width="1" fill="none"></path></g><g transform="translate(75.67163392377205 512.4966951621287) rotate(0 -1.033959123084827 -66.14964256796799)"><path d="M-9.7 -104.2 C-7.1 -110.17, -5.26 -120.31, -1.45 -130.04 M-10.99 -103.77 C-5.9 -114.93, -1.35 -125.88, -1.31 -130.5" stroke="#2f9e44" stroke-width="1" fill="none"></path></g></g><mask id="mask-MmdiFRywAPzCkB7rkN4af"><rect x="0" y="0" fill="#fff" width="177.62685298015958" height="745.4933903242575"></rect><rect x="21.959649395578253" y="433.9983475810644" fill="#000" width="105.46875" height="24" opacity="1"></rect></mask><g transform="translate(21.959649395578253 433.9983475810643) rotate(0 52.67802540510897 12.348705013096435)"><text x="52.734375" y="0" font-family="Cascadia, Segoe UI Emoji" font-size="20px" fill="#1e1e1e" text-anchor="middle" style="white-space: pre;" direction="ltr" dominant-baseline="text-before-edge">Push Code</text></g><g stroke-linecap="round"><g transform="translate(311.2700004577637 101) rotate(0 -1.2594714481383562 44.854391112178575)"><path d="M0.72 2.68 C0.33 16.35, -3.86 71.1, -3.94 84.62 M-2.34 1.66 C-1.69 16.99, 1.07 73.95, 1.42 88.05" stroke="#e03131" stroke-width="1" fill="none"></path></g><g transform="translate(311.2700004577637 101) rotate(0 -1.2594714481383562 44.854391112178575)"><path d="M-6.09 57.5 C-7.19 70.24, -5.61 77.42, -1.97 90.26 M-11.41 61.92 C-6.46 66.53, -4.52 75.16, -0.39 86.11" stroke="#e03131" stroke-width="1" fill="none"></path></g><g transform="translate(311.2700004577637 101) rotate(0 -1.2594714481383562 44.854391112178575)"><path d="M14.42 56.72 C8.35 69.75, 4.94 77.12, -1.97 90.26 M9.09 61.14 C7.97 66.29, 3.84 75.15, -0.39 86.11" stroke="#e03131" stroke-width="1" fill="none"></path></g></g><mask></mask><g transform="translate(175.50437545776367 10) rotate(0 134.765625 36)"><text x="134.765625" y="0" font-family="Cascadia, Segoe UI Emoji" font-size="20px" fill="#1e1e1e" text-anchor="middle" style="white-space: pre;" direction="ltr" dominant-baseline="text-before-edge">Potentially</text><text x="134.765625" y="24" font-family="Cascadia, Segoe UI Emoji" font-size="20px" fill="#1e1e1e" text-anchor="middle" style="white-space: pre;" direction="ltr" dominant-baseline="text-before-edge">different configuration</text><text x="134.765625" y="48" font-family="Cascadia, Segoe UI Emoji" font-size="20px" fill="#1e1e1e" text-anchor="middle" style="white-space: pre;" direction="ltr" dominant-baseline="text-before-edge">to Prod</text></g></svg>