<svg version="1.1" xmlns="http://www.w3.org/2000/svg" viewBox="0 0 1046.783191807729 356.98701298701235" width="2093.566383615458" height="713.9740259740247">
  <!-- svg-source:excalidraw -->
  
  <defs>
    <style class="style-fonts">
      @font-face {
        font-family: "Virgil";
        src: url("https://excalidraw.com/Virgil.woff2");
      }
      @font-face {
        font-family: "Cascadia";
        src: url("https://excalidraw.com/Cascadia.woff2");
      }
    </style>
    
  </defs>
  <rect x="0" y="0" width="1046.783191807729" height="356.98701298701235" fill="#ffffff"></rect><g stroke-linecap="round" transform="translate(60.508522080292664 149.57253643858166) rotate(0 90.74176576375407 60.49451050916946)"><path d="M0 0 C0 0, 0 0, 0 0 M0 0 C0 0, 0 0, 0 0 M-1.05 6.11 C1.87 4.83, 2.17 3.04, 4.76 0.21 M-0.62 6.25 C1.23 4.6, 3.2 2.41, 5.18 0.21 M-0.79 12.89 C3.14 8.06, 9.34 3.95, 11.65 -1.26 M0.4 12.84 C3.32 6.91, 8.03 2.84, 9.88 -0.37 M-1.05 18.24 C5.19 13.49, 7.03 9.16, 14.34 -0.91 M-0.29 18.08 C3.66 14.6, 6.09 11.33, 15.48 -0.57 M-1.2 24.74 C5.66 18.12, 11 10.64, 21.43 1.85 M-0.19 24.55 C5.01 17.41, 11.96 10.37, 21.55 0.06 M-1.07 31.19 C11.61 20.12, 18.53 6.38, 24.97 -1.18 M-0.29 30.56 C5.72 23.09, 11.94 16.92, 26.99 0 M0.43 37.12 C8.04 29.81, 13.18 19.44, 32.81 -0.47 M0.3 36.06 C6.99 29.67, 12.12 21.98, 32.09 0.23 M-0.22 44.51 C10.5 33.3, 20.57 21.48, 36.34 0.23 M0.07 43.45 C12.47 28.39, 22.39 16.12, 36.75 0.62 M-0.29 47.3 C14.34 30.98, 27.19 15.84, 44.51 1.1 M0.76 48.25 C13.77 31.76, 30.77 14.53, 43.34 0.22 M-1.54 53.36 C18.36 35.58, 31.62 17.87, 47.34 -0.46 M-0.41 54.16 C18.97 33.56, 36.65 11.6, 47.08 -0.31 M1.37 61.75 C13.16 48.48, 23.7 31.91, 53.87 -0.66 M-0.4 61.51 C12.59 44.62, 26.17 30.07, 52.91 -0.37 M-1.85 68.74 C19.19 48.13, 33.63 25.78, 59.73 0.06 M-0.06 68.3 C19.23 45.47, 38.11 25.61, 57.86 1.02 M1.69 73.27 C18.37 51.33, 34.43 33.3, 65.09 -1.87 M-0.56 72.91 C23.38 45.08, 47.56 16.25, 63.95 -0.49 M-1.14 78.52 C22.43 53.24, 44.41 26.75, 70.18 0.24 M0.35 78.66 C19.62 57.37, 39.2 33.63, 68.53 -0.12 M-0.18 85.82 C28.27 53.38, 58.35 18.33, 73.26 0.47 M0.49 84.97 C27.08 54.17, 53.68 22.98, 75.19 0.33 M1.53 91.98 C31.52 56.4, 61.59 21.27, 78.19 1.65 M-0.35 91.72 C19.33 68.86, 37.95 46.35, 80.1 0.96 M1.12 99.23 C23.89 73.69, 45.64 45.51, 84.34 0.5 M-0.18 98.38 C29.68 65.08, 58.61 31.48, 84.91 0.02 M-1.38 104.75 C33.2 64.14, 64.12 29.71, 90.16 0.99 M0.86 102.64 C25.15 76.02, 48.22 47.18, 89.12 0.4 M-0.21 110.18 C33.71 71.84, 64.19 34.9, 95.15 -0.52 M0.09 109.04 C23.7 84.15, 46.68 57.1, 94.96 -0.08 M1.45 115.58 C36.78 76.33, 73.54 35.97, 99.37 -1.92 M0.59 116.04 C40.66 71.47, 78.61 26.48, 99.74 -0.23 M-0.39 119.99 C25.01 95.78, 46.25 67.95, 105.42 -2.2 M0.16 121.74 C34.23 83.52, 67.98 44.9, 106.76 -1.17 M5.49 120.33 C44.25 75.44, 84.21 31.01, 109.96 -0.13 M6.24 121.91 C47.76 75.27, 88.8 27.63, 111.65 0.09 M12.42 122.55 C36.48 93.33, 64.32 62.77, 117.06 -0.28 M11.67 120.2 C48.59 78.32, 84.45 36.17, 116.61 -0.26 M15.82 120.01 C38.79 98.75, 59.71 72.13, 120.96 0.44 M15.54 121.73 C57.65 75.63, 96.18 28.58, 122.09 -0.2 M21.89 120.75 C55.59 79.97, 93.26 41.35, 128.85 -1.64 M22.78 121.43 C52.17 84.51, 80.8 49.63, 126.38 0.79 M27.14 120.78 C66.72 75.38, 108.38 26.63, 134.25 0.97 M26.53 120.47 C50.77 95.71, 72.37 70.73, 131.89 0.79 M32.41 121.28 C69.99 78.85, 103.83 38.85, 136.47 0.24 M33.05 120.57 C54.37 96.66, 75.68 70.82, 137.5 -0.14 M38.31 121.9 C59.53 97.44, 82.44 70.06, 142.62 1.79 M38.05 120.47 C70.72 84.42, 101.5 47.55, 143.43 0.38 M43.26 121.97 C77.85 81.66, 109.87 43.94, 147.13 2.24 M43.61 120.19 C79.54 79.71, 114.03 38.01, 147.63 -0.52 M47.01 121.77 C85.9 83.34, 118.62 39.51, 153.71 -1.64 M48.52 121.52 C89.45 72.95, 132.73 24.49, 154.64 -0.67 M51.94 120.52 C77.35 95.85, 96.77 70.19, 158.9 0.38 M52.51 121.06 C80.34 90.51, 106.35 60.48, 157.99 -0.37 M57.85 121.89 C97.42 80.3, 134.27 35.63, 166.03 1.23 M57.91 120.86 C100.59 74.54, 142.11 25.64, 165.04 -0.15 M64.77 123.5 C105.3 74.91, 141.62 30.55, 168.75 1.79 M63.31 121.1 C91.9 90.42, 119.22 60.76, 169.38 -0.28 M70.27 122.9 C94.87 91.57, 121.58 59.88, 177 0.11 M69.76 121.15 C99.8 83.38, 132.87 46.51, 175.69 -0.44 M72.99 122.85 C105.13 84.45, 135.63 51.9, 180.52 0.72 M75.17 121.98 C96.78 95.48, 119.17 70.61, 180.14 0.63 M78.61 120.55 C114.03 81.66, 144.73 44.38, 184.9 2.08 M79.16 120.5 C115.04 80.74, 149.1 41.02, 183.26 1.8 M83.37 120.9 C105.19 98.91, 125.1 76.01, 181.69 6.87 M85.46 122 C117.26 86.34, 148.27 49.6, 182.97 8.92 M92.08 121.73 C112.63 97.22, 137.28 70.29, 182.33 14.65 M90.78 120.45 C127.04 79.56, 162.33 38.46, 183.37 14.63 M97.57 123.09 C124.45 89.35, 154.47 54.46, 181.78 20.22 M95.14 120.93 C123.68 88.88, 151.88 55.91, 183.27 19.82 M102.76 120.45 C123.1 96.22, 144.63 71.75, 183.83 27.06 M100.83 121.98 C129.65 88.93, 158.84 56.41, 184.31 26.19 M108.11 122 C123.2 104.69, 141.72 85.41, 184.54 32.62 M106.71 121.97 C131.85 93.12, 155.49 65.81, 183.36 32.71 M113.62 121.84 C140.1 92.6, 164.78 60.97, 181.65 38.28 M111.11 121.5 C127.24 103.19, 142.64 86.48, 182.74 38.62 M118.37 121.32 C143.37 93.12, 168.02 60.53, 185.3 42.84 M116.23 121.75 C139.09 96.55, 159.85 70.44, 183.84 44.19 M122.48 122.17 C139.97 99.41, 159.63 81.07, 184.87 52.11 M122.97 120.87 C144.88 95.77, 165.58 73.1, 182.85 51.24 M126.63 119.88 C145.12 103.06, 164.19 80.37, 182.27 56.77 M127.34 122.35 C147.46 100.76, 165.96 78.23, 184.88 56.31 M134.06 120.82 C150.28 100.67, 168.66 82.1, 183.48 61.75 M133.31 121.38 C144.81 108.64, 155.88 94.85, 184.43 63.05 M138.04 119.62 C149.67 108.34, 158.87 97.64, 183.87 68.16 M137.22 121.27 C149.31 108.26, 161.36 94.57, 183.53 69.3 M143.94 120.3 C158.02 104.35, 172.52 84.82, 183 74.79 M144.61 121.77 C157.21 107.31, 168.73 91.92, 183.48 75.76 M148.63 121.62 C157.11 110.95, 168.8 97.58, 183.37 79.64 M148.63 121.47 C161.24 108.41, 171.8 93.29, 184.41 80.57 M154.57 122.24 C167.23 108.25, 179.57 95.56, 183.82 85.91 M154.91 120.19 C160.78 113.19, 166.09 106.78, 183.57 86.49 M161.27 122.07 C164.52 114.39, 172.59 104.91, 182.97 95.23 M159.9 121.33 C164.85 115.07, 170.41 108.56, 183.69 93.24 M162.64 120.16 C172.15 112.12, 178.95 104.2, 184.58 101.69 M165.14 121.01 C168.32 117.08, 171.51 113, 183.18 100.59 M169.76 120.3 C173.91 115.31, 177.79 115.12, 184.35 105.31 M170.89 120.67 C173.86 116.75, 177.35 114.2, 183.79 105.08 M174.17 120.89 C176.68 118.92, 178.59 117.94, 184.33 112.99 M175.54 121.75 C178.05 118.07, 181.79 114.66, 184.06 112.33 M181.23 121.69 C181.53 120.43, 182.39 119.1, 184.04 118.02 M180.81 121.19 C181.79 120.12, 182.63 118.99, 184.18 117.5" stroke="#ced4da" stroke-width="0.5" fill="none"></path><path d="M0.5 -0.65 C59.17 1.45, 114.53 2.18, 179.8 0.27 M-0.1 -0.42 C57.75 -1.18, 113.28 -0.52, 181.99 -0.26 M179.77 -1.07 C182.77 36.03, 180.72 69.51, 182.74 119.55 M181.46 0.16 C181.73 41.8, 181.09 84.37, 182.46 120.33 M180.65 120.16 C128.25 120.37, 77.82 121.79, 1.63 120.46 M180.59 121.14 C140.98 119.57, 101.77 121.29, 0.29 120.95 M0.53 119.23 C-0.13 73.97, -2.27 26.78, -0.3 -0.83 M-0.15 120.49 C-1.6 80.26, -0.28 39.21, -0.61 -0.28" stroke="#000000" stroke-width="1" fill="none"></path></g><g stroke-linecap="round"><g transform="translate(60.72819283739918 271.3918856499836) rotate(0 90.91874241843277 34.61928737346943)" fill-rule="evenodd"><path d="M0 0 C0 0, 0 0, 0 0 M0 0 C0 0, 0 0, 0 0 M-48.73 62.41 C-27.25 36.71, -6.51 16.04, 4.43 1.67 M-49.62 61.99 C-35.91 47.25, -23.87 34.09, 5.78 -0.2 M-44.31 65.95 C-30.62 44.61, -13.94 25.49, 9.24 1.51 M-45.9 64.43 C-28.92 46.05, -11.62 26.3, 9.73 -0.72 M-41.48 68.13 C-26.67 46.32, -8.81 28.78, 13.7 0.79 M-42 67.6 C-30.44 52.57, -16.22 37.56, 15.14 -0.14 M-39.5 72.54 C-16.01 44.82, 4.28 18.35, 21.61 0.57 M-39.6 70.46 C-17.78 43.98, 6.55 16.55, 21.57 -0.45 M-34.63 68.9 C-16.04 47.73, 6.9 26.64, 27.34 1.65 M-35.66 70.61 C-17.6 51.85, -0.95 32.58, 26.7 0.68 M-27.81 70.71 C-10.89 49.9, 9.39 26.01, 33.81 1.72 M-29.29 71.08 C-14.8 53.6, 0.31 36.01, 31.16 0.28 M-22.81 71.35 C-12.19 53.89, 1.36 40.67, 35.99 0.7 M-25.01 69.56 C-8.61 51.75, 8.16 32.82, 36.93 0.5 M-17.35 72.43 C2.25 44.37, 27.82 18.71, 42.92 -2.05 M-19.01 69.84 C-6.57 56.67, 5.19 42.58, 42.21 -1.07 M-13.73 69.75 C8.64 43.75, 34.54 14.27, 49.18 1.52 M-14.88 70.94 C-0.01 53.45, 15.73 37.31, 47.81 1.03 M-8.09 70.79 C9.94 49.53, 30.14 28.68, 52.91 1.4 M-8.01 71.69 C10.91 48.78, 29.95 26.03, 54.01 0.44 M-3.61 72.24 C15.47 49.78, 30.35 31.48, 59.31 -1.21 M-3.9 71.42 C19.35 43.96, 43.85 17.96, 58.92 -0.59 M2.85 69.97 C18.52 50.62, 32.73 34.86, 62.61 -0.67 M2.03 71.01 C26.29 42.13, 52.21 14.87, 63.4 -0.86 M8.23 72.32 C23.05 51.13, 37.78 34.78, 69.64 -1.65 M6.85 71.35 C19.98 55.52, 34.01 39.88, 69.39 0.2 M13.26 69.31 C33.76 47.1, 56.65 21.47, 73.73 -1.87 M12.98 71.63 C36.14 42.63, 60.33 15.16, 74.81 -1.16 M17.99 69.89 C30.84 53.19, 46.98 36.55, 78.32 1.14 M18.55 71.78 C32.13 55.9, 45.47 38.91, 79.91 -0.58 M23.78 71.24 C38.23 56.05, 48.44 37.88, 86.85 -0.69 M24.29 70.8 C35.65 55.84, 47.91 40.54, 84.19 -1.24 M28.77 71.96 C46.92 48.48, 66.42 25.17, 90.37 -0.76 M27.91 71.19 C42.86 54.26, 57.82 36.9, 90.74 0.52 M33.93 69.34 C51.52 51.08, 66.27 32.28, 97.44 -0.51 M34.97 71.24 C51.2 51.43, 67.17 32.25, 95.1 -0.43 M38.51 72.65 C59.63 48.92, 77.74 25.76, 101.69 -0.17 M39.23 71.49 C61.44 45.32, 86.09 16.83, 99.69 0.38 M46.1 72.31 C63.1 50.85, 78.51 31.62, 107.81 -1.55 M45.57 71.06 C67.38 43.72, 90.16 18.7, 106.62 -0.63 M48.06 69.23 C65.08 54.48, 80.01 36.38, 111.05 1.25 M50.35 70.04 C71.76 42.57, 95.75 16.85, 112.14 -0.67 M53.57 71.97 C76.9 44.42, 101.69 20.26, 114.54 -0.18 M56.24 69.85 C68.79 56.2, 81.28 41.64, 116.77 0.47 M61.12 70.08 C72 56.48, 86.55 39.37, 120.1 0.93 M60.68 71.63 C77.32 51.06, 95.11 30.23, 121.03 -0.88 M64.49 71.26 C77.53 54.8, 90.51 43, 127.01 0.09 M66.66 70.61 C83.02 50.5, 102.14 29.76, 127.07 0.33 M72.28 70.71 C95.13 43.22, 117.99 17.15, 133.36 -0.54 M71.19 70.49 C86.97 50.48, 104.69 30.75, 132.88 -1.04 M77.87 72.27 C90.49 51.92, 106.12 35.16, 139.53 1.17 M76.09 69.8 C90.45 54.26, 104.18 38.73, 136.66 0.12 M82.99 69.76 C92.78 56.07, 106.85 42.84, 142.22 0.53 M82.43 70.29 C101.03 49.74, 118.67 27.53, 143.74 -0.52 M87.62 72.18 C102.64 52.86, 119.95 36.17, 149.93 -0.69 M87.35 71.29 C109.56 45.62, 130.52 22.3, 148.89 -0.31 M93.59 68.99 C107 50.04, 124.68 33.25, 152.96 -1.04 M92.48 70.12 C107.4 55.5, 121.35 37.47, 153.25 0.75 M98.5 71.32 C123.23 41.1, 147.57 14.85, 158.92 1.89 M96.81 70.42 C119.86 44.92, 143.26 18.43, 158.67 0.35 M103.29 69.27 C127.34 44.36, 150.49 17.2, 162.72 0.69 M103.02 70.54 C120.46 50.59, 138.68 29.24, 164.6 0.28 M109.51 69.89 C130.72 44.35, 154.9 19.12, 170.08 -0.58 M107.76 70.69 C128.87 47.09, 149.73 23.3, 168.46 0.82 M114.17 70.63 C130.26 53.04, 143.51 33.42, 175.53 -1.19 M113.26 71.53 C127.75 53.24, 143.68 35.28, 174.54 -0.97 M116.47 72.95 C132.09 55.7, 145.31 38.23, 181.88 1.55 M119.02 70.81 C132.77 54.91, 147.76 37.74, 180.32 -0.74 M123.19 72.2 C146.81 43.48, 167.43 17.25, 184.3 3.77 M124 70.49 C136.6 56.32, 149.9 40.75, 183.43 1.64 M128.13 70.96 C138.86 58.6, 152.26 44.77, 187.05 6.3 M129 71.15 C141.89 57.32, 153.92 42.8, 185.24 4.56 M134.18 72.23 C147.23 58.49, 158.26 43.8, 189.52 8.4 M135.57 70.29 C147.37 56.11, 160.42 40.31, 189.82 7.45 M140.77 72.74 C152.11 55.69, 164.73 38.71, 189.74 13.05 M140.33 70.79 C157.83 52.09, 173.11 31.83, 192.32 11.24 M145.86 72.11 C161.17 49.87, 179.85 30.42, 194.43 16.14 M145.9 71.21 C160.9 52.08, 177.46 33.6, 193.8 14.69 M149.52 70.23 C166.46 54.8, 182.19 36.69, 197.7 16.03 M151.21 70.24 C169.47 50.28, 186.56 28.57, 196.94 17.03 M155.81 72.36 C172.16 53.43, 183.28 37.93, 199.88 19.04 M156.44 70.99 C165.54 59.06, 175.44 48.65, 199.67 20.56 M160.4 70.5 C173.04 58.38, 184.19 42.47, 200.87 25.4 M161.38 71.45 C168.99 61.47, 178.12 51.85, 201.39 23.83 M168.49 68.59 C179.09 56.68, 189.15 44.18, 203.61 26.56 M166.25 70.8 C182.13 53.28, 196.47 36.7, 205.34 25.95 M170.32 71.77 C183.34 54.07, 197.64 39.76, 207.44 31.16 M172.16 71.81 C178.72 61.52, 187.43 52.32, 206.85 29.76 M175.22 71.59 C186.38 58.85, 195.94 46.91, 210.88 34.52 M177.92 71.22 C185.61 59.5, 196.12 48.88, 210.96 32.43 M183.05 71.34 C189.91 64.75, 194.49 55.14, 210.42 36.18 M182.45 70.13 C192.21 58.67, 202.84 46.12, 212.07 36.1 M186.23 71.22 C196.87 58.37, 205.66 50.43, 213.19 38.62 M187.61 70.32 C194.4 62.28, 201.22 54.64, 215.54 39.76 M193.23 69.66 C200.99 61.14, 210.11 54.52, 215.76 40.74 M192.66 70.69 C200.54 61.19, 209.71 51.74, 217.34 41.83 M198.59 68.5 C204.56 66.07, 210.24 57.41, 218.88 47.42 M199.05 69.57 C204.14 65.1, 208.36 58.45, 219.66 44.88 M202.39 70.31 C206.46 67.8, 213.38 62.6, 224.24 48.22 M202.82 71.17 C210.23 63.83, 217.81 55.53, 222.55 49.39 M208.27 71.57 C213.28 64.13, 220.6 58.79, 225.18 50.88 M209.51 69.88 C213.74 64.4, 219.01 59.58, 225.49 52.44 M214.91 71.98 C220.46 65.79, 225.89 56.48, 229.52 54.87 M214.49 70.72 C217.42 67.37, 222.66 62.59, 227.11 54.35 M217.67 72.24 C221.4 68.01, 227.64 63.11, 228.5 58.11 M219.18 70.49 C220.83 67.8, 223.37 65.05, 230.66 58.48" stroke="#ced4da" stroke-width="0.5" fill="none"></path><path d="M1.99 1.04 C-13.66 18.39, -29.51 33.68, -50.15 59.07 M0.95 -0.6 C-17.12 19.93, -33.03 39.7, -50.54 60.14 M-49.24 61.36 C-48.68 62.64, -45.55 63.78, -40.25 69.69 M-49.87 60.38 C-47.12 64.07, -43.37 66.6, -41 69.83 M-42.26 70.02 C33.88 72.02, 110.99 70.76, 220.75 70.89 M-41.41 69.74 C27.92 70.78, 97.01 69.96, 222.76 70.8 M222.45 70.58 C224.48 67.28, 228.89 62.76, 232.37 61.52 M221.54 70.11 C224.88 67.33, 226.42 65.38, 231.95 60.39 M229.99 61.72 C210.16 37.3, 191.84 10.63, 180.54 -1.93 M232.38 60.52 C216.7 43.6, 202.95 26.39, 181.51 -0.36 M182.77 0.57 C138.66 0, 99.11 -1.02, 0.68 1.16 M180.91 0.53 C129.53 -0.58, 78.11 -1.05, 0.8 -0.69 M0 0 C0 0, 0 0, 0 0 M0 0 C0 0, 0 0, 0 0" stroke="#000000" stroke-width="1" fill="none"></path></g></g><mask></mask><g stroke-linecap="round" transform="translate(64.83829263071894 154.12307702637872) rotate(0 85.95465554728175 55.61771829529994)"><path d="M-2 -1.91 L173.14 -1.07 L173.29 111.9 L-1.21 110.29" stroke="none" stroke-width="0" fill="#fff"></path><path d="M0.17 1.77 C44.32 -0.63, 92.26 -2.32, 172.55 -0.19 M-0.32 0.06 C44.79 0.78, 88.44 0.69, 171.06 -0.86 M171.57 -0.02 C174.12 25.97, 173.8 53.91, 172.6 111.19 M172.07 0.44 C173.77 34.48, 172.64 69.57, 171.77 110.82 M171.26 112.29 C129.12 110.38, 81.48 111.63, -0.76 109.45 M171.88 112.23 C117.98 109.96, 64.39 110.6, 0.6 111.5 M-1.53 111.83 C-0.64 86.84, 0.35 65.58, -1.13 -0.3 M0.62 110.31 C0.17 83.08, 0.86 55.34, 0.98 0.99" stroke="#000000" stroke-width="1" fill="none"></path></g><g transform="translate(109.7773231780007 173.7407953216789) rotate(0 41.015625 36)"><text x="41.015625" y="0" font-family="Cascadia, Segoe UI Emoji" font-size="20px" fill="#2f9e44" text-anchor="middle" style="white-space: pre;" direction="ltr" dominant-baseline="text-before-edge">Linux</text><text x="41.015625" y="24" font-family="Cascadia, Segoe UI Emoji" font-size="20px" fill="#2f9e44" text-anchor="middle" style="white-space: pre;" direction="ltr" dominant-baseline="text-before-edge">Gentoo</text><text x="41.015625" y="48" font-family="Cascadia, Segoe UI Emoji" font-size="20px" fill="#2f9e44" text-anchor="middle" style="white-space: pre;" direction="ltr" dominant-baseline="text-before-edge">Node 19</text></g><g stroke-linecap="round"><g transform="translate(131.08545100765718 300.8088127115052) rotate(0 20.553573017350942 10.330250425901113)" fill-rule="evenodd"><path d="M0.57 -1.92 L-9.43 19.59 L50.04 20.84 L41.49 -0.28 L-1.79 -0.73" stroke="none" stroke-width="0" fill="#fff" fill-rule="evenodd"></path><path d="M-1.68 0.27 C-3.27 5.76, -6.44 14.09, -10.93 22.06 M0.5 -0.26 C-2.61 4.49, -5.75 8.82, -10.62 21.02 M-8.83 18.73 C12.82 19.26, 34.55 20.12, 50.73 21.76 M-9.11 19.51 C6.89 19.19, 24.04 19.48, 50 19.3 M52.04 19.64 C46.03 15.27, 44.04 7.09, 40.64 -1.31 M50.71 20.13 C49.04 16.27, 46.42 11.34, 39.45 0.3 M40.03 -0.83 C28.15 1.6, 13.47 -0.18, -0.99 -1.4 M39.72 -0.28 C29.52 -0.52, 19.51 0.62, -1 -0.95 M0 0 C0 0, 0 0, 0 0 M0 0 C0 0, 0 0, 0 0" stroke="#000000" stroke-width="1" fill="none"></path></g></g><mask></mask><g stroke-linecap="round"><g transform="translate(10.096429989318324 331.0560679660898) rotate(0 141.34654464129818 -0.30958774668124533)"><path d="M0.2 -1.09 C110.18 -0.44, 218.73 1.16, 281.39 -0.49 M-0.1 -0.27 C85.7 -0.1, 172.3 1.21, 282.79 -0.13" stroke="#000000" stroke-width="1" fill="none"></path></g></g><mask></mask><g stroke-linecap="round" transform="translate(451.02800259977323 150.4816273476731) rotate(0 90.74176576375407 60.49451050916946)"><path d="M0 0 C0 0, 0 0, 0 0 M0 0 C0 0, 0 0, 0 0 M0.4 7.14 C1.74 4.58, 3.17 2.53, 4.9 1.01 M-0.06 6.08 C1.88 4.49, 3.07 1.93, 5.12 0.28 M1.5 12.81 C2.91 7.86, 6.39 6.51, 9.67 0.98 M0.5 11.88 C1.71 9.36, 4.68 6.77, 10.41 -0.59 M-1.86 19.67 C4.35 15.12, 7.29 7.55, 16.85 1.99 M-1.05 17.55 C4.86 10.84, 12.36 5.26, 14.93 1 M1.67 23.4 C6.3 18.45, 14.43 7.5, 20.7 -1.74 M-0.45 24.14 C6.2 16.92, 12.3 11.78, 21.36 -0.86 M-0.84 28.52 C8.97 20.48, 15.24 10.9, 27.2 0.01 M0.71 30.27 C9.4 19.81, 17.98 8.45, 25.39 -0.62 M0.48 36.06 C9.56 24.06, 23.25 12.23, 31.64 -0.14 M-0.18 36.18 C11.65 23.93, 23.07 10.9, 31.88 0.8 M-0.04 42.71 C11.42 28.4, 24.2 17.43, 36.39 -0.12 M-0.26 41.58 C12.06 27.42, 24.82 13.83, 35.89 -0.34 M1.65 47.83 C8.47 36.68, 18.86 26.92, 43.38 -1.7 M-0.82 49.55 C13.47 33.55, 27.76 15.45, 42.33 -1.13 M-0.82 52.99 C10.97 41.36, 23.27 27.34, 48.12 0.3 M-0.3 54.87 C11.75 40.59, 22.17 29.22, 47.07 -0.25 M1.73 60.67 C13.54 47.04, 27.99 31.82, 52.19 0.73 M0.84 61.67 C10.57 48.62, 22.64 35.9, 52.57 -0.45 M-2.09 65.78 C18.56 42.87, 41.41 19.29, 57.22 -1.13 M-0.95 67.82 C15.74 50.25, 28.99 32.87, 59.01 1.13 M1.04 74.66 C20.14 49.72, 43.3 22.93, 65.43 1.18 M0.14 72.76 C21.69 49.97, 42.22 24.93, 63.89 0.58 M-1.63 80.09 C15.94 61.62, 31.37 41.39, 69.62 0.05 M-0.36 79.44 C26.29 49.7, 51.59 20.15, 69.21 0.84 M-0.98 84.76 C16.53 66.22, 34.26 46.36, 73.63 0.54 M-0.17 84.61 C15.92 66.77, 31.65 48.48, 75.02 -0.7 M-0.1 92.06 C17.54 69.65, 33.04 52.19, 78.4 -0.84 M0.79 90.54 C27.29 59.96, 54.22 28.84, 78.62 -0.53 M1.59 97.55 C32.36 60.93, 63 28.11, 86.42 -1.42 M-0.55 97.32 C27.27 66.65, 53.52 37.25, 84.13 0.57 M1.63 103.97 C34.4 61.28, 69.98 22.92, 91.76 -1.59 M-0.08 102.76 C22.95 77.81, 44.29 52.47, 89.63 -0.82 M-0.23 108.25 C36.93 69.2, 72.41 29.39, 96.56 -2.06 M-0.04 110.29 C23.63 82.66, 47 53.95, 94.82 -1.17 M1.83 116.97 C40.47 71.61, 78.3 26.25, 101.02 -1.11 M-0.11 115.28 C34.67 75.09, 68.07 37.03, 100.07 -0.31 M2.37 120.42 C41.28 72.24, 80.49 25.82, 107.93 0.16 M0.42 121.99 C23.61 93.56, 45.44 69.01, 106.12 0.11 M7.13 121.04 C43.43 77.58, 82.44 31.67, 112.63 0.56 M6.23 120.84 C29.33 93.14, 53.22 65.41, 111.18 0.3 M10.52 121.97 C43.23 87.24, 73.63 51.27, 114.89 2.37 M10.54 121.9 C47.65 78.62, 82.81 38.68, 115.88 0.71 M18.04 123.07 C43.03 89.11, 70.82 60.81, 120.16 -1.74 M16.67 121.73 C43.85 88.32, 73.21 54.39, 121.68 -0.15 M21.47 121.56 C58.99 79.83, 92.61 37.46, 128.88 -1.65 M22.41 120.94 C54.16 84, 86.48 45.17, 127.31 0.25 M24.94 122.88 C57.37 85.37, 88.44 48.54, 132.3 1.68 M27.14 121.88 C47.94 97.41, 69.52 73.68, 131.69 0.76 M33.39 119.38 C63.48 84.1, 96.62 48.73, 138.51 -1.01 M33.44 120.26 C71.55 74.63, 111.34 29.54, 137.11 0.2 M38.6 121.1 C67.23 87.07, 96.76 53.05, 144.89 -0.58 M38.23 120.74 C66.38 87.49, 95.66 53.72, 142.8 -1.01 M43.63 122.52 C75.65 83.63, 105.18 45.14, 148.16 1.32 M42.43 120.59 C79.9 78.96, 115.51 37.78, 148.08 0.79 M48.89 121.28 C87.81 74.04, 131.95 25.9, 152.86 -1.07 M48 121.31 C84.04 79.9, 120.42 39.15, 154 0.08 M51.96 121.7 C75.49 97.19, 100.14 68.71, 157.34 1.22 M52.99 120.97 C93.13 76.84, 132.59 32.01, 158.44 -0.16 M56.84 121.79 C91.31 87.37, 119.01 51.32, 166.29 -1.45 M57.91 122.15 C100.02 74.58, 139.26 28.2, 163.75 -0.87 M63.27 120.24 C90.63 95.51, 114.64 68.37, 168.7 1.48 M64.14 121.74 C103.77 78.12, 142.48 32.63, 169.86 0.74 M70.57 119.91 C111.3 73.27, 154.87 24.3, 174.38 -0.51 M68.89 121.39 C104.46 81.15, 140.11 40.11, 175.93 0.81 M75.61 122.6 C108.76 83.39, 139.4 45.56, 179.97 -0.26 M74.35 121.07 C98.56 95.42, 121.31 67.31, 179.45 0.44 M81.35 119.79 C113.25 85.89, 145.28 44.54, 183.48 0.09 M79.28 120.73 C109.56 84.73, 140.83 49.32, 183.91 1.59 M86.79 123.38 C123.47 78.77, 158.23 37.05, 184.85 8.83 M84.19 121.93 C120.52 82.37, 153.55 44.34, 182.54 7.72 M91.55 120.44 C122.03 82.76, 156.04 46.93, 182.47 14.87 M90.89 121.43 C123.87 84.03, 155.05 45.45, 183.87 14.82 M93.77 120.02 C117.35 95.94, 136.54 75.23, 183.26 19.6 M95.68 120.85 C125.32 88.05, 153.27 55.25, 183.03 20.14 M102.69 119.78 C133.02 84.21, 164.55 50.53, 182.46 27.83 M100.95 120.29 C124.08 95.02, 148.17 66.5, 184.55 26.03 M104.61 120.86 C130.92 94.08, 155.46 68.15, 185.63 30.56 M106.27 121.94 C131.61 93.02, 155.77 64.02, 183.62 31.55 M111.41 122.56 C137.85 87.93, 168.94 57.44, 184.49 40.46 M112.11 121.7 C130.33 98.41, 149.57 76.11, 182.93 38.88 M118.52 121.11 C133.57 98.56, 155.8 80.39, 182.22 42.86 M116.84 120.85 C130.72 105.73, 146.1 88.96, 183.17 45.15 M121.45 120.43 C143.13 96.22, 163.3 73.79, 182.7 50.82 M122.48 121.61 C136.54 105.36, 152.81 87.21, 183.39 50.35 M125.8 122.86 C143.83 105.25, 158.32 87.6, 182.4 56.52 M127.72 120.81 C140.83 105.2, 156.57 88.81, 183.98 55.68 M131.72 119.92 C148.38 100.33, 167.22 80.81, 184.37 62.12 M133.61 121.51 C147.8 104.37, 161.15 87.92, 183.79 63.22 M139.93 123.06 C148.38 109.77, 162.07 95.91, 182.05 71.18 M138.66 120.61 C149.57 108.5, 161.71 94.31, 183.11 70.22 M144.21 122.42 C158.07 103.31, 175.21 82.43, 184.58 75.7 M144.47 120.47 C152.84 111.3, 160.49 100.74, 184.07 75.08 M149.45 121.55 C158.61 113.85, 164.71 104.05, 182.09 83.11 M148.86 120.58 C161.41 106.14, 175.95 89.4, 183.04 81.15 M156.07 120.2 C164.45 111.85, 172.44 100.77, 185.52 87.77 M153.48 121.13 C161.3 112.47, 168.95 104.68, 183.62 87.11 M158.08 121.04 C167.61 114.82, 174.16 104.99, 184.63 93.72 M158.96 120.66 C168.5 110.68, 179.13 99.12, 183.72 92.65 M162.89 121.16 C169.48 116.14, 173.4 111.44, 183.86 98.17 M163.85 122.43 C170.53 114.85, 177.56 108.1, 182.6 100.78 M168.63 123.1 C172.2 116.63, 178.4 115.22, 183.57 106.52 M171.04 122.3 C173.34 116.24, 178.14 112.84, 183.2 105.73 M173.98 121.79 C177.62 117.38, 182.34 113.64, 184.75 111.55 M174.49 122.3 C178.5 117.87, 181.65 115.35, 184.26 112.53 M180.31 121.05 C182.02 120.3, 182.75 119.23, 183.99 117.14 M180.7 121.14 C181.7 120.05, 183.31 118.51, 184.25 117.41" stroke="#ced4da" stroke-width="0.5" fill="none"></path><path d="M-1.4 -1.15 C42.21 -0.34, 82 -1.15, 179.86 1.95 M0.93 -0.6 C66.95 -1.34, 135.01 -0.04, 180.56 -0.59 M180.32 -1.8 C181 35.2, 181.46 70.35, 182.51 119.63 M182.2 0.25 C181.23 38.06, 180.7 78.06, 180.79 120.16 M182.05 122.87 C117.25 120.07, 49.43 123.17, -0.42 119.15 M181.62 120.65 C121.75 121.75, 61.22 121.82, -0.97 121.12 M0.93 119.89 C-0.02 90.23, -1.15 61.58, -0.85 -1.36 M0.16 120.8 C-0.64 91.33, -1.52 61.48, 0.44 -0.28" stroke="#000000" stroke-width="1" fill="none"></path></g><g stroke-linecap="round"><g transform="translate(451.2476733568798 272.300976559075) rotate(0 90.62326612792691 35.27956751569832)" fill-rule="evenodd"><path d="M0 0 C0 0, 0 0, 0 0 M0 0 C0 0, 0 0, 0 0 M-49.5 61.67 C-32.26 46.42, -21.39 28.37, 3.31 -0.43 M-48.75 62.46 C-39.24 51.01, -27.25 37.79, 4.2 0.28 M-47.75 66.2 C-29.59 44.85, -12.79 25.69, 10.35 0.93 M-46 64.98 C-31.93 47.71, -18.59 30.99, 9.71 0.34 M-43.59 66.55 C-23.93 47.39, -4.33 23.48, 15.58 1.33 M-43.47 67.8 C-31.09 54.17, -19.22 39.93, 16.52 0.36 M-40.22 71.21 C-20.52 48.26, 2.74 21.16, 20.88 0.77 M-41.35 69.89 C-27.81 54.96, -13.58 39.39, 20.66 -0.65 M-35.85 68.87 C-15.86 46, 5.72 25.97, 24.68 0.97 M-34.13 69.89 C-14.5 48.35, 2.93 26.69, 25.26 -0.32 M-31.35 69.94 C-15.47 54.37, -1.8 37.9, 31.97 -1.42 M-29.47 70.87 C-16.98 54.19, -1.37 37.97, 31.42 -0.59 M-24.42 70.76 C-2.75 48.35, 17.37 23.05, 37.78 -1.54 M-23.42 69.54 C-8.35 52.33, 7.08 34.13, 36.6 0.74 M-20.73 69.88 C3.68 45.33, 27.51 15.2, 41.21 -1.12 M-18.69 71.73 C-4.67 53.77, 9.57 38.14, 43.47 0.27 M-12.5 70.02 C10.88 44.31, 32.45 18.77, 48.89 0.86 M-14.4 71.48 C4.65 50.79, 21.38 31.04, 48.3 -0.5 M-7.83 71.6 C13.87 46.35, 33.81 21.21, 53.04 1.3 M-8.48 71.67 C11.75 47.95, 32.19 24.51, 53.84 -0.9 M-3.82 70.25 C13.25 52.89, 28.97 33.39, 58.92 -1.64 M-3.96 70.64 C9.68 55.42, 22.88 40.53, 57.67 -0.66 M2.73 70.79 C16.26 50.57, 34.69 32.51, 62.82 0.6 M1.21 71.32 C22.42 46.92, 43.1 21.83, 63.13 0.48 M6.81 72.49 C26.22 48.12, 49.56 25.94, 67.62 0.3 M6.58 71.61 C19.73 56.22, 34.07 39.13, 69.61 1.09 M13.23 70.29 C34.28 43.46, 59.74 18.92, 72.74 -1.33 M12.02 70.75 C26.76 53.7, 41.12 37.48, 73.5 0.47 M16.1 72.1 C34.01 53.47, 51.28 34.85, 77.65 -0.88 M18.14 71.7 C41.25 44.4, 63.29 16.78, 78.54 1.01 M24.82 72.03 C44.15 47.51, 63.55 24.99, 83.88 0.5 M23.13 71.48 C43.29 47, 65.32 22.13, 84.68 0.55 M27.62 71.61 C46.68 46.23, 67.33 24.85, 90.53 -1.61 M29.19 71.62 C47.6 47.35, 69.64 23.93, 90.48 0.79 M33.51 69.08 C53.05 47.97, 70.03 30.52, 96.22 -1.75 M33.31 70.46 C53.35 47.13, 73.14 24.61, 95.96 -0.37 M39.83 72.64 C62.19 47.45, 83.44 19.98, 102.65 0.8 M39.76 71.56 C54.37 52.42, 72.01 32.42, 100.99 -0.42 M46.21 69.66 C56.42 54.72, 72.29 37.28, 104.58 -0.83 M44.87 70.06 C68.84 42.81, 92.11 15.6, 106.17 0.07 M50.08 71.96 C67.15 49.59, 83.66 32.55, 109.3 0.19 M49.46 71.1 C70.14 47.51, 88.78 24.65, 111.2 -0.07 M56.68 69.07 C67.63 55.37, 78.9 41.8, 118.01 -1.61 M55.69 70.12 C72.62 50.67, 90.4 30.25, 117.09 0.42 M58.56 69.45 C75.91 51.88, 93.38 34.57, 120.6 1.5 M59.45 71.3 C82.17 44.92, 105.21 17.6, 121.81 -0.13 M65.58 69.77 C85.2 46.72, 105.2 28.53, 126.41 -0.07 M65.21 69.89 C84.68 47.95, 103.38 27.13, 125.98 0.38 M72.37 72.12 C92.59 44.03, 113.06 19.65, 133.59 0.79 M70.44 70.63 C83.49 55.54, 96.89 40.81, 133.06 0.85 M76.41 69.32 C96.64 48.63, 116.25 22.53, 136.59 1.16 M76.44 70.07 C94.48 49.81, 113.24 29.68, 137.74 -0.6 M81.46 70.11 C96.02 57.42, 106.54 38.54, 144.16 1.28 M80.74 71.01 C95.16 55.74, 108.93 38.72, 142.78 -0.26 M87.59 72.43 C102.61 53.55, 115.97 38.31, 146.88 1.85 M87.95 70.8 C100.72 54.37, 114.46 37.92, 147.45 -0.44 M90.67 72.67 C108.13 55.92, 123.35 36.82, 155.09 1.27 M92.17 71.79 C111.95 49.74, 130.06 28.03, 154.35 0.87 M96.37 70.91 C120.79 45.9, 143.01 17.35, 158.48 0.88 M97.86 69.65 C112.99 53.47, 127.16 37.5, 159.79 0.42 M103.69 72.19 C125.32 43.52, 148.18 19.69, 164.01 -1.78 M102.16 71.77 C121.64 50.31, 138.51 27.94, 164.71 0.01 M106.26 72.48 C133.62 43.97, 153.78 15.92, 167.48 0.27 M107.21 70.39 C132.08 42.33, 157.5 15.09, 168.98 0.95 M115.13 72.19 C131.08 48.9, 149.72 30.31, 175.46 0.7 M113.69 71.18 C125.57 56.57, 138.95 41.81, 174.35 0.35 M117.58 69.69 C137.73 47.5, 159.79 23.6, 180.84 1.14 M118.56 71.95 C137.96 48.23, 156.13 26.41, 180.8 -0.43 M122.44 71.28 C140.46 49.31, 161.97 29.65, 182.86 2.67 M123.27 71.68 C144.6 46.6, 166.09 22.37, 183.4 2.79 M127.58 72.49 C149.14 47.83, 172.69 19.58, 187.81 5.05 M128.09 70.98 C149.29 49.44, 167.17 26.67, 186 5.41 M133.95 71.24 C145.16 60.2, 157.09 47.34, 187.16 8.46 M135.02 70.38 C146.48 56.11, 157.91 43.38, 188.15 8.91 M141.02 69.2 C153.54 55.18, 170.18 37.04, 193.02 10.83 M140.17 70.79 C159.42 47.34, 179.62 23.91, 191.44 11.25 M144.86 68.95 C162.47 50.65, 184.51 26.17, 192.14 13.01 M144.6 69.81 C156.92 58.2, 167.62 44.06, 194.43 15.21 M149.56 71.28 C167.02 50.61, 186.18 29.75, 196.72 16.27 M150.74 70.16 C165.3 55.78, 177.98 38.99, 196.25 17.05 M157.28 72.42 C172.17 54.69, 187.02 33.83, 199.14 19.86 M155.22 69.97 C171.66 53.45, 187.27 34.68, 198.3 21.12 M159.71 69.3 C171.4 57.91, 183.14 44.38, 201.36 22.97 M161.3 71.27 C170.78 58.38, 180.95 46.7, 202.46 22.98 M168.14 68.78 C176.68 60.78, 184.65 49.2, 206.39 25.99 M165.68 70.26 C178.86 56.93, 189.96 42.88, 205.43 27.79 M172.88 68.95 C180.71 60.19, 186.77 51.78, 207.63 28.47 M170.93 71.77 C185.54 54.61, 198.78 38.89, 207.01 29.41 M177.3 72.3 C185.85 62.06, 192.33 51.9, 211.66 34.7 M176.33 69.55 C188.75 57.63, 198.86 44.48, 209.69 33.03 M181.32 71.05 C190.34 61.94, 196.59 57.51, 213.04 35.14 M182.26 70.72 C193.75 57.83, 206.13 43.75, 212.38 35.85 M187.45 72.35 C198.35 61.42, 205.69 49.2, 214.95 41.2 M187.07 70.11 C194.15 64.18, 199.72 55.76, 213.88 38.87 M192.2 71.55 C200.38 62.02, 208.78 52.9, 216.02 42.73 M193.47 70.64 C199.55 64.01, 206.55 54.97, 218.63 41.56 M200.18 69.45 C205.99 62.85, 216.77 50.93, 221.09 45.55 M199.37 69.69 C205.86 61.21, 214.98 51.69, 220.3 46.49 M203.53 69.54 C207.66 66.04, 212.85 61.2, 221.88 50.15 M204.32 71.48 C210.21 63.44, 219.01 55.32, 223.4 49.19 M207.95 71.23 C213.49 65.83, 217.73 62.1, 223.82 53.21 M208.29 69.44 C215.98 63.69, 221.82 57.04, 224.88 50.78 M212.2 71.19 C219.55 66.74, 220 63.33, 228.77 53.13 M214.12 70.62 C217.45 66.56, 221.72 63.8, 227.84 54.6 M217.68 69.51 C222.25 67.8, 225.64 64.19, 231.52 56.99 M219.64 70.8 C223.41 66.81, 226.89 62.48, 230.94 58.11" stroke="#ced4da" stroke-width="0.5" fill="none"></path><path d="M-1.15 1.66 C-18.04 22.54, -37.17 42, -48.47 61.92 M-0.6 -0.4 C-11.67 13.88, -21.29 25.74, -51 60.45 M-51.64 60.04 C-47.75 63.5, -45.14 67.44, -41.82 70.59 M-50.24 61.02 C-48.76 62.7, -45.87 64.19, -41.46 70.71 M-39.39 70.96 C37.81 68.15, 119.99 69.39, 220.57 70.8 M-41.16 70.52 C50.91 69.81, 143.49 69.26, 222.13 69.89 M221.26 69.81 C223.78 66.61, 227.01 64.94, 230.95 59.78 M221.9 70.36 C225.92 66.21, 229.63 63.57, 231.7 60.43 M232.58 59.86 C218.47 45.48, 209.43 30.87, 180.87 1.15 M232.89 60.64 C214.6 40.39, 196.6 19.71, 181.59 0.56 M183.34 0.43 C114.93 0.84, 47.83 1.28, 1.62 0.73 M180.69 0.8 C144.17 0.26, 105.21 1.23, -0.19 -0.24 M0 0 C0 0, 0 0, 0 0 M0 0 C0 0, 0 0, 0 0" stroke="#000000" stroke-width="1" fill="none"></path></g></g><mask></mask><g stroke-linecap="round" transform="translate(455.3577731501995 155.03216793547017) rotate(0 85.95465554728173 55.61771829529994)"><path d="M-0.08 -1.29 L172.59 -0.63 L170.58 111.09 L1.77 111.04" stroke="none" stroke-width="0" fill="#fff"></path><path d="M1.66 0.13 C56.94 0.31, 110.45 2.93, 173.33 -1.67 M-0.4 -0.91 C56.02 1.43, 110.5 0.44, 171.86 0.15 M171.24 -0.52 C171.05 33.77, 172.29 68.33, 172.32 109.55 M172.68 -0.71 C172.94 43.04, 172.01 84.21, 172.49 111.27 M172.72 109.95 C114.87 114.67, 61.35 111.02, 0.61 112.27 M172.17 110.32 C104.21 109.81, 36.1 110.78, -0.53 110.65 M-0.73 110.35 C-2.37 75.92, -1.36 38.57, -1.02 1.16 M0.06 111.69 C-1 83.51, 0.26 54.08, -0.09 -0.59" stroke="#000000" stroke-width="1" fill="none"></path></g><g transform="translate(488.5780536974812 186.64988623077033) rotate(0 52.734375 24)"><text x="52.734375" y="0" font-family="Cascadia, Segoe UI Emoji" font-size="20px" fill="#2f9e44" text-anchor="middle" style="white-space: pre;" direction="ltr" dominant-baseline="text-before-edge">MacOS</text><text x="52.734375" y="24" font-family="Cascadia, Segoe UI Emoji" font-size="20px" fill="#2f9e44" text-anchor="middle" style="white-space: pre;" direction="ltr" dominant-baseline="text-before-edge">Node 20.1</text></g><g stroke-linecap="round"><g transform="translate(521.6049315271378 301.71790362059664) rotate(0 19.345967169262053 9.977653427686391)" fill-rule="evenodd"><path d="M1.65 1.86 L-9.65 20.95 L49.75 21.2 L40.11 1.62 L0.73 -1.85" stroke="none" stroke-width="0" fill="#fff" fill-rule="evenodd"></path><path d="M0.13 0.9 C-3.11 3.1, -2.81 10.79, -11.75 20.65 M-0.91 0.31 C-3.68 6.96, -8.63 15.75, -9.93 20.3 M-10.6 19.96 C3.45 21.39, 17.79 20.78, 48.73 21.81 M-10.79 20.4 C12.93 19, 34.08 20.28, 50.44 20.37 M49.12 18.2 C48.72 13.16, 41.76 7.57, 41.37 1.84 M49.5 19.89 C46.47 12.9, 44.28 7, 39.74 0.21 M39.45 -1.85 C26.7 -0.99, 11.03 -1.17, 1.16 -0.89 M40.79 -0.82 C28.29 0.46, 14.55 -0.06, -0.59 -0.04 M0 0 C0 0, 0 0, 0 0 M0 0 C0 0, 0 0, 0 0" stroke="#000000" stroke-width="1" fill="none"></path></g></g><mask></mask><g stroke-linecap="round"><g transform="translate(400.61591050879895 331.96515887518126) rotate(0 141.45696006266166 0.4490419083904271)"><path d="M0.69 -0.52 C67.26 1.34, 138.1 -1.42, 282.67 1.42 M0.24 0.3 C67.02 1.5, 135.4 2.06, 282.41 -0.45" stroke="#000000" stroke-width="1" fill="none"></path></g></g><mask></mask><g stroke-linecap="round" transform="translate(132.3674196644132 47.104882050927245) rotate(0 12.071116973872847 12.014314754698262)"><path d="M4.42 2.52 C4.42 2.52, 4.42 2.52, 4.42 2.52 M4.42 2.52 C4.42 2.52, 4.42 2.52, 4.42 2.52 M2.27 11.1 C3.12 9.36, 6.29 7.64, 10.66 0.7 M1.53 12.72 C3.53 8.78, 7.22 5.09, 10.79 0.26 M1.4 18.19 C7.19 13.99, 10.91 7.52, 15.07 2.53 M2.49 16.73 C7.07 10.94, 11.85 6.63, 14.05 3.13 M3.8 20.54 C7.59 18.5, 12.19 11.85, 18.76 4.43 M3.37 21 C8.09 17.59, 11.07 14.02, 20.66 2.75 M8.36 24.43 C9.42 19.95, 13.22 14.33, 21.88 5.35 M7.83 24.48 C11.34 18.61, 15.01 15.15, 21.81 5.83 M10.04 26.3 C16.05 19.27, 20.9 13.65, 23.26 10.25 M11.19 24.54 C13.68 21.48, 17.5 17.07, 23.74 10.9 M18.63 24.5 C20.58 19.3, 24.97 14.27, 27.34 12.55 M17.67 23.43 C21.03 19.7, 24.13 15.87, 27.82 13.15" stroke="#12b886" stroke-width="0.5" fill="none"></path><path d="M11.77 0.52 C14.18 0.2, 17.17 0.6, 19.26 2.27 C21.36 3.94, 23.67 7.83, 24.34 10.52 C25.01 13.2, 24.52 16.39, 23.27 18.39 C22.02 20.39, 19.2 21.63, 16.84 22.53 C14.49 23.42, 11.73 24.32, 9.17 23.76 C6.6 23.2, 3.1 21.3, 1.46 19.16 C-0.17 17.02, -1.16 13.76, -0.62 10.94 C-0.08 8.11, 2.37 4.01, 4.69 2.21 C7.02 0.4, 11.8 0.36, 13.32 0.12 C14.84 -0.12, 13.94 0.71, 13.79 0.76 M11.04 -1.3 C13.3 -1.63, 17.78 1.5, 19.71 3.1 C21.63 4.71, 22.14 5.67, 22.58 8.32 C23.01 10.97, 23.2 16.43, 22.32 19.01 C21.44 21.58, 19.57 23.16, 17.29 23.76 C15 24.36, 10.97 23.59, 8.61 22.61 C6.24 21.62, 4.4 19.98, 3.1 17.86 C1.8 15.74, 0.67 12.26, 0.8 9.89 C0.93 7.52, 2.09 5.36, 3.88 3.65 C5.66 1.94, 10.28 0.14, 11.53 -0.37 C12.79 -0.88, 11.24 0.36, 11.4 0.59" stroke="#495057" stroke-width="1" fill="none"></path></g><g stroke-linecap="round"><g transform="translate(144.38173441911192 71.13351156032377) rotate(0 0.11161030586555398 16.81746692351635)" fill-rule="evenodd"><path d="M-7.84 -0.19 C-7.84 -0.19, -7.84 -0.19, -7.84 -0.19 M-7.84 -0.19 C-7.84 -0.19, -7.84 -0.19, -7.84 -0.19 M-12.13 11.85 C-10.88 9.63, -7.8 5.87, -3.21 -0.02 M-12.87 11.66 C-8.94 7.55, -6.42 3.26, -2.12 -0.58 M-12 17.57 C-8.26 14.06, -3.99 5.86, 2.28 1.11 M-13.95 18.6 C-9.34 13.1, -5 7.56, 1.35 2.15 M-14.75 27.41 C-11.28 21.27, -5.83 17.19, 6.72 1 M-14.77 25.71 C-8.64 17.99, -0.85 10.4, 8.92 -1.28 M-13.71 31.34 C-5.29 20.93, 5.01 10.45, 9.29 3.29 M-14.93 32.79 C-8.46 24.56, -1.57 16.62, 10.99 3.27 M-10.41 33.46 C-6.47 28.64, -0.31 21.41, 11.08 5.8 M-11.56 35.56 C-4.13 26.35, 1.85 17.21, 11.84 8.17 M-9.64 35.81 C-1 27.23, 5.77 19.01, 13.38 12.81 M-7.74 36.63 C-0.32 26.75, 9.59 16.67, 13.08 11.31 M-3.48 36.89 C2.12 29.99, 8.56 24.78, 14.98 17.07 M-3.72 37.02 C0.38 33.29, 5.37 27.5, 13.88 17.16 M1.51 35.86 C7.62 30.7, 14.07 24.42, 15.6 20.01 M0.89 37.62 C7.03 32.93, 10.02 27.4, 17.23 20.16 M6.91 37.37 C12.2 32.08, 14.59 27.6, 16.39 24.69 M7.99 35.74 C10.99 34.27, 13.03 32.09, 17.1 26.14" stroke="#12b886" stroke-width="0.5" fill="none"></path><path d="M-0.05 -0.12 C1.35 -0.06, 5.57 -5.35, 8.35 -0.07 C11.13 5.22, 20.78 26.15, 16.64 31.58 C12.5 37.02, -12.55 37.68, -16.49 32.55 C-20.43 27.41, -9.88 6.1, -7.02 0.76 C-4.16 -4.58, -0.34 0.43, 0.69 0.5 M-1.53 -1.24 C-0.26 -0.94, 4.63 -4.21, 7.59 1.43 C10.54 7.08, 20.21 27.86, 16.19 32.66 C12.18 37.46, -12.46 35.44, -16.49 30.26 C-20.51 25.07, -10.52 6.63, -7.97 1.54 C-5.42 -3.54, -2.42 -0.1, -1.2 -0.27" stroke="#495057" stroke-width="1" fill="none"></path></g></g><mask></mask><g stroke-linecap="round" transform="translate(526.7830040799976 51.91007685612203) rotate(0 12.071116973872847 12.014314754698262)"><path d="M1.23 7.7 C1.23 7.7, 1.23 7.7, 1.23 7.7 M1.23 7.7 C1.23 7.7, 1.23 7.7, 1.23 7.7 M0.27 13.63 C3.73 11.19, 3.85 9.53, 9.36 4.95 M0.72 14.06 C3.05 12.06, 5.52 9.14, 8.3 4.56 M1.93 19.32 C9.02 11.16, 10.19 9.01, 17.82 0.87 M2.83 17.92 C7.38 13.4, 10.25 8.85, 16.28 1.84 M7.01 22.08 C9.64 15.02, 16.35 9.61, 21.71 2.86 M5.38 21.52 C10.2 14.8, 15.4 8.25, 19.42 3.6 M9.91 25.32 C13.84 21.46, 15.52 16.27, 25.85 5.43 M9.03 24.92 C12.57 19.8, 16.3 15.72, 25.46 6.07 M13.54 24.69 C18.2 20.47, 19.09 16.52, 26.81 8.36 M12.27 25.27 C17.42 19.4, 23.03 15.18, 26.35 10.07" stroke="#12b886" stroke-width="0.5" fill="none"></path><path d="M13.43 -0.02 C15.95 0.02, 19.61 0.97, 21.53 2.85 C23.44 4.73, 24.94 8.65, 24.93 11.26 C24.91 13.87, 23.02 16.58, 21.42 18.51 C19.83 20.44, 17.93 22.2, 15.36 22.84 C12.79 23.48, 8.41 23.31, 6 22.35 C3.59 21.4, 1.74 19.49, 0.9 17.1 C0.06 14.7, 0.1 10.4, 0.97 8 C1.84 5.61, 3.74 3.86, 6.12 2.72 C8.49 1.57, 13.75 1.39, 15.21 1.13 C16.68 0.88, 15.11 1.01, 14.89 1.18 M11.25 0.15 C13.56 0.03, 15.79 1.76, 17.85 3.19 C19.91 4.61, 22.79 6.56, 23.59 8.71 C24.39 10.87, 23.68 13.49, 22.66 16.1 C21.64 18.7, 19.9 23.16, 17.48 24.35 C15.07 25.53, 10.78 23.98, 8.2 23.2 C5.62 22.43, 3.2 21.97, 2.01 19.7 C0.83 17.42, 0.97 12.1, 1.11 9.56 C1.25 7.01, 1.36 5.78, 2.86 4.44 C4.36 3.09, 8.79 2.41, 10.12 1.48 C11.45 0.55, 10.62 -1.24, 10.85 -1.13" stroke="#495057" stroke-width="1" fill="none"></path></g><g stroke-linecap="round"><g transform="translate(538.7973188346963 75.93870636551856) rotate(0 0.5265799790893766 16.864427808778146)" fill-rule="evenodd"><path d="M-7.84 -0.19 C-7.84 -0.19, -7.84 -0.19, -7.84 -0.19 M-7.84 -0.19 C-7.84 -0.19, -7.84 -0.19, -7.84 -0.19 M-12.02 12.77 C-10.47 8.3, -7.48 6.77, -1.83 -0.85 M-11.97 11.2 C-11.16 8.94, -7.69 6.56, -2.69 0.73 M-14.88 17.88 C-6.68 12.81, -4.21 6.52, -0.06 0.41 M-13.24 17.8 C-8.42 14.33, -4.65 8.09, 1.83 1.23 M-16.7 25.6 C-10.33 20.64, -3.83 12.84, 8.06 -0.78 M-14.35 26.74 C-8.89 18.7, -3.81 12.83, 7.83 -0.65 M-17.42 31.5 C-7.9 26.34, -3.67 16.98, 9.78 1.97 M-15.84 32.59 C-7.69 23.31, 0.24 14.28, 9.15 3.73 M-12.98 36.67 C-3.72 25.59, 5.6 14.41, 10.04 9.24 M-12.2 34.13 C-4.57 25.14, 3.38 16.25, 11.58 6.91 M-6.31 35.96 C1.55 28.12, 8.83 15.74, 14.22 11.85 M-8 37.12 C0.87 27.65, 9.63 16.36, 14.11 11.08 M-3.4 36.35 C2.31 30.92, 7.23 24.55, 13.49 16.82 M-3.09 37.91 C1.69 32.74, 5.2 28.45, 15.19 17.13 M3.56 37.32 C6.73 29.75, 12.46 26.09, 16.14 19.59 M1.15 36.8 C7.76 30.86, 14.1 23.27, 16.94 20.05 M6.78 36.08 C10.1 32.4, 16.22 28.7, 16.25 24.92 M8.55 36.38 C9.94 34.5, 12.25 32.1, 17.97 26.3" stroke="#12b886" stroke-width="0.5" fill="none"></path><path d="M-0.35 0.26 C1.27 0.21, 5.79 -5.81, 8.53 -0.53 C11.26 4.74, 20.03 26.67, 16.09 31.93 C12.14 37.18, -11.27 36.33, -15.13 31.01 C-18.98 25.7, -9.48 5.34, -7.04 0.05 C-4.59 -5.24, -1.72 -0.55, -0.46 -0.73 M1.66 -0.65 C3.27 -0.52, 5.57 -4.92, 7.85 0.72 C10.13 6.36, 19.07 28.04, 15.36 33.19 C11.65 38.33, -10.52 37.03, -14.41 31.58 C-18.3 26.12, -10.52 5.48, -8 0.47 C-5.48 -4.55, -0.86 1.46, 0.7 1.51" stroke="#495057" stroke-width="1" fill="none"></path></g></g><mask></mask><g stroke-linecap="round" transform="translate(911.9649300862383 117.37019393243236) rotate(0 49.11881667505736 91.68845779343997)"><path d="M0 0 C0 0, 0 0, 0 0 M0 0 C0 0, 0 0, 0 0 M0.13 12.04 C3.41 8.27, 6.69 4.5, 10.63 -0.03 M0.13 12.04 C2.57 9.24, 5 6.44, 10.63 -0.03 M0.27 24.08 C7.15 16.17, 14.03 8.25, 21.26 -0.07 M0.27 24.08 C7.5 15.76, 14.74 7.43, 21.26 -0.07 M-0.26 36.88 C7.39 28.08, 15.04 19.28, 31.89 -0.1 M-0.26 36.88 C10.14 24.92, 20.53 12.97, 31.89 -0.1 M-0.12 48.92 C11.5 35.55, 23.11 22.19, 42.52 -0.14 M-0.12 48.92 C16.71 29.55, 33.55 10.18, 42.52 -0.14 M0.01 60.96 C11 48.31, 22 35.66, 53.15 -0.17 M0.01 60.96 C19.74 38.26, 39.47 15.56, 53.15 -0.17 M0.14 73 C12.93 58.29, 25.72 43.57, 63.78 -0.21 M0.14 73 C13.63 57.48, 27.12 41.97, 63.78 -0.21 M0.28 85.04 C17.77 64.92, 35.26 44.8, 74.41 -0.24 M0.28 85.04 C28.87 52.14, 57.47 19.25, 74.41 -0.24 M-0.25 97.84 C29.76 63.31, 59.77 28.79, 85.04 -0.28 M-0.25 97.84 C19.71 74.88, 39.67 51.92, 85.04 -0.28 M-0.11 109.88 C27.23 78.42, 54.57 46.97, 95.67 -0.31 M-0.11 109.88 C31.75 73.22, 63.62 36.56, 95.67 -0.31 M0.02 121.92 C31.48 85.73, 62.94 49.54, 102.36 4.18 M0.02 121.92 C26.14 91.87, 52.26 61.82, 102.36 4.18 M0.15 133.96 C26.74 103.38, 53.32 72.8, 102.5 16.22 M0.15 133.96 C34.39 94.57, 68.63 55.18, 102.5 16.22 M0.29 146 C40.57 99.65, 80.86 53.31, 102.63 28.27 M0.29 146 C23.42 119.38, 46.56 92.76, 102.63 28.27 M-0.24 158.8 C21.05 134.3, 42.34 109.81, 102.76 40.31 M-0.24 158.8 C27.56 126.82, 55.36 94.84, 102.76 40.31 M-0.1 170.84 C28.78 137.6, 57.67 104.37, 102.9 52.35 M-0.1 170.84 C25.99 140.82, 52.09 110.8, 102.9 52.35 M0.03 182.88 C32.58 145.43, 65.13 107.99, 102.37 65.14 M0.03 182.88 C38.26 138.89, 76.5 94.91, 102.37 65.14 M6.07 188.13 C42.85 145.81, 79.64 103.49, 102.51 77.18 M6.07 188.13 C25.36 165.94, 44.65 143.75, 102.51 77.18 M16.7 188.09 C44.99 155.54, 73.28 123, 102.64 89.22 M16.7 188.09 C37.05 164.68, 57.39 141.27, 102.64 89.22 M27.33 188.06 C46.48 166.02, 65.63 143.99, 102.77 101.26 M27.33 188.06 C48.85 163.3, 70.38 138.53, 102.77 101.26 M37.3 188.78 C58.25 164.67, 79.21 140.57, 102.91 113.31 M37.3 188.78 C50.87 173.17, 64.43 157.56, 102.91 113.31 M47.93 188.74 C69.65 163.76, 91.36 138.78, 102.38 126.1 M47.93 188.74 C63.43 170.91, 78.94 153.08, 102.38 126.1 M58.56 188.71 C72.26 172.95, 85.95 157.2, 102.52 138.14 M58.56 188.71 C75.58 169.13, 92.6 149.54, 102.52 138.14 M69.19 188.67 C77.93 178.62, 86.66 168.57, 102.65 150.18 M69.19 188.67 C80.23 175.97, 91.27 163.27, 102.65 150.18 M79.82 188.64 C86.08 181.44, 92.33 174.25, 102.78 162.22 M79.82 188.64 C85.29 182.35, 90.75 176.06, 102.78 162.22 M90.45 188.6 C93.31 185.32, 96.17 182.03, 102.92 174.26 M90.45 188.6 C94.3 184.17, 98.16 179.74, 102.92 174.26 M-0.23 183.18 C-0.23 183.18, -0.23 183.18, -0.23 183.18 M-0.23 183.18 C-0.23 183.18, -0.23 183.18, -0.23 183.18 M12.56 183.7 C9.54 181.07, 6.51 178.44, -0.27 172.55 M12.56 183.7 C9.15 180.73, 5.73 177.76, -0.27 172.55 M24.61 183.57 C17.49 177.38, 10.38 171.2, -0.3 161.92 M24.61 183.57 C15.36 175.53, 6.11 167.49, -0.3 161.92 M36.65 183.43 C23.46 171.97, 10.27 160.5, -0.33 151.29 M36.65 183.43 C29.18 176.94, 21.71 170.45, -0.33 151.29 M48.69 183.3 C29.55 166.66, 10.4 150.02, -0.37 140.66 M48.69 183.3 C31.29 168.18, 13.89 153.05, -0.37 140.66 M60.73 183.17 C47.95 172.06, 35.17 160.95, 0.35 130.68 M60.73 183.17 C44.25 168.84, 27.77 154.51, 0.35 130.68 M73.52 183.69 C46.6 160.29, 19.68 136.88, 0.32 120.05 M73.52 183.69 C58.13 170.31, 42.73 156.92, 0.32 120.05 M85.56 183.56 C54.49 156.55, 23.42 129.54, 0.28 109.42 M85.56 183.56 C52.11 154.47, 18.66 125.39, 0.28 109.42 M97.61 183.42 C68.04 157.72, 38.47 132.02, 0.25 98.79 M97.61 183.42 C60.67 151.32, 23.74 119.21, 0.25 98.79 M102.85 177.39 C69.79 148.65, 36.73 119.91, 0.21 88.16 M102.85 177.39 C79.33 156.94, 55.82 136.5, 0.21 88.16 M102.82 166.76 C79.49 146.48, 56.16 126.2, 0.18 77.53 M102.82 166.76 C76.22 143.63, 49.62 120.51, 0.18 77.53 M103.54 156.78 C68.8 126.58, 34.06 96.39, 0.14 66.9 M103.54 156.78 C81.93 137.99, 60.32 119.21, 0.14 66.9 M103.5 146.15 C71.31 118.16, 39.11 90.17, 0.11 56.27 M103.5 146.15 C82.49 127.88, 61.47 109.61, 0.11 56.27 M103.47 135.52 C82.71 117.47, 61.95 99.42, 0.08 45.64 M103.47 135.52 C71.04 107.33, 38.61 79.14, 0.08 45.64 M103.44 124.89 C75.23 100.37, 47.02 75.85, 0.04 35.01 M103.44 124.89 C70.18 95.98, 36.92 67.07, 0.04 35.01 M103.4 114.26 C77.02 91.33, 50.64 68.39, 0.01 24.38 M103.4 114.26 C74.34 89, 45.29 63.74, 0.01 24.38 M103.37 103.63 C64.91 70.2, 26.45 36.77, -0.03 13.75 M103.37 103.63 C74.38 78.43, 45.39 53.24, -0.03 13.75 M103.33 93 C63.9 58.72, 24.47 24.45, -0.06 3.12 M103.33 93 C82.1 74.54, 60.86 56.08, -0.06 3.12 M103.3 82.37 C82.08 63.92, 60.86 45.48, 3.68 -4.23 M103.3 82.37 C73.24 56.24, 43.18 30.11, 3.68 -4.23 M103.26 71.74 C85.27 56.1, 67.28 40.46, 15.72 -4.36 M103.26 71.74 C73.74 46.08, 44.22 20.41, 15.72 -4.36 M103.23 61.11 C77.27 38.55, 51.32 15.98, 27.76 -4.5 M103.23 61.11 C75.72 37.2, 48.22 13.29, 27.76 -4.5 M103.19 50.48 C84.57 34.29, 65.94 18.09, 40.55 -3.97 M103.19 50.48 C85.45 35.06, 67.7 19.63, 40.55 -3.97 M103.16 39.85 C90.19 28.58, 77.23 17.31, 52.59 -4.11 M103.16 39.85 C92.88 30.91, 82.6 21.97, 52.59 -4.11 M103.13 29.22 C88.86 16.82, 74.6 4.42, 64.64 -4.24 M103.13 29.22 C95.18 22.31, 87.23 15.4, 64.64 -4.24 M103.09 18.59 C92.9 9.73, 82.7 0.87, 76.68 -4.37 M103.09 18.59 C94.92 11.48, 86.74 4.38, 76.68 -4.37 M103.06 7.96 C99.01 4.44, 94.96 0.92, 88.72 -4.51 M103.06 7.96 C99.81 5.14, 96.57 2.32, 88.72 -4.51" stroke="#ced4da" stroke-width="1" fill="none"></path><path d="M0 0 C36 0, 72 0, 98.24 0 M0 0 C35.34 0, 70.68 0, 98.24 0 M98.24 0 C98.24 44.63, 98.24 89.27, 98.24 183.38 M98.24 0 C98.24 47.73, 98.24 95.45, 98.24 183.38 M98.24 183.38 C63.47 183.38, 28.7 183.38, 0 183.38 M98.24 183.38 C61.45 183.38, 24.66 183.38, 0 183.38 M0 183.38 C0 117.86, 0 52.34, 0 0 M0 183.38 C0 138.77, 0 94.17, 0 0" stroke="#000000" stroke-width="2" fill="none"></path></g><g transform="translate(889.1644936876118 61.351992337723004) rotate(0 73.8093490600586 15.116153808458193)"><text x="73.8093490600586" y="0" font-family="Cascadia, Segoe UI Emoji" font-size="25.19358968076363px" fill="#2f9e44" text-anchor="middle" style="white-space: pre;" direction="ltr" dominant-baseline="text-before-edge">Production</text></g><g stroke-linecap="round"><g transform="translate(923.7860109995287 137.65635570248378) rotate(0 37.65775945087705 2.2737367544323206e-13)"><path d="M0 0 C12.55 0, 62.76 0, 75.32 0 M0 0 C12.55 0, 62.76 0, 75.32 0" stroke="#000000" stroke-width="2" fill="none"></path></g></g><mask></mask><g stroke-linecap="round"><g transform="translate(923.4259873104171 152.90051622384408) rotate(0 37.65775945087705 2.2737367544323206e-13)"><path d="M0 0 C12.55 0, 62.76 0, 75.32 0 M0 0 C12.55 0, 62.76 0, 75.32 0" stroke="#000000" stroke-width="2" fill="none"></path></g></g><mask></mask><g stroke-linecap="round"><g transform="translate(923.3445750322265 171.4165715089439) rotate(0 37.65775945087705 2.2737367544323206e-13)"><path d="M0 0 C12.55 0, 62.76 0, 75.32 0 M0 0 C12.55 0, 62.76 0, 75.32 0" stroke="#000000" stroke-width="2" fill="none"></path></g></g><mask></mask><g stroke-linecap="round"><g transform="translate(923.3445750322265 188.29667941217394) rotate(0 37.65775945087705 2.2737367544323206e-13)"><path d="M0 0 C12.55 0, 62.76 0, 75.32 0 M0 0 C12.55 0, 62.76 0, 75.32 0" stroke="#000000" stroke-width="2" fill="none"></path></g></g><mask></mask><g transform="translate(117.61026576640393 10) rotate(0 29.296875 12)"><text x="29.296875" y="0" font-family="Cascadia, Segoe UI Emoji" font-size="20px" fill="#2f9e44" text-anchor="middle" style="white-space: pre;" direction="ltr" dominant-baseline="text-before-edge">Dev 1</text></g><g transform="translate(512.0258501819884 10.909090909090992) rotate(0 29.296875 12)"><text x="29.296875" y="0" font-family="Cascadia, Segoe UI Emoji" font-size="20px" fill="#2f9e44" text-anchor="middle" style="white-space: pre;" direction="ltr" dominant-baseline="text-before-edge">Dev 2</text></g><g transform="translate(922.7746326495209 322.98701298701235) rotate(0 41.015625 12)"><text x="41.015625" y="0" font-family="Cascadia, Segoe UI Emoji" font-size="20px" fill="#2f9e44" text-anchor="middle" style="white-space: pre;" direction="ltr" dominant-baseline="text-before-edge">Node 18</text></g></svg>