<svg version="1.1" xmlns="http://www.w3.org/2000/svg" viewBox="0 0 1464.4206574675322 396.02789993503666" width="2928.8413149350645" height="792.0557998700733">
  <!-- svg-source:excalidraw -->
  
  <defs>
    <style class="style-fonts">
      @font-face {
        font-family: "Virgil";
        src: url("https://excalidraw.com/Virgil.woff2");
      }
      @font-face {
        font-family: "Cascadia";
        src: url("https://excalidraw.com/Cascadia.woff2");
      }
    </style>
    
  </defs>
  <rect x="0" y="0" width="1464.4206574675322" height="396.02789993503666" fill="#ffffff"></rect><g stroke-linecap="round" transform="translate(67.11903553466846 85.11731949049954) rotate(0 90.74176576375407 60.49451050916923)"><path d="M0 0 C0 0, 0 0, 0 0 M0 0 C0 0, 0 0, 0 0 M-0.11 6.63 C2.1 4.22, 3.67 2.41, 4.38 -0.28 M-0.21 6.09 C1.63 4.61, 3.16 1.93, 5.16 0.13 M0.36 13.11 C4.35 9.69, 5.96 6.36, 12.08 1.56 M0.02 11.42 C1.76 10.06, 4.93 6.17, 11.25 -0.61 M-1.55 17.64 C7.51 10.3, 13.47 2.17, 16.69 -0.24 M-0.04 18.67 C3.95 13.6, 6.95 10.94, 16.11 0.44 M-0.17 22.43 C3.86 19.21, 10.86 8.96, 21.59 0.18 M0.51 23.87 C5.26 18.52, 10.29 11.33, 21.59 0.53 M-0.98 30.11 C4.07 23.13, 9.28 16.4, 26.59 1.7 M-0.27 30.9 C7.12 22.31, 15.2 14.77, 26.59 -0.7 M-0.86 38.2 C9.81 23.28, 23.13 8.32, 33.74 -0.04 M0.02 36.11 C9.99 22.97, 22.39 11.55, 32.25 0.71 M1.23 42.41 C8.4 33.17, 18.56 22.37, 37.63 -1.45 M0.49 42.09 C7.83 34.35, 14.61 25.03, 37.12 0.63 M1.6 47.63 C17.33 29.14, 31.04 10.18, 41.92 -0.29 M-0.64 49.51 C15.47 32.2, 30.21 13.39, 42.87 0.36 M-0.42 55.43 C14.25 38.13, 30.95 21.17, 49.36 -0.86 M0.96 55.54 C13.65 39.14, 27.15 23.87, 47.38 0.3 M-0.38 62.81 C18.9 38.76, 42.57 15.45, 54.26 0.69 M0.82 61.43 C11.92 47.01, 25.05 31.62, 52.37 -0.41 M-0.95 65.7 C20.63 43.22, 46.08 16.56, 56.49 -0.82 M0.66 66.9 C19.73 45.51, 38.08 23.37, 58.52 -0.28 M1.41 73.94 C19.41 50.01, 39.26 29.37, 62.02 -0.94 M0.79 72.02 C21.99 47.11, 44.77 20.44, 63.11 0.11 M1.72 78.35 C24.61 52.96, 47.19 26.99, 68.85 1.25 M0.5 79.1 C21.06 54.37, 42.86 28.92, 69.11 -0.15 M-1.71 86.12 C24.32 54.11, 51.7 27.04, 75.58 -2.18 M1.08 85.02 C15.22 65.65, 30.18 48.65, 74.87 -0.83 M-1.2 91.66 C17.8 69.66, 36.05 47.57, 79.37 -1.19 M0.87 90.9 C31.11 56.95, 61.47 22.45, 79.16 -0.77 M0.05 96.05 C26.04 68.26, 48.29 43, 84.45 -1.11 M0.3 98.45 C24.13 71.74, 45.32 45.71, 84.88 -0.41 M1.31 102.04 C25.17 76.46, 46.33 49.46, 88.13 0.2 M0.25 103.86 C19.41 82.43, 37.37 61.55, 90.12 -0.04 M1.58 109.06 C20.7 87.99, 39.54 64.45, 97.27 -0.96 M0.47 109.67 C30.94 72.27, 63.51 35.63, 95.82 -0.26 M-0.61 116.74 C33.89 76.6, 68.13 36.4, 102.33 0.63 M0.56 115.12 C22.98 89.09, 46.31 60.68, 100.87 -0.29 M-0.44 122.86 C43.55 70.21, 87.36 24.52, 105.8 -2.11 M-0.28 121.08 C43.45 72.93, 84.61 24.94, 105.78 -0.42 M7.55 119.88 C44.16 78.56, 81.61 33.97, 112.29 -1.82 M6.39 121.33 C32.4 89.33, 61.52 56.69, 111.74 -0.31 M11.01 119.47 C34.03 91.57, 58.61 61.14, 116.27 -1.25 M10.8 122.08 C50.5 75.92, 89.77 31.89, 115.65 1.35 M18.16 120.48 C52.03 81.95, 85.26 42.24, 123.45 1.8 M16.54 120.74 C45.23 87.38, 73.16 54.45, 122.48 0.7 M21.04 121.66 C47.75 87.53, 80.15 56.56, 128 1.48 M22.89 121.55 C59.66 78.53, 96.03 36.87, 127.72 0.62 M25.49 120.48 C52.34 93.07, 77.55 63.17, 132.4 -0.66 M25.99 121.22 C63.13 79.11, 99.7 37.54, 132.3 -0.93 M31.71 119.78 C70.75 72.2, 113.42 26.32, 137.46 -0.87 M32.44 120.56 C70.92 76.83, 108.08 33.14, 137.76 0.77 M36.18 122.64 C75.3 78, 114.82 34.82, 142.82 1.5 M38.41 122.13 C75.01 76.94, 113.89 33.12, 143.84 0.73 M44.22 123.02 C64.47 96.08, 88.65 69.01, 148.92 -1.18 M43.32 121.8 C65.48 96.03, 86.51 70.22, 147.62 -0.01 M47.98 120.61 C87 78.04, 124.02 34.19, 153.54 1.87 M48.91 120.43 C86.01 76.36, 125.22 32.41, 153.16 -0.85 M54.25 120.23 C85.41 83.49, 118.36 42.84, 157.76 -1.4 M52.22 122.22 C80.57 90.45, 108.48 57.38, 158.59 0.04 M57.78 122.91 C84.84 93.83, 107.68 63.89, 162.51 0.89 M58.01 120.61 C92.31 84.5, 123.61 45.62, 163.77 -0.65 M62.54 120.86 C88.23 94.18, 113.67 65.78, 170.5 -0.66 M63.19 122.12 C86.96 96.95, 108.62 70.79, 169.4 0.24 M69.59 120.95 C104.44 83.97, 134.84 42.67, 174.79 -2.08 M69.72 120.75 C104.3 81.22, 141.67 38.68, 174.63 -0.05 M75.02 123.5 C114.68 74.83, 156.83 23.72, 180.76 0.83 M73.78 121.59 C107.8 82.4, 142.96 42.65, 180.21 -0.53 M78.54 120.99 C112 86.92, 143.3 49.57, 184.62 1.42 M79.43 120.47 C117.32 76.74, 156.5 34.34, 184.14 1.36 M85.39 120.85 C107.22 96.94, 129.41 69.72, 182.09 10.01 M85.64 121.55 C108.88 95.31, 132.35 67.18, 183.42 8.46 M90.9 120.17 C127.56 79.33, 163.47 38.75, 184.76 16.02 M90.01 120.97 C110.6 96.86, 132.57 72.13, 183.59 14.86 M94.46 120.5 C121.61 96.54, 144.89 68.38, 182.31 19.88 M95.83 122.47 C121.34 90.83, 150.15 57.88, 184 20.7 M100.04 122.52 C132.7 86.18, 166.52 47.61, 182.19 27.88 M101.74 121 C128.49 90.04, 155.61 59.36, 184.74 25.92 M106.18 120.9 C120.29 101.38, 140.16 84.39, 183.71 31.05 M106.86 122.38 C128.96 94.43, 151.99 68.57, 183.72 31.98 M110.48 122.95 C139.39 92.07, 165.53 60.92, 181.82 40.57 M112.36 120.88 C127.91 102.06, 144.88 83.86, 183.66 38.15 M115.62 123.4 C134.83 99.51, 157.26 75.52, 184.43 42.8 M116.68 120.89 C135.15 100.21, 153.06 78.73, 184.49 45.43 M121.85 119.2 C135.76 105.11, 150.01 89.65, 181.66 50.3 M123.04 120.49 C139.05 102.67, 154.34 84.22, 183.77 50.44 M128.99 120.21 C145.31 103.62, 163.15 85.09, 185.72 57.28 M126.67 121.15 C143.02 101.25, 159.94 84.03, 183.66 55.75 M132.92 119.94 C148.36 100.14, 168.6 81.92, 184.87 62.41 M132.37 121.27 C147.99 104.74, 163.28 88.13, 184.01 63.53 M139.6 122.39 C155.7 105.1, 169.45 86.64, 183.31 68.26 M137.67 121.89 C153.51 102.05, 170.81 84.44, 183.37 69.94 M145.56 120.69 C153.4 107.92, 164.75 96.2, 182.42 76.35 M144.41 120.23 C158.6 105.15, 172.52 87.86, 183.38 74.95 M147.91 119.92 C158.32 110.68, 170.67 96.56, 182.04 82.13 M147.92 121.39 C157.31 112.41, 165.6 102.44, 183.16 82.3 M152.8 119.84 C161.16 112.02, 169.03 100.58, 184.35 86.47 M154.63 121.93 C162.1 113.79, 167.65 104.51, 184.33 87.8 M157.47 121.63 C170.3 111.64, 175.44 100.45, 183.86 94.42 M159.14 121.51 C164.94 115.51, 171.07 109.43, 184.05 92.99 M166.09 123.42 C168.93 117.13, 174.24 112.16, 183.23 98.72 M165.28 121.26 C170.39 114.86, 174.47 109.04, 184.08 99.49 M171 123.23 C172.69 118.5, 177.37 112.31, 182.55 106.77 M170.45 121.65 C172.09 118.26, 175.96 114.61, 183.13 104.93 M174.4 121.94 C176.84 117.94, 180.97 117.45, 184.3 111.76 M175.71 122.16 C178.46 117.67, 181.68 114.29, 183.4 112.46 M181.13 121.82 C181.56 120.82, 181.83 120.03, 183.76 117.09 M180.66 121.2 C181.37 120.38, 182.04 119.45, 184.25 117.33" stroke="#ced4da" stroke-width="0.5" fill="none"></path><path d="M1.14 0.55 C42.89 0.03, 81.1 -1.86, 182.64 -0.18 M-0.85 -0.1 C47.35 -0.68, 94.38 -1.34, 181.26 0.45 M182.3 -0.98 C182.37 37.76, 182.11 77.27, 182.66 122.72 M180.83 -0.35 C181.23 37.05, 180.73 73.31, 181.25 120.29 M180.69 122.69 C133.57 120.1, 82.44 120.06, 1.43 119.98 M180.72 121.4 C116.67 121.27, 50.66 119.7, 0.39 121.86 M0.17 121.6 C-2.17 81.59, -0.79 47, -0.75 -0.76 M0.03 120.25 C-0.61 83.56, -0.23 45.03, -0.69 0.21" stroke="#000000" stroke-width="1" fill="none"></path></g><g stroke-linecap="round"><g transform="translate(67.338706291775 206.9366687019019) rotate(0 90.75152909133229 35.7836980778161)" fill-rule="evenodd"><path d="M0 0 C0 0, 0 0, 0 0 M0 0 C0 0, 0 0, 0 0 M-50.46 60.3 C-26.32 37.37, -8.83 14.13, 5.23 -0.6 M-49.02 62.17 C-27.39 37.76, -7.63 14.43, 5.59 -0.53 M-46.16 63.36 C-30.82 44.69, -15 28.27, 12.04 -0.58 M-45.37 64.81 C-29.08 46.81, -11.78 27.18, 9.64 0.79 M-41.45 65.53 C-20.91 41.98, -0.2 20, 15.68 1.37 M-43.54 66.65 C-22.5 43.16, 0.32 18.88, 16.43 -0.23 M-40.52 70.54 C-15.12 43.61, 8.55 15.75, 19.55 -1.99 M-40.84 70.65 C-27.54 55.46, -15.84 42.38, 21.64 0.69 M-36.05 71.8 C-19.13 49.25, -2.51 29.94, 26.09 1.28 M-34.17 70.74 C-21.81 56.18, -10.69 41.72, 26.74 0.43 M-28.91 69.97 C-10.71 50.99, 7.7 30.76, 30.8 -0.45 M-28.8 70.45 C-15.84 54.17, -1.84 38.31, 31.97 0.81 M-22.29 69.12 C2.04 44.17, 26.95 15.82, 37.74 -1.07 M-23.66 70.27 C-2.2 45.49, 18.43 19.19, 36.64 1.02 M-20.81 69.03 C-5.55 58.44, 5.48 40.88, 41.51 0.43 M-19.6 71.05 C-5.58 54.16, 7.81 39.65, 42.05 -0.06 M-13.22 71.15 C6.76 46.49, 29.99 19.98, 46.77 1.29 M-15.14 71.08 C8.96 44.34, 31.31 16.81, 47.83 0.56 M-9.57 72.15 C7.31 52.96, 23.62 33.89, 54.24 0.16 M-8.81 70.73 C14.66 43.76, 37.4 17.56, 52.84 0.31 M-2.45 69.39 C14.11 49.87, 35.6 29.57, 56.2 -1.58 M-3.55 71.12 C18.87 42.62, 43.62 16.49, 57.55 -0.51 M2.34 70.91 C24.49 44.72, 46.5 18.03, 62.47 1.36 M1.57 71.18 C16.61 54.42, 31.05 36.88, 62.89 -0.41 M5.31 72.72 C18.34 55.76, 33.79 39.82, 67.94 -0.49 M7.72 72.08 C22.43 52.75, 37.74 35.94, 68.63 -0.3 M11.3 72.01 C25.44 54.38, 38.28 37.35, 74.53 -2.2 M13.12 71.54 C29.76 51.66, 46.82 31.56, 74.29 -1.13 M16.92 72.41 C41.91 44.22, 64.48 19.61, 78.74 0.9 M17.52 70.29 C39.55 44.63, 62.35 20.02, 79.45 0.51 M24.59 69.26 C36.67 54.53, 48.85 42.17, 85.62 -1.63 M22.97 70.38 C44.15 46.86, 62.88 23.99, 84.7 0.71 M30.06 70.84 C39.68 57.32, 55.96 39.68, 88.27 2.02 M28.27 71.57 C45.22 51.93, 62.38 32.15, 89.95 0.68 M32.36 71.62 C55.45 46.47, 75.45 22.98, 93.83 -0.93 M33.81 69.71 C56.56 44.22, 79 19.16, 95.35 -0.92 M37.33 69.52 C61.36 42.8, 82.64 18.42, 99.03 1.46 M39.94 71.12 C56.13 51.63, 74.38 30.27, 101.63 0.41 M43.62 71.16 C65.86 45.13, 87.14 25.21, 108.12 -0.96 M43.89 70.97 C61.34 49.73, 79.03 29.85, 107.02 -0.61 M50.19 69.09 C72.71 45.56, 98.68 17.39, 112.43 0.9 M50.07 71.64 C62.74 55.34, 76.51 39.31, 111.56 -0.66 M54.28 71.07 C71.65 53.26, 86.41 33.04, 115.67 1.29 M55.02 71.07 C77.35 45.8, 100.29 19.16, 115.4 1.27 M58.97 69.3 C82.25 43.92, 107.24 16.18, 120.74 1.17 M59.75 71.2 C76.58 51.31, 93.17 32.47, 122.38 0.54 M67.11 69.68 C79.09 57.04, 92.17 40.52, 128.49 1.7 M66.6 70.31 C90.2 41.76, 115.46 14.63, 127.73 -0.52 M72.87 69.04 C86.97 52.94, 100.96 36.35, 131.1 -1.78 M71.65 71.37 C93.23 44.79, 115.05 20.12, 132.27 0.51 M75.74 72.43 C98.66 46.24, 120.41 19.08, 139.52 1.54 M75.56 70.46 C95.64 48.1, 115.57 23.51, 136.8 0.52 M80 70.33 C106.64 40.82, 129.54 13.15, 141.54 -0.88 M81.99 71.11 C102.44 48.54, 121.51 24.13, 142.98 -0.78 M88.71 71.9 C104.79 50.96, 120.02 29.39, 149.22 0.43 M86.41 70.71 C102.49 53.13, 115.68 36.56, 147.68 -0.45 M91.29 70.29 C106.48 55.96, 119.76 40.1, 152.95 -1.93 M92.55 70.85 C106.36 55.17, 119.2 40.03, 153.85 0.04 M97.41 71.79 C116.15 49.19, 130.27 30.94, 156.91 1.14 M97.21 69.71 C121.97 44.4, 144.02 17.67, 158.94 1.18 M104.59 69.18 C121.15 49.68, 135.17 31.6, 165.1 0.39 M102.69 70.44 C125.95 45.19, 148.77 18.86, 163.74 -0.21 M107.46 71.66 C123.1 56.46, 135.2 39.72, 168.81 1.55 M106.94 70.28 C125.27 50.74, 144.96 29.85, 168.75 -0.56 M112.6 70.39 C129.71 52.23, 143.67 32.83, 176.64 -1.48 M113.31 71.18 C131.26 51.16, 147.14 30.45, 175.09 0.75 M117.31 71.97 C141.23 45.16, 165.43 20.04, 182 -1.33 M118.11 70.43 C139.04 48.02, 159.15 23.6, 180.84 -0.18 M122.92 72.43 C138.6 58.02, 150.08 40.34, 183.13 2.31 M124.89 69.78 C148.43 43.81, 170.77 16.75, 183.95 2.86 M130.33 70.53 C145.54 55.49, 158.65 34.41, 187.85 5.92 M128.8 71.84 C148.93 48.69, 169.29 25.31, 185.9 4.52 M133.99 68.94 C153.07 49.65, 174.74 24.89, 187.64 7.95 M135.47 70.42 C150.06 51.66, 166.71 33.12, 188.58 8.78 M141.41 71.54 C155.77 54.66, 169.88 36.47, 193.13 10.04 M139.35 70.92 C157.75 50.09, 176.87 28.83, 190.71 11.36 M147.16 68.67 C159.45 56.1, 171.69 40.29, 192.08 14.26 M144.64 70.7 C160.45 52.79, 175.36 36.01, 194.71 14.06 M148.33 70.33 C163.92 55.06, 178.17 37.46, 196.2 16.64 M149.62 71.48 C163.73 55.06, 177.13 39.79, 196.34 17.39 M154.62 71.5 C169.47 58.26, 182.4 43.93, 199.9 20.67 M155.56 69.67 C168.87 54.18, 184.82 38.13, 198.37 21.2 M159.74 69.34 C175.15 54.72, 192.13 36.68, 201.65 23.25 M161.07 70.79 C172.13 59.44, 183.12 47, 202.77 23.82 M167.47 72.46 C177.55 59.44, 186.46 47.88, 203.47 28 M166.97 69.81 C178.94 56, 193.13 40.63, 205.14 26.41 M171.15 70.15 C181.69 57.75, 193.29 43.13, 208.28 31.24 M170.69 71.54 C182.32 59.09, 191.76 46.16, 206.88 30.09 M175.67 69.67 C185.77 63.21, 190.97 51.39, 210.68 31.47 M177.14 71.02 C188.2 59.17, 198.28 45.7, 210.85 32.57 M180.97 69.45 C191.62 58.96, 198.64 50.57, 211.73 34.88 M183.05 71.87 C194.48 57.12, 204.76 44.52, 213.07 36.78 M188.04 72.39 C193.93 62.33, 198.63 57.42, 215.65 38.13 M187.92 70.67 C198.56 59.51, 209.15 47.2, 214.22 38.75 M194.45 71.06 C198.92 65.09, 204.75 56.56, 216.57 41.8 M192.29 71.35 C198.24 62.73, 204.8 56.92, 217.35 42.2 M200.3 69.01 C207.99 60.64, 214.23 51.46, 221.34 43.93 M198.72 69.55 C206.45 61.41, 214.02 51.81, 219.5 45.21 M203.76 69.94 C205.82 68.16, 213.2 62.45, 222.21 50.76 M204.1 71 C210.02 62.68, 217.64 54.4, 223.28 48.07 M211.03 71.03 C215.94 62.64, 221.68 56.15, 223.61 50.2 M208.53 69.89 C212.76 64.97, 216.54 62.2, 224.54 51.91 M215.91 72.15 C217.71 66.52, 222.9 62.05, 228.93 53.39 M213.72 71.25 C219.73 65.34, 223.07 60.32, 227.98 55.31 M220.74 70.05 C222.85 67.79, 224.53 65.17, 229.36 57.53 M219.18 71.96 C223.14 66.82, 227.33 60.95, 230.67 58.24" stroke="#ced4da" stroke-width="0.5" fill="none"></path><path d="M0.55 1.38 C-14.92 18.29, -33.4 41.25, -50.6 59.73 M-0.1 -0.14 C-11 13.67, -23.9 28.73, -49.96 60.71 M-51.08 60.29 C-47.41 63.98, -43.24 69.08, -39.71 70.4 M-50.65 60.71 C-48.03 62.91, -46.14 65.35, -41.37 70.11 M-39.54 71.29 C45.06 70.55, 131.67 72.28, 221.23 71.3 M-40.56 71.05 C52.3 72.44, 143.48 72.23, 222.72 70.39 M222.45 69.21 C224.03 66.74, 229.47 62.95, 231.37 60.7 M221.51 70.1 C225.65 67.17, 228.54 63.45, 232.04 60.46 M232.58 61.09 C212.77 36.93, 197.14 18.1, 183.28 1.15 M231.97 60.31 C219.43 45.33, 206.88 29.22, 181.34 0.42 M182.06 1.37 C131.85 1.17, 83.14 -1.17, -1.6 1.13 M180.73 0.12 C119.33 -0.48, 54.89 0.68, -0.57 -0.39 M0 0 C0 0, 0 0, 0 0 M0 0 C0 0, 0 0, 0 0" stroke="#000000" stroke-width="1" fill="none"></path></g></g><mask></mask><g stroke-linecap="round" transform="translate(71.4488060850947 89.66786007829705) rotate(0 85.95465554728173 55.617718295300165)"><path d="M0.11 -1.27 L172.6 0.6 L170.53 109.25 L0.71 111.67" stroke="none" stroke-width="0" fill="#fff"></path><path d="M1.38 1.26 C61.26 -1.11, 127.47 -0.65, 171.14 -1.14 M-0.14 0.76 C64.67 0.27, 130.3 0.62, 172.13 0.98 M171.61 -1.21 C171.8 37.18, 173.54 77.4, 172.03 110.28 M172.23 0.03 C171.01 28.72, 170.95 58.18, 171.62 111.53 M173.14 110.36 C119.77 111.79, 70.55 111.69, 1.24 112.27 M172.84 112.19 C127.4 111.34, 81.95 112.82, 0.1 111.72 M-1.59 109.31 C-0.31 68.47, -0.85 23.04, 0.29 0.49 M-0.31 111.89 C0.03 73.89, -0.73 36.35, -0.05 0.51" stroke="#000000" stroke-width="1" fill="none"></path></g><g transform="translate(116.38783663237649 109.28557837359676) rotate(0 41.01562499999997 36)"><text x="41.015625" y="0" font-family="Cascadia, Segoe UI Emoji" font-size="20px" fill="#2f9e44" text-anchor="middle" style="white-space: pre;" direction="ltr" dominant-baseline="text-before-edge">Linux</text><text x="41.015625" y="24" font-family="Cascadia, Segoe UI Emoji" font-size="20px" fill="#2f9e44" text-anchor="middle" style="white-space: pre;" direction="ltr" dominant-baseline="text-before-edge">Gentoo</text><text x="41.015625" y="48" font-family="Cascadia, Segoe UI Emoji" font-size="20px" fill="#2f9e44" text-anchor="middle" style="white-space: pre;" direction="ltr" dominant-baseline="text-before-edge">Node 19</text></g><g stroke-linecap="round"><g transform="translate(137.69596446203298 236.3535957634258) rotate(0 20.215309500105292 9.594716708113083)" fill-rule="evenodd"><path d="M0.58 1.37 L-10.39 20.99 L50.73 18.65 L38.73 1.13 L0.95 0.4" stroke="none" stroke-width="0" fill="#fff" fill-rule="evenodd"></path><path d="M-1.9 -0.63 C-2.01 6.48, -7.23 12.12, -8.49 18.46 M-0.59 0.11 C-3.18 6.39, -5.66 12.77, -9.68 20.57 M-10.64 19.51 C6.29 22.26, 20.43 19.58, 49.7 18.86 M-10.26 19.44 C5.71 19.45, 21.68 20.44, 50.4 19.77 M49.66 19.25 C47.83 11.35, 43.77 5.62, 39.59 -1.53 M51.07 19.55 C47.17 14.24, 43.43 6.97, 41.26 0.08 M40.12 0.95 C26.26 -1.15, 13.98 0.1, 0.75 0.07 M40.4 0.2 C30.53 0.47, 22.07 0.78, 0.05 -0.63 M0 0 C0 0, 0 0, 0 0 M0 0 C0 0, 0 0, 0 0" stroke="#000000" stroke-width="1" fill="none"></path></g></g><mask></mask><g stroke-linecap="round"><g transform="translate(16.706943443694115 266.6008510180136) rotate(0 141.06680930223686 0.7523411802685587)"><path d="M-0.48 0.88 C104.07 1.46, 207.55 3.26, 281 -0.15 M0.08 -0.17 C81.2 1.43, 162.46 1.57, 282.62 -0.37" stroke="#000000" stroke-width="1" fill="none"></path></g></g><mask></mask><g stroke-linecap="round" transform="translate(938.3528974035033 82.90131847782504) rotate(0 49.11881667505736 91.6884577934402)"><path d="M0 0 C0 0, 0 0, 0 0 M0 0 C0 0, 0 0, 0 0 M0.13 12.04 C3.34 8.35, 6.55 4.66, 10.63 -0.03 M0.13 12.04 C4.14 7.43, 8.15 2.82, 10.63 -0.03 M0.27 24.08 C8.31 14.83, 16.36 5.57, 21.26 -0.07 M0.27 24.08 C7.41 15.86, 14.55 7.65, 21.26 -0.07 M-0.26 36.88 C10.55 24.45, 21.35 12.02, 31.89 -0.1 M-0.26 36.88 C12.34 22.39, 24.93 7.91, 31.89 -0.1 M-0.12 48.92 C11.07 36.04, 22.26 23.17, 42.52 -0.14 M-0.12 48.92 C14.17 32.48, 28.45 16.04, 42.52 -0.14 M0.01 60.96 C19 39.11, 38 17.26, 53.15 -0.17 M0.01 60.96 C12.8 46.25, 25.58 31.54, 53.15 -0.17 M0.14 73 C17.7 52.8, 35.26 32.6, 63.78 -0.21 M0.14 73 C18.44 51.95, 36.74 30.9, 63.78 -0.21 M0.28 85.04 C22.16 59.87, 44.05 34.69, 74.41 -0.24 M0.28 85.04 C15.22 67.85, 30.17 50.65, 74.41 -0.24 M-0.25 97.84 C23.39 70.64, 47.04 43.44, 85.04 -0.28 M-0.25 97.84 C24.7 69.13, 49.65 40.43, 85.04 -0.28 M-0.11 109.88 C22.03 84.41, 44.17 58.94, 95.67 -0.31 M-0.11 109.88 C27.81 77.76, 55.73 45.64, 95.67 -0.31 M0.02 121.92 C28.28 89.41, 56.54 56.9, 102.36 4.18 M0.02 121.92 C39.79 76.16, 79.57 30.41, 102.36 4.18 M0.15 133.96 C20.96 110.02, 41.77 86.09, 102.5 16.22 M0.15 133.96 C27.85 102.1, 55.55 70.23, 102.5 16.22 M0.29 146 C24.72 117.89, 49.16 89.77, 102.63 28.27 M0.29 146 C36.94 103.84, 73.59 61.67, 102.63 28.27 M-0.24 158.8 C20.97 134.4, 42.17 110.01, 102.76 40.31 M-0.24 158.8 C24.82 129.97, 49.87 101.15, 102.76 40.31 M-0.1 170.84 C29.52 136.76, 59.14 102.68, 102.9 52.35 M-0.1 170.84 C33.59 132.08, 67.28 93.32, 102.9 52.35 M0.03 182.88 C39.88 137.04, 79.72 91.2, 102.37 65.14 M0.03 182.88 C26.36 152.59, 52.69 122.29, 102.37 65.14 M6.07 188.13 C35.11 154.71, 64.16 121.3, 102.51 77.18 M6.07 188.13 C41.31 147.59, 76.54 107.05, 102.51 77.18 M16.7 188.09 C39.08 162.34, 61.47 136.59, 102.64 89.22 M16.7 188.09 C42.86 157.99, 69.03 127.89, 102.64 89.22 M27.33 188.06 C51.04 160.77, 74.76 133.49, 102.77 101.26 M27.33 188.06 C48.95 163.19, 70.57 138.31, 102.77 101.26 M37.3 188.78 C55.82 167.48, 74.33 146.18, 102.91 113.31 M37.3 188.78 C58.31 164.61, 79.32 140.44, 102.91 113.31 M47.93 188.74 C65.26 168.81, 82.59 148.87, 102.38 126.1 M47.93 188.74 C61.43 173.21, 74.93 157.68, 102.38 126.1 M58.56 188.71 C70.6 174.86, 82.63 161.01, 102.52 138.14 M58.56 188.71 C75.43 169.3, 92.3 149.9, 102.52 138.14 M69.19 188.67 C77.9 178.66, 86.6 168.64, 102.65 150.18 M69.19 188.67 C80.92 175.18, 92.65 161.68, 102.65 150.18 M79.82 188.64 C84.66 183.07, 89.5 177.5, 102.78 162.22 M79.82 188.64 C87.12 180.24, 94.43 171.84, 102.78 162.22 M90.45 188.6 C93.49 185.11, 96.53 181.61, 102.92 174.26 M90.45 188.6 C93.44 185.17, 96.42 181.74, 102.92 174.26 M-0.23 183.18 C-0.23 183.18, -0.23 183.18, -0.23 183.18 M-0.23 183.18 C-0.23 183.18, -0.23 183.18, -0.23 183.18 M12.56 183.7 C8.34 180.03, 4.12 176.36, -0.27 172.55 M12.56 183.7 C8.68 180.32, 4.79 176.94, -0.27 172.55 M24.61 183.57 C19.52 179.15, 14.44 174.73, -0.3 161.92 M24.61 183.57 C19.39 179.04, 14.18 174.51, -0.3 161.92 M36.65 183.43 C24.37 172.76, 12.08 162.08, -0.33 151.29 M36.65 183.43 C26.54 174.65, 16.43 165.86, -0.33 151.29 M48.69 183.3 C29.43 166.56, 10.17 149.81, -0.37 140.66 M48.69 183.3 C32.46 169.19, 16.23 155.08, -0.37 140.66 M60.73 183.17 C47.14 171.35, 33.55 159.54, 0.35 130.68 M60.73 183.17 C47.03 171.26, 33.34 159.36, 0.35 130.68 M73.52 183.69 C44.9 158.81, 16.28 133.93, 0.32 120.05 M73.52 183.69 C55.04 167.62, 36.55 151.55, 0.32 120.05 M85.56 183.56 C56.85 158.6, 28.14 133.64, 0.28 109.42 M85.56 183.56 C52.88 155.14, 20.19 126.73, 0.28 109.42 M97.61 183.42 C62.96 153.31, 28.32 123.19, 0.25 98.79 M97.61 183.42 C66.85 156.69, 36.1 129.95, 0.25 98.79 M102.85 177.39 C66.74 145.99, 30.63 114.6, 0.21 88.16 M102.85 177.39 C71.43 150.07, 40 122.75, 0.21 88.16 M102.82 166.76 C82.26 148.89, 61.71 131.02, 0.18 77.53 M102.82 166.76 C81.63 148.34, 60.44 129.92, 0.18 77.53 M103.54 156.78 C71.32 128.78, 39.11 100.77, 0.14 66.9 M103.54 156.78 C72.22 129.56, 40.9 102.33, 0.14 66.9 M103.5 146.15 C62.82 110.79, 22.14 75.42, 0.11 56.27 M103.5 146.15 C66.97 114.39, 30.44 82.63, 0.11 56.27 M103.47 135.52 C81.41 116.35, 59.35 97.17, 0.08 45.64 M103.47 135.52 C80.26 115.34, 57.05 95.16, 0.08 45.64 M103.44 124.89 C66.12 92.45, 28.8 60.01, 0.04 35.01 M103.44 124.89 C69.36 95.27, 35.28 65.64, 0.04 35.01 M103.4 114.26 C81.61 95.32, 59.83 76.38, 0.01 24.38 M103.4 114.26 C75.92 90.37, 48.44 66.48, 0.01 24.38 M103.37 103.63 C73.96 78.07, 44.55 52.5, -0.03 13.75 M103.37 103.63 C77.33 81, 51.29 58.36, -0.03 13.75 M103.33 93 C81.25 73.81, 59.17 54.61, -0.06 3.12 M103.33 93 C65.55 60.16, 27.78 27.32, -0.06 3.12 M103.3 82.37 C73.22 56.23, 43.15 30.08, 3.68 -4.23 M103.3 82.37 C65.39 49.41, 27.47 16.46, 3.68 -4.23 M103.26 71.74 C78.05 49.82, 52.84 27.91, 15.72 -4.36 M103.26 71.74 C85.27 56.1, 67.27 40.46, 15.72 -4.36 M103.23 61.11 C80.01 40.93, 56.8 20.75, 27.76 -4.5 M103.23 61.11 C79.08 40.12, 54.93 19.13, 27.76 -4.5 M103.19 50.48 C87.14 36.52, 71.08 22.56, 40.55 -3.97 M103.19 50.48 C89.89 38.91, 76.59 27.35, 40.55 -3.97 M103.16 39.85 C85.36 24.38, 67.56 8.9, 52.59 -4.11 M103.16 39.85 C92.14 30.27, 81.12 20.69, 52.59 -4.11 M103.13 29.22 C91.68 19.27, 80.24 9.33, 64.64 -4.24 M103.13 29.22 C89.43 17.32, 75.74 5.42, 64.64 -4.24 M103.09 18.59 C96.7 13.03, 90.31 7.48, 76.68 -4.37 M103.09 18.59 C93.42 10.18, 83.74 1.77, 76.68 -4.37 M103.06 7.96 C98.1 3.65, 93.14 -0.66, 88.72 -4.51 M103.06 7.96 C98.05 3.61, 93.04 -0.74, 88.72 -4.51" stroke="#ced4da" stroke-width="1" fill="none"></path><path d="M0 0 C35.18 0, 70.35 0, 98.24 0 M0 0 C30.46 0, 60.92 0, 98.24 0 M98.24 0 C98.24 54.52, 98.24 109.04, 98.24 183.38 M98.24 0 C98.24 56.31, 98.24 112.62, 98.24 183.38 M98.24 183.38 C59.53 183.38, 20.83 183.38, 0 183.38 M98.24 183.38 C62.56 183.38, 26.87 183.38, 0 183.38 M0 183.38 C0 128.88, 0 74.38, 0 0 M0 183.38 C0 131.61, 0 79.85, 0 0" stroke="#000000" stroke-width="2" fill="none"></path></g><g transform="translate(1083.4313157316928 10) rotate(0 103.33309173583984 30.232307616916387)"><text x="103.33309173583984" y="0" font-family="Cascadia, Segoe UI Emoji" font-size="25.19358968076363px" fill="#2f9e44" text-anchor="middle" style="white-space: pre;" direction="ltr" dominant-baseline="text-before-edge">CI Environment</text><text x="103.33309173583984" y="30.232307616916355" font-family="Cascadia, Segoe UI Emoji" font-size="25.19358968076363px" fill="#2f9e44" text-anchor="middle" style="white-space: pre;" direction="ltr" dominant-baseline="text-before-edge"></text></g><g stroke-linecap="round"><g transform="translate(950.1739783167938 103.18748024787601) rotate(0 37.65775945087705 4.547473508864641e-13)"><path d="M0 0 C12.55 0, 62.76 0, 75.32 0 M0 0 C12.55 0, 62.76 0, 75.32 0" stroke="#000000" stroke-width="2" fill="none"></path></g></g><mask></mask><g stroke-linecap="round"><g transform="translate(949.8139546276822 118.43164076923676) rotate(0 37.65775945087705 4.547473508864641e-13)"><path d="M0 0 C12.55 0, 62.76 0, 75.32 0 M0 0 C12.55 0, 62.76 0, 75.32 0" stroke="#000000" stroke-width="2" fill="none"></path></g></g><mask></mask><g stroke-linecap="round"><g transform="translate(949.7325423494916 136.94769605433794) rotate(0 37.65775945087705 4.547473508864641e-13)"><path d="M0 0 C12.55 0, 62.76 0, 75.32 0 M0 0 C12.55 0, 62.76 0, 75.32 0" stroke="#000000" stroke-width="2" fill="none"></path></g></g><mask></mask><g stroke-linecap="round"><g transform="translate(949.7325423494916 153.82780395756708) rotate(0 37.65775945087705 4.547473508864641e-13)"><path d="M0 0 C12.55 0, 62.76 0, 75.32 0 M0 0 C12.55 0, 62.76 0, 75.32 0" stroke="#000000" stroke-width="2" fill="none"></path></g></g><mask></mask><g stroke-linecap="round" transform="translate(1065.8553165584417 61.778549285684676) rotate(0 30 30)"><path d="M4.99 12.29 C4.99 12.29, 4.99 12.29, 4.99 12.29 M4.99 12.29 C4.99 12.29, 4.99 12.29, 4.99 12.29 M3.45 19.07 C8.38 14.25, 12.12 9.51, 18.39 0.17 M3.28 20.38 C8 16.73, 11.67 11.35, 20 2.76 M0.92 28.61 C7.63 23.36, 12.43 16.17, 25.65 2.01 M2.12 29.13 C7.84 20.02, 14.47 12.38, 24.95 1.51 M1.28 37.04 C11.17 25.54, 20.46 12.81, 29.25 3.65 M1.19 34.83 C8.4 25.95, 16.67 16.1, 29.71 3.28 M3.84 39.41 C12.52 28.67, 22.76 16.71, 35.47 2.15 M1.89 40.04 C13.48 27.17, 23.24 15.81, 35.02 3.96 M6.86 41.98 C16.78 31.74, 26.86 17.85, 38.25 4.76 M4.51 42.81 C12.2 34.66, 21.23 25.58, 39.1 4 M6.28 47.19 C20.87 31.23, 32.61 18.78, 43.96 4.19 M5.79 46.77 C18.69 33.6, 31.21 18.54, 43.26 4.84 M6.46 50.68 C23.4 37.69, 35.58 19.4, 46.2 8.08 M8.54 51.24 C22.76 35.37, 35.88 18.92, 47.59 5.51 M10.91 54.78 C26.15 36.2, 39.62 19.91, 48.4 7.53 M11.31 53.89 C20.05 43.52, 28.08 33.71, 50.42 8.23 M15.73 55 C24.45 46.55, 28.79 38.41, 54.08 11.82 M14.63 56.36 C26.84 41.54, 39.1 27.46, 53.46 12.32 M17.78 56.6 C31.11 44.76, 42.87 30.71, 56.14 14.42 M18.08 57.9 C29.2 44.83, 40.81 31.82, 55.97 15.32 M23.28 56.73 C29.1 48.76, 40.36 39.65, 57.7 16.76 M23.77 58.69 C34.72 44.12, 47.72 31.84, 58.49 17.86 M26 59.26 C32.75 51.53, 39.68 46.02, 60.84 23.49 M27.42 59.78 C38.23 46.31, 49.44 32.25, 58.42 24.05 M29.27 59.99 C39.02 54.77, 44.84 46.66, 57.9 30.16 M31.2 61.39 C39.11 50.92, 48.24 40.15, 58.21 30.31 M36.08 60.93 C44.69 52.56, 50.27 47.52, 59.01 36.53 M36.77 60.38 C46.43 50.39, 53.39 41.21, 59.78 35.77 M43.26 56.53 C50.18 52.08, 50.58 47.38, 61.48 37.03 M44.26 57.54 C50.06 51.28, 55.82 45.64, 60.76 37.93" stroke="#12b886" stroke-width="0.5" fill="none"></path><path d="M21.54 0.4 C27.22 -1.84, 35.36 -1.28, 41.42 1.56 C47.47 4.41, 54.99 11.58, 57.87 17.48 C60.75 23.37, 60.26 30.7, 58.71 36.93 C57.16 43.17, 53.6 51.08, 48.55 54.87 C43.5 58.66, 35.11 60.19, 28.4 59.7 C21.7 59.2, 13.02 56.15, 8.32 51.9 C3.61 47.65, 0.78 40.75, 0.18 34.2 C-0.42 27.64, 0.36 18.26, 4.74 12.57 C9.12 6.88, 21.89 2.01, 26.45 0.05 C31.01 -1.91, 31.77 0.32, 32.11 0.8 M30.89 -0.12 C36.91 -0.87, 43.64 1.52, 48.35 5.85 C53.06 10.18, 58.16 19.31, 59.15 25.87 C60.15 32.42, 57.35 39.84, 54.33 45.19 C51.3 50.55, 46.91 55.79, 41.01 58 C35.11 60.22, 24.89 60.6, 18.91 58.5 C12.93 56.41, 8.12 51.23, 5.14 45.44 C2.16 39.65, 0.04 30.27, 1.03 23.75 C2.01 17.23, 5.99 10.41, 11.05 6.32 C16.11 2.23, 28 -0.04, 31.4 -0.79 C34.79 -1.54, 31.33 1.14, 31.4 1.82" stroke="#000000" stroke-width="1" fill="none"></path></g><g stroke-linecap="round"><g transform="translate(1092.8112990855852 79.43534924183678) rotate(299.4109972382423 4.808800205052194 10.434078708698507)" fill-rule="evenodd"><path d="M-1.01 0.67 L-0.97 9.26 L16.46 11.34 L18.25 19.56 L-10.13 21.01 L-7.17 1.6 L0 0.47" stroke="none" stroke-width="0" fill="#ffffff" fill-rule="evenodd"></path><path d="M-0.22 0.01 C-0.02 2.1, -0.63 4.81, 0.96 10.76 M0.33 0.19 C-0.14 2.12, 0.1 5.17, 0.48 9.87 M-1.72 10.11 C5.63 9.73, 8.13 9.2, 19.47 10.62 M-0.27 10.44 C4.37 10.11, 11.15 10.01, 17.66 10.3 M17.5 10.05 C17.69 14.59, 17.45 18.49, 18.74 21.05 M17.99 10.22 C17.62 13.68, 17.68 15.99, 17.56 20.57 M16.55 19.12 C13.32 19.9, 5.39 19.7, -9.59 19.65 M18.46 20.41 C9.82 20.79, 2.69 20.58, -9.85 19.68 M-7.39 21.12 C-10.02 17.59, -7.28 12.31, -8.32 1.68 M-8.78 19.93 C-8.97 13.27, -8.4 5.53, -8.94 0.75 M-9.42 0.84 C-6.22 -0.34, -4.61 -0.82, -0.1 0.72 M-8.64 0.08 C-6.71 0.17, -4.95 0.13, -0.1 0.03 M0 0 C0 0, 0 0, 0 0 M0 0 C0 0, 0 0, 0 0" stroke="#000000" stroke-width="1" fill="none"></path></g></g><mask></mask><g transform="translate(1153.196022727273 73.99153629867214) rotate(0 73.828125 16.800000000000182)"><text x="73.828125" y="0" font-family="Cascadia, Segoe UI Emoji" font-size="28px" fill="#2f9e44" text-anchor="middle" style="white-space: pre;" direction="ltr" dominant-baseline="text-before-edge">Unit Test</text></g><g stroke-linecap="round" transform="translate(329.1020698051949 82.1681596752951) rotate(0 30 30)"><path d="M13.13 4.79 C13.13 4.79, 13.13 4.79, 13.13 4.79 M13.13 4.79 C13.13 4.79, 13.13 4.79, 13.13 4.79 M4.3 24.66 C8.41 16.19, 11.25 11.25, 18.84 1.56 M1.99 23.33 C7.31 18.13, 11.61 12.73, 19.21 3.68 M4.54 29.02 C8.39 18.48, 19.44 11.8, 28.22 2.91 M2.78 28.06 C9.58 21.45, 17.67 13.37, 27.07 0.55 M4.3 34.02 C12.92 22.53, 26.35 6.88, 33.45 -1.66 M2.85 33.93 C13.22 21.87, 24.12 11.24, 32.58 0 M3.67 41.51 C15.75 27.27, 26.29 13.51, 35.28 2.21 M3.46 39.99 C15.94 26.01, 29.77 10.19, 37.53 1.39 M3.37 46.5 C12.24 34.52, 24.01 25.25, 41.74 2.78 M3.87 45.26 C14.8 33.29, 23.22 23.11, 40.28 2.9 M9.43 48.45 C20.49 34.73, 32.86 17.78, 45.7 5.79 M6.97 47.08 C18.68 34.54, 29.95 20.82, 44.17 6.21 M10.04 51.06 C20.83 40.7, 31.56 28.99, 48.81 5.9 M10.97 50.04 C23.36 35.12, 35.87 19.46, 48.39 7.06 M13.53 51.44 C24.18 41.8, 32.57 30.92, 51.07 9.76 M14.26 52.28 C27.32 36.53, 42.41 19.85, 52.39 9.42 M15.17 53.64 C31.66 38.09, 45.23 20.86, 52.77 13.17 M17.09 56.2 C31.43 38.08, 46.98 22.94, 54.69 11.86 M17.9 59.93 C27.65 50.45, 34.82 42.83, 55.95 16.16 M19.17 58.75 C28.25 49.6, 35.42 38.41, 55.27 17.65 M23.06 59.73 C38.35 46.06, 46.61 30.99, 58.53 20.66 M25.29 57.59 C37.98 44.74, 49.84 29.54, 58.47 21.64 M29.25 59.71 C40.28 45.16, 53.92 32.91, 57.68 23.35 M29.02 58.27 C37.78 49.84, 46.76 40.44, 59.33 24.16 M34.93 60.2 C40.9 53.14, 48.02 43.82, 59.89 29.3 M34.24 59.76 C41.34 50.71, 48.11 43.09, 62.53 27.87 M40.62 61.51 C44.49 55.01, 51.22 47.09, 58.54 39.61 M38.16 59.89 C43.88 53.13, 50.36 48.73, 58.78 38.46" stroke="#12b886" stroke-width="0.5" fill="none"></path><path d="M33.32 -0.72 C39.33 -0.59, 47.06 3.68, 51.49 8.35 C55.91 13.02, 59.43 20.82, 59.87 27.29 C60.31 33.77, 57.96 42.04, 54.13 47.2 C50.3 52.36, 42.98 56.63, 36.89 58.24 C30.8 59.84, 23.41 59.36, 17.59 56.84 C11.77 54.32, 4.79 49.05, 1.95 43.1 C-0.88 37.16, -1.26 27.54, 0.58 21.19 C2.42 14.83, 6.89 8.28, 12.98 4.96 C19.08 1.64, 32.29 1.62, 37.14 1.28 C42 0.94, 42.11 2.33, 42.1 2.9 M19.73 1.52 C25.1 -1.06, 33.82 -1.13, 39.82 1.02 C45.82 3.16, 52.34 8.75, 55.73 14.4 C59.12 20.05, 61.15 28.53, 60.18 34.92 C59.21 41.31, 54.8 48.39, 49.91 52.74 C45.01 57.08, 37.29 61.05, 30.82 61.01 C24.34 60.98, 16.01 56.88, 11.05 52.53 C6.1 48.18, 2.13 41.03, 1.11 34.92 C0.08 28.81, 1.94 21.54, 4.89 15.86 C7.84 10.19, 16.37 2.98, 18.79 0.88 C21.21 -1.21, 19.27 2.54, 19.4 3.29" stroke="#000000" stroke-width="1" fill="none"></path></g><g stroke-linecap="round"><g transform="translate(356.05805233233866 99.8249596314472) rotate(299.4109972382423 4.276178991448091 10.645538010902328)" fill-rule="evenodd"><path d="M-1.74 0.51 L1.8 8.54 L16.2 9.85 L17.54 18.18 L-7.9 19.73 L-9.51 1.03 L-0.63 -1.12" stroke="none" stroke-width="0" fill="#ffffff" fill-rule="evenodd"></path><path d="M0.21 0.5 C-0.13 2.77, -0.94 5.06, -0.79 9.98 M-0.2 -0.44 C0.35 2.35, -0.34 5.28, -0.29 9.75 M0.41 9.91 C4.38 10.23, 11.34 8.89, 19.22 9.87 M-0.43 9.94 C5.32 10.42, 11.11 10.35, 17.86 10.41 M18.34 9.71 C18.59 14.19, 17.43 16.74, 17.69 20.64 M18.17 10.08 C18.14 12.4, 17.55 14.99, 18.23 20.02 M16.82 21.9 C11.79 18.77, 0.61 20.22, -10.67 19.15 M17.17 20.38 C13.21 20.73, 6.98 19.43, -9.66 19.91 M-8.95 21.85 C-9.6 15.44, -7.87 10.83, -8.33 -0.23 M-8.65 20.41 C-8.24 15.86, -9.99 10.65, -8.02 0.05 M-8.64 -0.59 C-5.73 -0.75, -2.64 0.45, 0.82 0.46 M-8.85 0.38 C-6 -0.2, -3.96 0.31, -0.05 -0.09 M0 0 C0 0, 0 0, 0 0 M0 0 C0 0, 0 0, 0 0" stroke="#000000" stroke-width="1" fill="none"></path></g></g><mask></mask><g transform="translate(416.4427759740262 94.38114668828257) rotate(0 73.828125 16.800000000000182)"><text x="73.828125" y="0" font-family="Cascadia, Segoe UI Emoji" font-size="28px" fill="#2f9e44" text-anchor="middle" style="white-space: pre;" direction="ltr" dominant-baseline="text-before-edge">Unit Test</text></g><g stroke-linecap="round" transform="translate(329.1020698051947 156.1941337012695) rotate(0 30 30)"><path d="M12.98 4.66 C12.98 4.66, 12.98 4.66, 12.98 4.66 M12.98 4.66 C12.98 4.66, 12.98 4.66, 12.98 4.66 M2.21 23.68 C8.85 17.96, 12.25 14.61, 20.85 4.78 M2.29 21.52 C6.3 18.56, 9.91 13, 20.14 2.59 M4.93 27.16 C7.43 22.4, 13.75 17.31, 27.74 1.78 M3 27.13 C9.63 20.93, 16.21 12.2, 25.44 0.94 M5.66 33.01 C12.83 24.08, 23.74 11.43, 31.75 -0.83 M3.64 32.77 C12.8 24.19, 20.18 14.24, 33.21 -0.1 M2.34 37.59 C10.2 30.38, 17.59 25.4, 34.56 2.87 M3.61 40.18 C10.06 30.95, 17.97 24.53, 34.87 2.15 M3.27 44.71 C15.85 32.58, 26.02 19.35, 40.86 4.65 M5.45 43.9 C13.28 34.16, 23.01 23.29, 39.48 5.75 M7.81 44.89 C20.99 29.09, 35.25 15.87, 44.59 5.55 M8.44 47.7 C20.73 32.73, 31.63 20.35, 42.88 6.69 M10.6 51.85 C18.42 40.74, 27.7 32.68, 48.28 8.04 M9.65 50.21 C19.64 40.82, 27.8 32.13, 47.97 8.12 M14.1 52.72 C27.6 33.85, 41.11 20.38, 51.79 10.77 M13.43 52.25 C23.19 42.29, 32.18 31.63, 52.22 8.32 M14.86 54.88 C28.77 40.42, 42.81 28.63, 54.46 11.37 M16.48 56.74 C31 40.09, 45.34 23.18, 54.78 12.51 M16.81 59.86 C32.09 46.11, 44.51 29.5, 55.75 16.62 M18.08 59.81 C29.47 46.22, 41.03 31.32, 55.95 16.26 M24.04 58.63 C36.49 47.35, 49.53 33.26, 56.05 18.28 M23.67 59.16 C33.13 48.38, 44.79 35.55, 58.89 20.34 M26.3 59.14 C35.05 53.34, 38.47 47.72, 58.8 23.28 M27.33 60.76 C34.73 52.07, 41.35 46.25, 60.59 24.13 M32.34 59.77 C41.48 50.37, 51.33 40.5, 60.5 27.02 M33.85 59.37 C43.07 50.46, 52.08 40.83, 62.77 27.96 M37.99 57.85 C47.57 51.01, 55.26 40.22, 57.62 35.85 M39.84 60.23 C46.48 51.47, 53.8 42.42, 59.66 36.78" stroke="#12b886" stroke-width="0.5" fill="none"></path><path d="M32.63 0.4 C38.72 0.56, 45.61 3.46, 50.31 7.9 C55.02 12.34, 60.12 20.51, 60.88 27.02 C61.64 33.53, 58.58 41.63, 54.89 46.95 C51.19 52.27, 45.1 57.18, 38.7 58.96 C32.3 60.74, 22.33 60.41, 16.48 57.64 C10.63 54.87, 6.13 48.34, 3.6 42.33 C1.07 36.32, -0.2 27.82, 1.32 21.59 C2.85 15.36, 6.89 8.61, 12.73 4.95 C18.57 1.29, 32.1 0.33, 36.38 -0.36 C40.67 -1.05, 38.62 0.03, 38.44 0.82 M28.18 -0.61 C34.07 -1.64, 41.18 2.06, 46.45 5.93 C51.72 9.81, 57.92 16.46, 59.81 22.64 C61.7 28.81, 60.71 37.21, 57.79 42.97 C54.88 48.73, 48.18 54.6, 42.32 57.19 C36.46 59.79, 28.94 60.07, 22.64 58.55 C16.33 57.04, 8.44 53.23, 4.49 48.13 C0.54 43.03, -1.64 34.45, -1.05 27.97 C-0.45 21.48, 3.23 13.79, 8.05 9.2 C12.87 4.6, 24.89 1.83, 27.88 0.41 C30.86 -1.01, 26.24 0.2, 25.97 0.67" stroke="#000000" stroke-width="1" fill="none"></path></g><g stroke-linecap="round"><g transform="translate(356.05805233233843 173.8509336574216) rotate(299.4109972382423 3.8282939468438713 10.447816230683202)" fill-rule="evenodd"><path d="M-1 -0.21 L-1.82 9.59 L17.19 9.14 L19.68 18.73 L-10.75 21.37 L-8.43 -1.36 L-1.87 0.64" stroke="none" stroke-width="0" fill="#ffffff" fill-rule="evenodd"></path><path d="M0.18 -0.72 C-0.91 2.1, 0.34 3.26, -0.89 11.03 M0.47 -0.01 C-0.39 2.87, 0.43 5.11, 0.15 9.71 M-1.58 10.37 C3.54 10.44, 12.24 9.55, 18.31 11.29 M0.37 10.56 C6.93 10.42, 13.42 9.78, 17.98 10.16 M17.17 10.29 C17.46 12.91, 18.32 15.61, 17.08 20.03 M17.52 9.72 C18.44 11.83, 17.73 14.17, 18.13 19.92 M16.91 18.46 C12.5 21.56, 5.06 20.32, -10.65 21.69 M17.6 19.49 C11.98 20.57, 7.64 19.96, -8.31 20.74 M-9.07 19.44 C-10.27 10.77, -10.12 6.18, -10.63 -0.79 M-8.06 20.26 C-7.95 11.9, -9.16 4.76, -8.77 0.61 M-9.51 -0.22 C-5.85 -0.79, -2.65 0.47, -0.47 -0.52 M-8.57 -0.4 C-6.54 -0.17, -5.03 0.22, 0.3 -0.14 M0 0 C0 0, 0 0, 0 0 M0 0 C0 0, 0 0, 0 0" stroke="#000000" stroke-width="1" fill="none"></path></g></g><mask></mask><g transform="translate(424.64590097402606 168.40712071425696) rotate(0 65.625 16.800000000000182)"><text x="65.625" y="0" font-family="Cascadia, Segoe UI Emoji" font-size="28px" fill="#2f9e44" text-anchor="middle" style="white-space: pre;" direction="ltr" dominant-baseline="text-before-edge">E2E Test</text></g><g transform="translate(1167.1134334415583 149.83569214282943) rotate(0 65.625 16.800000000000182)"><text x="65.625" y="0" font-family="Cascadia, Segoe UI Emoji" font-size="28px" fill="#2f9e44" text-anchor="middle" style="white-space: pre;" direction="ltr" dominant-baseline="text-before-edge">E2E Test</text></g><g stroke-linecap="round" transform="translate(1072.8683035714284 211.64867915581453) rotate(0 30 30)"><path d="M5.63 11.52 C5.63 11.52, 5.63 11.52, 5.63 11.52 M5.63 11.52 C5.63 11.52, 5.63 11.52, 5.63 11.52 M3.69 20.75 C5.53 16.99, 13.67 10.37, 16.71 5.36 M3.44 20.43 C5.73 16.2, 9.6 12.5, 17.25 4.99 M-0.76 28.69 C6.23 26.45, 10.1 20.68, 24.15 1.37 M-1 29.52 C6.27 22.71, 12.47 15.49, 22.54 3.8 M2.49 35.77 C6.92 24.44, 17.33 15.92, 26.61 4.76 M1.66 35.32 C8.14 27.26, 16.51 17.76, 27.79 3.84 M4.94 39.9 C12.37 29.85, 21.33 18.81, 32.29 5.27 M4.1 38.28 C9.17 30.5, 15.17 25.23, 34.41 4.66 M3.8 41.16 C15.75 29.25, 30.03 13.02, 37.72 4.59 M5.75 42.83 C13.14 33.63, 19.45 26.16, 39.34 3.43 M8.67 47.29 C21.35 29.8, 34.2 16, 44.4 3.59 M6.57 45.71 C19.41 33.79, 29.84 18.97, 42.75 5.03 M10.05 48.98 C20.65 37.12, 32.47 23.17, 48.06 5.33 M10.67 50.15 C19.67 37.44, 32.07 24.32, 46.4 7.94 M9.99 53.83 C23.74 41.6, 36.47 26.36, 47.81 9.01 M12.14 52.73 C25.23 37.53, 38.65 21.51, 49.98 9.11 M16.61 54.86 C28.6 39.86, 42.72 24.64, 51.47 13.55 M16.63 54.71 C27.29 41.54, 41.32 27.41, 51.54 12.33 M20.14 56.07 C32.58 41.54, 44.85 28.29, 56.83 16.03 M18.56 56.52 C27.22 46.82, 36.43 36.89, 55.83 15.63 M22.71 57.08 C31.64 48.94, 42.4 40.16, 58.21 17.21 M24.02 59.27 C31.49 49.32, 38.2 40.14, 58.07 17.64 M24.98 59.24 C32.17 53.48, 39.86 45.56, 57.7 22.3 M26.52 59.66 C39.54 47.26, 50.93 31.07, 58.25 23.2 M30.06 61.55 C40.85 50.54, 49.56 41.95, 61.06 28.41 M30.02 62.89 C39.11 53.59, 46.95 42.96, 60.16 29.73 M37.37 62.43 C43 53.97, 47.99 50.17, 61.02 34.34 M35.97 61.23 C41.64 53.68, 48.48 47.49, 59.87 33.91" stroke="#12b886" stroke-width="0.5" fill="none"></path><path d="M42.17 3.03 C47.73 5.5, 54.54 12.02, 57.4 17.74 C60.26 23.45, 61.2 31.04, 59.33 37.33 C57.46 43.63, 51.53 51.73, 46.19 55.5 C40.86 59.28, 33.45 60.68, 27.32 59.99 C21.2 59.3, 14.13 55.82, 9.43 51.36 C4.72 46.91, -0.27 39.89, -0.91 33.26 C-1.55 26.62, 1.78 16.86, 5.6 11.55 C9.42 6.23, 14.65 2.26, 22 1.38 C29.35 0.49, 44.15 4.32, 49.69 6.25 C55.23 8.18, 55.65 12.57, 55.23 12.96 M24.69 0.41 C30.44 -0.96, 37.33 0.3, 43.08 3.61 C48.83 6.93, 56.6 14.3, 59.18 20.31 C61.76 26.32, 60.71 33.73, 58.54 39.67 C56.38 45.62, 51.88 52.69, 46.2 56.01 C40.52 59.33, 31.02 60.51, 24.45 59.57 C17.87 58.64, 10.82 55.07, 6.75 50.39 C2.68 45.71, 0.25 38.04, 0.01 31.48 C-0.22 24.92, 1.33 16.35, 5.34 11.01 C9.34 5.68, 20.66 1.09, 24.04 -0.54 C27.42 -2.18, 25.66 0.4, 25.62 1.19" stroke="#000000" stroke-width="1" fill="none"></path></g><g stroke-linecap="round"><g transform="translate(1099.824286098572 229.30547911196663) rotate(299.4109972382423 4.320686680851168 10.213054941214523)" fill-rule="evenodd"><path d="M-1.16 1.37 L-1.92 8.75 L18.55 11.69 L17.26 19.1 L-10.85 18.8 L-7.22 1.92 L1.53 1.35" stroke="none" stroke-width="0" fill="#ffffff" fill-rule="evenodd"></path><path d="M0.9 0.73 C-0.93 1.52, 0.11 4.76, 0.09 10.48 M0.15 0.07 C0.38 2.43, -0.57 4.96, -0.02 9.56 M-1.79 11.75 C3.53 9.3, 7 9.29, 17.6 8.45 M-0.01 10.79 C6.99 10.23, 12.5 10.48, 18.19 9.35 M17.93 10.48 C17.09 12.76, 17.91 15.15, 18.93 20.06 M18.38 10.47 C18.32 12.76, 18.44 14.6, 17.6 19.69 M18.04 18.47 C10.53 19.09, 7.32 18.47, -6.99 20.76 M18.13 19.17 C8.39 20.02, -2.96 20.69, -8.04 19.96 M-8.63 18.68 C-7.68 13.51, -10.58 7.95, -10.27 0.27 M-9.35 20.11 C-9.41 13.07, -8.49 8.69, -8.95 0.98 M-8.47 0.53 C-6.74 -0.72, -2.72 -0.23, 0.21 -0.28 M-8.55 0.07 C-6.76 0.13, -5.66 -0.32, 0.12 -0.15 M0 0 C0 0, 0 0, 0 0 M0 0 C0 0, 0 0, 0 0" stroke="#000000" stroke-width="1" fill="none"></path></g></g><mask></mask><g transform="translate(1159.1081574675322 221.26426357139917) rotate(0 147.65625 16.800000000000182)"><text x="147.65625" y="0" font-family="Cascadia, Segoe UI Emoji" font-size="28px" fill="#2f9e44" text-anchor="middle" style="white-space: pre;" direction="ltr" dominant-baseline="text-before-edge">Accessibility Test</text></g><g stroke-linecap="round" transform="translate(334.81635551948034 232.03828954542496) rotate(0 30 30)"><path d="M3.57 16.36 C3.57 16.36, 3.57 16.36, 3.57 16.36 M3.57 16.36 C3.57 16.36, 3.57 16.36, 3.57 16.36 M2.86 24.92 C5.66 17.54, 7.86 15.96, 18.4 3.58 M2.94 23.04 C5.73 19.07, 9.21 15.35, 19 4.58 M3.12 28.76 C7.85 24.17, 12.59 19.82, 23.99 4.54 M2.79 30.66 C9.4 21.01, 17.52 13.06, 24.89 3.52 M2.33 38.34 C11.16 22.92, 22.29 14.02, 31.91 3.91 M1.8 37.23 C8.54 27.76, 16.07 19.57, 30.18 3.95 M5.41 39.42 C16.44 26.62, 26.97 16.09, 35.64 4.6 M4.8 39.74 C16.81 25.37, 28.54 12.77, 36.7 2.91 M6.27 42.28 C17 32.15, 24.69 21.88, 40.82 1.98 M6.03 42.11 C20.09 28.41, 33.3 12.48, 40.99 4.18 M9.51 45.81 C21.07 36.86, 28.6 23.82, 43.72 4.33 M9.96 46.21 C19.61 34.22, 30.78 21.78, 43.84 5.62 M11.78 49.12 C24.38 34.25, 35.4 22.69, 49.89 6.85 M11.74 50.23 C20.85 39.14, 31.72 25.58, 48.1 8.05 M13.67 51.48 C21.86 41.9, 30.21 31.39, 52.79 9.17 M14.21 53.6 C24.79 41.17, 34.42 29.85, 50.42 9.66 M14.31 57.83 C22.95 47.37, 34.57 36.48, 56.27 12.37 M15.68 57.35 C27.23 44.23, 37.7 32, 54.87 11.84 M19.21 58.3 C34.52 44.17, 46.74 28.15, 57.25 12.95 M20.84 58.46 C29.01 47.69, 37.85 37.53, 58.72 14.12 M25.68 60.2 C32.84 52.3, 38.18 41.98, 59.6 20.6 M23.31 58.8 C33.8 48.45, 43.76 38.07, 59.48 18.71 M30.58 59.04 C37.15 48.81, 48.28 36.33, 61.34 22.4 M28.57 60.92 C37.74 49.77, 48.24 39.32, 61.18 23.69 M31.65 61.47 C42.4 49.45, 50.61 38.49, 61.98 28.66 M34.33 62 C39.37 52.67, 47.97 45.5, 60.87 27.6 M41.32 55.07 C49.86 50.33, 56.21 42.99, 62.37 36.35 M43.54 56.4 C49.12 49.57, 55.29 43.22, 61.59 35.83" stroke="#12b886" stroke-width="0.5" fill="none"></path><path d="M17.4 3.65 C22.89 0.68, 32.3 -0.23, 38.62 1.16 C44.93 2.55, 51.62 6.54, 55.28 11.97 C58.94 17.4, 61.34 27.1, 60.6 33.74 C59.87 40.39, 55.4 47.34, 50.87 51.83 C46.33 56.33, 39.62 60.15, 33.42 60.71 C27.22 61.27, 18.92 59.07, 13.64 55.19 C8.37 51.3, 3.47 43.8, 1.74 37.38 C0.02 30.97, -0.79 22.81, 3.28 16.69 C7.35 10.58, 20.74 3.44, 26.15 0.71 C31.55 -2.03, 35.78 -0.12, 35.71 0.28 M15.69 2.29 C21.02 -0.59, 31.46 -0.73, 38.09 0.95 C44.73 2.64, 52.06 7.36, 55.5 12.4 C58.95 17.44, 59.17 24.78, 58.74 31.19 C58.31 37.6, 57.14 45.97, 52.94 50.85 C48.74 55.74, 40.18 59.6, 33.55 60.51 C26.91 61.41, 18.54 59.93, 13.15 56.29 C7.76 52.65, 3.17 44.94, 1.19 38.67 C-0.79 32.41, -1.23 24.53, 1.26 18.71 C3.75 12.89, 13.4 6.36, 16.13 3.74 C18.85 1.13, 17.15 2.77, 17.59 3.04" stroke="#000000" stroke-width="1" fill="none"></path></g><g stroke-linecap="round"><g transform="translate(361.7723380466241 249.69508950157706) rotate(299.4109972382423 5.103702098058648 10.083076546553457)" fill-rule="evenodd"><path d="M-1 1.9 L1.36 11.81 L17.47 10.64 L18.04 21.7 L-10.53 21.51 L-8.52 0.13 L0.43 -0.38" stroke="none" stroke-width="0" fill="#ffffff" fill-rule="evenodd"></path><path d="M-0.86 0.04 C0.62 3.52, 1.01 7.88, 0.09 10.64 M-0.11 0.25 C0.56 2.45, 0.57 4.44, 0.38 9.93 M0.82 11.23 C4.72 8.59, 11.86 8.38, 18.96 8.87 M0.07 10.84 C4.34 9.19, 8.01 10.64, 18.03 10.16 M17.91 10.17 C17.08 13.99, 17.55 17.39, 18.37 19.65 M17.61 10.18 C18.39 13.29, 17.69 16.65, 17.82 20.48 M19.83 18.41 C8.23 21.98, -1.7 21.86, -8.48 18.4 M18.64 20.94 C11.32 20.51, 4.4 18.81, -9.62 20.19 M-7.8 19.03 C-8.3 13.77, -9.26 8.08, -9.2 -0.88 M-8.43 19.68 C-8.59 13.59, -8.56 8.12, -8.61 0.45 M-8.59 -0.57 C-6.24 0.66, -4.24 -0.76, 0.87 -0.5 M-8.87 0.25 C-5.91 0.23, -3.41 -0.48, -0.02 0.29 M0 0 C0 0, 0 0, 0 0 M0 0 C0 0, 0 0, 0 0" stroke="#000000" stroke-width="1" fill="none"></path></g></g><mask></mask><g transform="translate(421.05620941558436 241.6538739610096) rotate(0 147.65624999999994 16.800000000000182)"><text x="147.65625" y="0" font-family="Cascadia, Segoe UI Emoji" font-size="28px" fill="#2f9e44" text-anchor="middle" style="white-space: pre;" direction="ltr" dominant-baseline="text-before-edge">Accessibility Test</text></g><g transform="translate(123.04687500000011 13.856471363603305) rotate(0 131.25 16.800000000000182)"><text x="131.25" y="0" font-family="Cascadia, Segoe UI Emoji" font-size="28px" fill="#2f9e44" text-anchor="middle" style="white-space: pre;" direction="ltr" dominant-baseline="text-before-edge">Dev Environment </text></g><g stroke-linecap="round" transform="translate(1068.4527191558445 135.80452331165725) rotate(0 30 30)"><path d="M4.37 15.72 C4.37 15.72, 4.37 15.72, 4.37 15.72 M4.37 15.72 C4.37 15.72, 4.37 15.72, 4.37 15.72 M3.47 22.29 C8.17 17.84, 12.38 10.89, 21.03 3.08 M3.17 23.27 C6.69 20.05, 10.59 15.88, 21.36 2.72 M1.78 31.4 C10.15 21.71, 20.44 9.16, 24.6 4.45 M1.44 30.28 C9.76 21.68, 16.12 14.14, 26.31 2.34 M1.6 36.09 C14.69 23.53, 23.5 10.34, 31.33 3.34 M3.32 35.69 C11.42 24.2, 21.62 14.22, 30.24 3.61 M5.51 39.48 C15.24 29.38, 22.98 17.04, 35.49 3.96 M4.67 40.33 C17.36 26.08, 28.5 13.46, 37.27 3.23 M6.17 42.62 C12.4 35.8, 20.17 25.1, 40.12 2.25 M6.93 44.24 C15.23 34.61, 22.91 24.31, 41.9 2.77 M10.27 48.47 C24.44 29.64, 38.22 15.56, 46.18 4.28 M8.22 47.57 C15.77 37.6, 24.19 29.66, 45.33 6 M10.44 50.44 C20.51 38.82, 28.58 29.36, 47.11 7.31 M10.41 51.95 C20.33 40.05, 28.79 30.08, 47.13 8.78 M13.18 55.84 C22.11 41.41, 32.2 31.1, 50.84 10.54 M12.06 54.82 C23.49 43.33, 34.65 30.95, 50.36 10.7 M14.74 58.42 C29.37 44.44, 39.32 30.55, 53.63 12.83 M15.55 56.87 C27.19 45.61, 36.99 34.16, 54.6 13.7 M19.77 55.88 C33.33 43.32, 47.97 24.54, 56.72 16.49 M20.8 58.39 C36.25 40.87, 49.67 24.35, 57.65 14.7 M25.2 57.85 C32.12 47.9, 43.48 37.53, 58.92 22.52 M24.27 60.14 C35.57 47.65, 45.38 37.3, 57.27 21.72 M30.78 58.85 C35.9 54.11, 42.51 45.55, 57.04 25.32 M28.65 61.21 C37.71 50.22, 48.04 38.68, 58.76 27.48 M33.76 60.37 C37.84 56.34, 43.58 46.43, 57.98 33.73 M32.62 61.95 C43.01 50.69, 52.72 39.3, 58.13 33.3 M41.98 60.79 C44.45 53.39, 49.92 50.86, 61.89 35.26 M41.12 58.74 C45.33 53.91, 49.76 49.21, 60.43 36.24" stroke="#fa5252" stroke-width="0.5" fill="none"></path><path d="M40.85 1.92 C46.82 3.7, 53.47 9.56, 56.43 15.14 C59.38 20.71, 59.71 29.21, 58.6 35.37 C57.49 41.54, 54.52 48.04, 49.77 52.12 C45.02 56.2, 36.7 59.71, 30.08 59.85 C23.46 60, 14.86 57.2, 10.02 52.99 C5.19 48.77, 2.02 40.76, 1.07 34.55 C0.13 28.34, 1.32 21.3, 4.37 15.72 C7.41 10.13, 12.45 3.14, 19.35 1.04 C26.24 -1.06, 40.85 2.18, 45.73 3.14 C50.62 4.1, 49.01 6.3, 48.64 6.8 M28.47 1.21 C34.48 0.32, 41.96 0.95, 47.1 4.55 C52.25 8.15, 57.81 16.64, 59.35 22.81 C60.9 28.99, 59.23 36.06, 56.38 41.6 C53.53 47.15, 47.77 53.22, 42.28 56.07 C36.79 58.93, 29.31 60.25, 23.42 58.72 C17.53 57.2, 10.69 52.1, 6.97 46.91 C3.24 41.72, 0.59 33.72, 1.1 27.58 C1.61 21.44, 5.46 14.65, 10.01 10.05 C14.56 5.45, 25.36 1.49, 28.38 -0.01 C31.4 -1.5, 28.08 0.53, 28.13 1.08" stroke="#000000" stroke-width="1" fill="none"></path></g><g stroke-linecap="round"><g transform="translate(1091.8970685147256 159.0614211813272) rotate(314.8018799663395 6.650614841716788 6.705831739196128)" fill-rule="evenodd"><path d="M0.94 1.96 L-0.15 -12.86 L13.08 -11.88 L14.65 -0.16 L25.29 0.45 L26.35 11.32 L12.36 14.52 L13.21 26.8 L-1.84 25.11 L-1.51 14.53 L-14.67 14.04 L-11.71 0.04 L-0.54 0.38" stroke="none" stroke-width="0" fill="#ffffff" fill-rule="evenodd"></path><path d="M-0.43 -0.15 C0.5 -4.03, 0.43 -8.22, -1.18 -13.09 M-0.1 -0.35 C0.22 -4.32, -0.16 -9.34, 0.59 -13.41 M0.45 -13.27 C3.35 -13.4, 5.76 -12.66, 12.01 -11.87 M0.19 -12.67 C4.45 -13.33, 9.42 -13.4, 13.45 -13.17 M12.99 -11.81 C13.94 -6.83, 12.87 -1.97, 13.34 1.13 M13.68 -13.25 C12.61 -8.78, 12.84 -4.8, 13.58 -0.57 M14.24 0.37 C16.78 -0.66, 22.19 -0.83, 26.49 -0.34 M12.5 0.22 C16.71 -0.15, 21.48 -0.67, 26.22 -0.04 M26.33 0.49 C25.49 4.67, 26.89 9.2, 27.15 13.29 M25.57 -0.03 C26.4 3.74, 26.71 8.22, 26.03 12.52 M27.38 12.46 C20.48 13.72, 15.29 12.75, 12.98 13.23 M26.7 12.6 C22.98 13.16, 19.82 12.49, 13.03 13.09 M13.54 13.55 C13.11 16.05, 12.46 21, 13.58 24.88 M13.05 13.31 C12.93 17.82, 13.22 21.65, 12.78 25.63 M14.2 26.1 C9.07 27.12, 3.83 26.32, 1.27 26.7 M13.24 26 C8.16 25.57, 4.44 25.57, -0.28 25.52 M0.17 26.82 C0.47 22.74, 0.83 18.28, 0.19 13.21 M0.18 26.56 C0.25 23.11, -0.47 19.55, 0.45 13.48 M0.62 12.4 C-2.58 12.82, -7.03 14.02, -13.33 13.74 M-0.42 13.04 C-4.49 13.16, -8.86 12.61, -13 12.8 M-12.24 13.03 C-12.33 10.08, -13.3 5.54, -12.12 -0.88 M-12.84 13.16 C-12.66 8.39, -13.64 4.11, -13.37 0 M-14.07 -0.93 C-9.47 0.34, -5.28 0.99, 0.46 -0.6 M-13.29 -0.56 C-9.03 0.5, -5.92 0.03, -0.04 -0.28 M0 0 C0 0, 0 0, 0 0 M0 0 C0 0, 0 0, 0 0" stroke="#000000" stroke-width="1" fill="none"></path></g></g><mask></mask><g transform="translate(999.802150974026 328.1421856493225) rotate(0 180.46875 16.800000000000182)"><text x="180.46875" y="0" font-family="Cascadia, Segoe UI Emoji" font-size="28px" fill="#2f9e44" text-anchor="middle" style="white-space: pre;" direction="ltr" dominant-baseline="text-before-edge">E2E Tests Fails On CI </text></g><g transform="translate(10 352.4278999350363) rotate(0 254.296875 16.800000000000182)"><text x="254.296875" y="0" font-family="Cascadia, Segoe UI Emoji" font-size="28px" fill="#2f9e44" text-anchor="middle" style="white-space: pre;" direction="ltr" dominant-baseline="text-before-edge">E2E Tests Passes On Dev Laptop </text></g></svg>