<svg version="1.1" xmlns="http://www.w3.org/2000/svg" viewBox="0 0 1353.0042605185215 269.9482730079121" width="2706.008521037043" height="539.8965460158242">
  <!-- svg-source:excalidraw -->
  
  <defs>
    <style class="style-fonts">
      @font-face {
        font-family: "Virgil";
        src: url("https://excalidraw.com/Virgil.woff2");
      }
      @font-face {
        font-family: "Cascadia";
        src: url("https://excalidraw.com/Cascadia.woff2");
      }
    </style>
    
  </defs>
  <rect x="0" y="0" width="1353.0042605185215" height="269.9482730079121" fill="#ffffff"></rect><g stroke-linecap="round" transform="translate(61.53478559628013 66.14262202293457) rotate(0 90.7417657637541 60.49451050916923)"><path d="M0 0 C0 0, 0 0, 0 0 M0 0 C0 0, 0 0, 0 0 M-0.65 6.96 C2.19 4, 3.18 1.82, 4.34 0.87 M-0.34 6.79 C0.68 4.99, 1.67 3.38, 4.8 0.21 M-0.58 10.72 C3.71 8.69, 6.98 3.61, 9.79 -1.34 M-0.53 12.04 C2.9 7.89, 7.45 4.88, 11.29 -0.55 M0.49 19.66 C6.51 11.47, 12.34 4.82, 16.25 0.94 M-0.11 18.51 C3.84 14.34, 7.62 10.61, 15.74 1.01 M-1.49 24.61 C5.13 20.16, 9.8 11.08, 22.5 0.2 M0.43 24.12 C7.25 15.43, 13.86 8.86, 20.79 0.66 M-0.89 30.69 C8.78 18.62, 21.55 5.1, 28 0.6 M0.56 30.18 C9.59 19.4, 18.58 7.34, 27.12 1.29 M-0.74 37.81 C10.63 20.84, 24.72 7.98, 31 1.52 M0.6 37.09 C9.27 24.36, 20.08 12.64, 31.19 -0.43 M1.83 41.79 C13.74 27.56, 28.73 11.33, 35.78 -1.43 M-0.78 42.94 C11.8 29.8, 23.16 16.65, 37.83 0.33 M-1.56 47.93 C11.55 32.12, 27.64 17.72, 42.68 0.79 M-0.92 48.19 C12.04 34.8, 24.23 21.31, 43.1 0.8 M-1.27 52.96 C13.38 37.46, 29.53 24.57, 47.6 -0.08 M1.08 54.75 C18.73 33.31, 37.84 12.03, 46.64 1.09 M1.92 62.31 C16.85 43.61, 31.94 25.43, 51.99 -0.35 M0.71 60.39 C11.89 46.83, 24.95 32.24, 52.57 0.5 M-1.89 68.09 C12.88 52.17, 23.07 39.35, 58.36 0.85 M0.28 67.81 C18.86 46.36, 39.08 23.22, 57.86 -0.06 M-0.9 74.63 C20.44 47.58, 43.2 24.35, 64.27 -1.15 M0.57 73.31 C18.85 50.96, 39.05 27.46, 63.2 0.28 M1.13 79.93 C26.18 51, 51.27 21.47, 69.84 0.68 M0.48 79.44 C26.01 47.9, 52.99 18.49, 69.38 0.72 M2.25 85.71 C14.9 68.82, 28.27 52.26, 75.73 -1.71 M1.27 86.04 C28.07 53.41, 56.98 22.21, 74.15 -0.82 M1.83 90.62 C33.02 56.61, 65.53 18.5, 78.67 1.86 M0.92 90.69 C28.15 59.58, 55.11 27.29, 78.62 0.68 M-2.14 96.27 C19.47 74.26, 38.32 53.75, 85.45 0.98 M0.36 97.82 C20.4 73.94, 43.13 48.53, 84.13 -0.32 M1.79 104.68 C18.38 80.87, 37.56 57.88, 88.39 1.96 M1.09 103.31 C32.01 66.59, 63.9 29.08, 90.61 0.52 M1.27 111.85 C30.71 78.24, 57.06 41.97, 95.38 1.04 M-1.1 109.12 C27.92 77.75, 56.8 43.62, 95.45 -0.3 M1.49 113.73 C36.89 74.16, 74.71 31.42, 101.38 1.67 M0.02 116.44 C30.11 78.84, 61.83 44.81, 99.9 0.37 M1.37 122.67 C27.33 91.1, 56.96 56.82, 106.37 -0.26 M0.21 121.3 C23.76 92.91, 48.49 63.53, 105.94 0.6 M5.49 122.49 C38.17 82.22, 71.58 48.47, 110.92 0.83 M5.56 120.67 C28.72 96.52, 51.1 68.22, 110.63 -0.18 M11.11 119.48 C40.56 83.78, 71.05 49.96, 117.46 2.21 M10.36 120.64 C42.81 85.17, 74.46 48.74, 116.36 -0.09 M16.01 120.86 C41.42 91.87, 68.21 60.75, 121.15 -1.63 M15.87 122.02 C43.21 89.82, 72.01 55.22, 122.49 -0.14 M23.31 122.03 C58.61 77.03, 99.22 31.69, 128.56 -1.53 M21.94 120.7 C53.25 85.21, 85.39 47.67, 127 0.37 M28.89 119.87 C68.69 71.76, 111.09 26.33, 131.1 0.37 M27.42 122.03 C68.7 75.47, 108.3 28.47, 132.73 -1.04 M31.48 121.92 C72.53 73.35, 112.21 27.29, 136.46 -0.11 M32.97 121.19 C69.93 76.85, 109.38 34.24, 137.73 0.39 M36.08 119.67 C65.65 86.69, 96.39 55.8, 142.66 0.03 M37.5 121.6 C58.83 97.05, 81.62 72.47, 144.17 -1.01 M44.02 121.82 C68.53 95.73, 91.5 67.59, 149.51 0.24 M43.01 121.24 C81.43 74.47, 121.51 29.71, 148.66 1.07 M48.42 119.52 C88.92 74.71, 128.26 28.88, 152.61 1.66 M48.96 121.09 C84.76 79.44, 120.77 36.34, 153.19 -0.73 M51.54 120.33 C81.48 86.18, 113.78 51.07, 158.9 0.4 M52.53 122.19 C93.13 75.82, 132.98 31.04, 159.45 0.96 M59.61 121.79 C97.6 76, 136.18 29.89, 164.59 0.72 M58.21 122.29 C97.73 75.76, 135.1 31.77, 163.73 0.58 M65.52 120.88 C102.9 76.28, 140.33 32.11, 170.72 0.38 M63.53 122.52 C96.53 84, 128.42 46.25, 169.31 0.04 M70.24 120 C95.94 91.04, 120.43 60.16, 173.12 -0.22 M69.23 120.44 C103.22 81.42, 139.62 40.7, 175.3 -0.9 M74.3 120.29 C117.93 72.07, 158.87 24.19, 181.93 -0.68 M73.63 122.46 C108.87 83.83, 140.18 46.71, 181.04 -0.27 M79.77 122.79 C117.39 75.54, 155.39 33.85, 185.63 2.8 M79.54 122.19 C112.01 84.94, 142.09 49.68, 183 2.74 M85.79 121.76 C112.3 92.19, 139.01 61.04, 185.15 7.77 M84.62 120.87 C107.13 96.95, 129.4 71.91, 183.77 9.17 M90.53 121.91 C115.1 93.49, 141.64 64.31, 183.83 14.15 M90.25 121.66 C112.71 96.58, 135.52 70.6, 182.9 14.11 M94.75 119.62 C113.76 101.01, 133.81 78.55, 183.03 18.6 M95.9 122.09 C118.28 96.8, 139.47 71.15, 183.35 20.14 M99.74 120.24 C132.78 80.88, 166.92 45.16, 183.4 27.96 M102.03 120.38 C126.08 94.8, 148.35 67.64, 183.71 25.92 M106.84 123.31 C126.18 100.3, 147.32 75.5, 184.42 32.54 M106.41 121.87 C133.75 91.56, 159.66 61.28, 184.52 32.59 M111.47 119.81 C127.02 103.38, 142.31 83.95, 181.7 40.07 M111.08 121.34 C132.02 98.82, 151.45 74.53, 182.54 38.87 M118.58 121.41 C141.95 95.85, 163.7 67.7, 185.79 45.22 M116.65 121.42 C142.84 90.83, 170.71 61.41, 184.34 43.69 M120.69 121.73 C140.17 100.23, 156.17 79.84, 184.94 51.15 M123.21 120.94 C139.11 104.09, 155.39 85.86, 184.01 50.84 M129.36 121.6 C140.87 107.79, 154.48 95.22, 182.47 55.41 M126.69 121.36 C140.35 107.57, 152.32 92.27, 183.38 56.04 M133.22 122.28 C153.79 100.33, 171.91 80.17, 184.24 63.29 M133.75 121.06 C152.5 100.06, 169.6 79.05, 184.36 63.39 M137.45 122.72 C151.8 103.91, 166.68 88.34, 184.02 69.75 M138.15 121.78 C147.29 111.05, 156.3 100.24, 183.17 68.44 M145.78 120.83 C160.04 106.15, 172.75 89.93, 182.24 76.93 M143.62 120.97 C155.31 106.57, 166.89 94.18, 184.01 74.81 M148.01 122.72 C160.47 111.54, 167.1 97.36, 184.82 79.72 M148.24 122.18 C158.01 109.86, 168.21 99.36, 182.73 80.86 M153.96 119.9 C163.3 111.67, 174.97 99.54, 184.46 87.66 M155.3 121.41 C162.3 111.88, 172.46 100.66, 184.99 86.77 M161.04 122.65 C166.22 111.33, 172.95 104.8, 184.19 94.24 M159.7 121.51 C166.87 113.23, 173.29 106.34, 184.69 92.97 M163.55 121.88 C169 117.85, 172.64 110.12, 182.65 98.9 M164.15 121.3 C171.53 114.23, 177.8 107.2, 184.19 99.18 M171.46 122.73 C173.72 116.29, 179.74 110.16, 184.95 104.54 M170.85 122.16 C173.03 116.72, 177.44 113.26, 183.91 105.12 M173.86 121.91 C178.24 119.66, 180.59 116.04, 184.77 111.32 M175.1 121.08 C178.86 117.44, 182.26 113.78, 183.9 111.38 M180.8 121.56 C181.79 120.12, 181.74 119.23, 184.21 117.43 M180.94 121.49 C181.68 120.1, 182.72 118.72, 184.21 117.45" stroke="#ced4da" stroke-width="0.5" fill="none"></path><path d="M1.18 1.58 C58.38 1.78, 113.4 -0.03, 182.41 -0.91 M0.44 0.64 C45.6 -0.65, 92.65 -0.18, 181.15 0.99 M181.52 -0.62 C180.95 38.24, 181.32 74.62, 181.79 120.51 M180.96 -0.55 C181.22 37.75, 180.32 77.2, 181.29 121.39 M180.52 119.5 C143.19 122.69, 106.5 122.27, 1.19 119.46 M181.83 121.46 C134.66 120.22, 88.07 120.29, 0.45 120.62 M1.98 119.99 C-1.13 73.85, -1.09 28.89, 0.74 -0.52 M-0.21 120.32 C0.24 85.6, 1.4 48.55, -0.56 -0.26" stroke="#000000" stroke-width="1" fill="none"></path></g><g stroke-linecap="round"><g transform="translate(61.75445635338667 187.96197123433694) rotate(0 90.67422886020901 34.960974174470266)" fill-rule="evenodd"><path d="M0 0 C0 0, 0 0, 0 0 M0 0 C0 0, 0 0, 0 0 M-48.29 62.38 C-27.44 39.7, -10.96 18.08, 5.26 1.14 M-48.77 62.17 C-31.73 41.74, -12.87 22, 5.72 1.25 M-45.58 63.35 C-30.76 48.38, -17.08 31.33, 10.94 1.41 M-46.09 64.91 C-24.73 39.57, -4.48 16.91, 11.62 0.83 M-41.84 66.09 C-24.75 45.34, -3.71 21.62, 17.24 0.6 M-42.56 66.58 C-32.08 53.11, -20.29 38.89, 15.29 1.16 M-41.14 70.64 C-17.2 45.91, 4.59 19, 19.57 0.09 M-39.99 71.36 C-19.53 48.33, 0.9 25.13, 21.33 0.15 M-35.75 68.65 C-14.65 47.07, 7.94 22.33, 27.17 -0.03 M-35.49 70.99 C-10.99 43.98, 13.42 16.41, 27.18 0.23 M-31.38 70.55 C-6.49 45.4, 20.85 15.67, 31.59 1.72 M-29.59 70.75 C-12.33 50.56, 5.32 28.82, 32.75 -0.1 M-22.79 71.13 C-7.02 51.09, 9.31 31.5, 36.69 -0.97 M-24.71 69.98 C-2.18 45.16, 19.35 19.87, 37.55 -0.63 M-18.41 71.4 C-3.41 50.44, 14.75 32.93, 43.18 0.49 M-18.7 70.76 C2.42 48.03, 21.78 23.64, 42.27 0.22 M-12.54 70.02 C3.09 50.88, 22.57 30.33, 46.57 0.41 M-13.85 70.25 C5.35 48.7, 23.45 26.71, 47.99 1.01 M-7.98 70.34 C6.54 53.5, 20.45 40.53, 53.68 1.49 M-8.48 70.58 C9.35 48.92, 29.32 27.23, 53.71 -1.14 M-2.86 71.39 C21.02 42.1, 45.25 17.84, 56.67 1.64 M-2.54 70.75 C11.03 54.82, 26.04 37.02, 57.56 1.15 M1.3 71.38 C15.84 57.68, 26.26 41.02, 65.52 0.67 M1.37 70.96 C16.19 53.43, 29.78 36.14, 64.34 -0.92 M5.53 70.46 C19.39 54.89, 34.81 41.16, 70.02 -0.89 M7.09 70.28 C24.18 52.43, 39.66 31.71, 68.72 -0.64 M13.94 69.43 C33.55 44.64, 53.91 21.32, 76.28 0.88 M12.57 70.22 C29.34 50.46, 45.23 32.58, 74.84 -0.25 M19.71 72.56 C34.03 52.7, 45.63 36.13, 80.75 0.11 M16.97 70.43 C37.02 49.87, 54.46 28.68, 79.41 0.78 M21.58 70.25 C41.14 51.65, 57.45 32.32, 86.66 -0.18 M24.29 70.25 C42.56 48.06, 64.13 23.16, 85.36 -0.73 M29.87 69.89 C43.75 56.12, 54.58 38.36, 90.11 -1.24 M28.5 70.37 C52.16 43.71, 74.64 17.02, 90.97 0.08 M34.97 70.5 C45.11 56.6, 61.43 38.94, 96.48 -1.92 M33.14 70.47 C53.6 48.76, 70.19 28.07, 95.47 -0.38 M37.34 69.55 C55.96 47.68, 76.36 28.93, 102.5 0.11 M38.5 70.82 C58.68 49.39, 77.83 27.91, 100.2 -0.46 M44 69.69 C65.28 47.36, 84.34 24.13, 104.69 -0.9 M45.17 69.9 C70.34 42.09, 93.26 15.26, 106.18 0.33 M50.56 69.49 C70.91 47.28, 90.66 24.53, 109.42 0.03 M49.22 70.06 C65.24 53.19, 79.18 36.14, 111.32 0.96 M53.68 70.21 C69.81 51.61, 88.6 31.14, 116.7 2 M55.84 71.11 C68.9 54.81, 81.55 39.72, 115.29 1.25 M61.11 70.55 C79.94 46.32, 101.17 23.14, 121.5 1.3 M60.38 69.95 C79.02 48.79, 99.7 27.01, 122 -0.27 M64.15 69.35 C81.72 51.53, 101.61 30.61, 127.02 -1.55 M66.07 70.22 C85.18 49.67, 104.4 28.19, 125.98 -0.45 M71.68 72.43 C87.56 54.5, 101.26 36.99, 132.51 1.58 M71.1 69.9 C93.18 43.78, 117.34 18.99, 133.35 0.79 M74.65 71.24 C97.75 45.19, 120.12 19.83, 139.32 1.3 M76.23 70.93 C99.16 43.79, 120.92 17.93, 136.93 0.18 M80.1 69.72 C104.31 45.25, 127.53 17.72, 143.34 1.38 M81.95 70.87 C96.86 53.42, 113.32 35.37, 143.9 0.64 M87.59 70.92 C110.82 42.46, 133.85 15.63, 149.05 1.52 M88.09 70.49 C101.04 52.51, 116.24 35.2, 148.9 0.95 M91.31 71.87 C114.28 43.64, 137.67 19.11, 153.98 0.09 M92.95 71.41 C113.93 45.38, 135.9 20.32, 153.65 -0.64 M96.47 70.27 C113.88 49.96, 129.1 31.5, 158.77 0.92 M96.9 69.72 C121.01 45.09, 143.38 19.11, 158.09 1.2 M101.38 71.23 C114.2 55.73, 127.18 43.58, 163.59 -0.01 M103.55 71.62 C115.2 56.21, 128.25 42.84, 164 0.56 M109.26 70.82 C129.46 43.82, 155.19 20.02, 170.19 0.23 M108.67 71.75 C125.55 50.03, 144.4 29, 170.12 -0.15 M113.52 71 C126.84 56.26, 138.84 41.81, 174.4 -1.77 M112.63 71.14 C132.56 50.03, 151.59 27.56, 175.8 -0.55 M119.04 70.7 C136.24 52.92, 152.55 31.52, 180.13 -0.97 M118.8 71.03 C141.32 46.47, 163.12 20.43, 180.09 -0.65 M122.04 69.26 C141.49 51.86, 157.24 33.37, 181.85 1.09 M124.51 71.22 C143.41 48.57, 162 27.36, 183.39 3.03 M128.04 69.21 C142.28 52.98, 160.03 35.37, 187.93 5.06 M128.18 71.79 C142.09 55.63, 154.56 40.94, 185.89 5.05 M136.4 70.98 C157.91 47.29, 177.68 22.55, 189.13 8.98 M134.96 70.63 C147.95 55.2, 161.12 42.53, 189.19 7.15 M138.27 71.72 C159.44 48.91, 177.47 23.14, 192.62 11.12 M139.8 71.13 C158.71 49.88, 175.9 29.06, 191.43 11.99 M145.16 71.99 C163.07 50.96, 178.48 35.22, 194.5 16.65 M145.17 69.73 C155.79 58.77, 167.62 45.83, 192.97 14.66 M150.86 70.52 C159.41 58.11, 169.02 49.97, 197.05 16.67 M150.08 71.65 C166.37 54.62, 181.33 37.07, 196.74 16.6 M156.02 70.99 C165 61.92, 175.26 48.66, 198.03 19.23 M155.78 70.42 C166.11 59.01, 174.98 47.81, 198.66 21.49 M162.08 72.75 C172.77 59.31, 185.27 45.64, 202.53 24.79 M160.85 71.56 C172.99 56.34, 185.11 44.35, 202.64 23.59 M167.8 69.57 C174.87 59.44, 185.19 49.63, 204.95 25 M166.86 70.18 C178.7 56.33, 190.46 43.52, 203.65 27.4 M171.29 72.42 C181.47 60.85, 190.1 49.88, 208.86 30.2 M171.43 70.62 C183.41 55.83, 197.39 42.33, 206.73 30.01 M178.46 72.19 C187.13 59.3, 192.8 52.22, 208.27 32.37 M177.92 70.04 C186.58 59.44, 197.05 47.2, 209.41 32.97 M181.03 70.45 C192.95 61.97, 201.02 49.65, 212.92 36.22 M182.53 70.13 C195.04 57.62, 205.82 44.59, 212.04 36.19 M189.06 70.18 C196.23 57.74, 208.23 47.4, 215.47 39.35 M187.92 70.61 C193.15 63.73, 199.75 58.95, 214.2 39.06 M192.92 70.59 C201.07 61.9, 205.49 54.77, 216.76 43.31 M192.33 70.98 C198.38 64.5, 204.4 59.55, 217.03 42.31 M199.8 69.76 C204.32 64.48, 209.1 57.67, 219.12 44.58 M199.24 70.04 C205.37 61.98, 213.58 52.63, 219.69 45.88 M203.72 71.5 C212.79 62.23, 219.79 55.36, 221.53 50.82 M202.43 71.61 C210.25 63.08, 218.05 54.06, 221.63 48.08 M210 72.01 C213.6 61.84, 219.49 56.91, 224.94 51.84 M209.69 70.06 C213.2 64.92, 216.8 60.99, 225.03 51.42 M213.31 70.69 C217.13 63.9, 223.3 58.12, 229.51 54.69 M213.87 70.03 C217.8 66.52, 220.85 63.05, 227.16 54.54 M217.7 69.86 C220.73 68.85, 223.67 64.88, 229.86 59.57 M219.76 70.78 C223.51 65.27, 227.93 60.29, 230.68 59.12" stroke="#ced4da" stroke-width="0.5" fill="none"></path><path d="M1.58 1.33 C-19.91 23.31, -41.47 48.64, -51.32 59.57 M0.64 -0.46 C-20.3 24.25, -39.42 46.9, -49.42 60.5 M-50.84 59.97 C-46.08 63.36, -43.04 66.98, -41.22 70.56 M-50.79 60.64 C-48.36 62.63, -45.19 65.52, -40.61 69.71 M-42.08 70.47 C40.07 72.89, 119.31 72.26, 220.82 69.64 M-40.52 70.25 C60.03 69.63, 161.62 69.95, 221.73 70.94 M221.33 69.66 C224.24 66.49, 227.92 64.54, 231.53 60.44 M221.57 70.15 C224.9 68.42, 226.62 64.83, 231.71 59.9 M229.97 62.07 C216.9 46.14, 205.35 29.52, 182 0.8 M232.67 61.27 C213.07 37.65, 192.92 13.63, 181.76 0.84 M182.88 1.21 C112.88 -2.25, 44.75 -2.5, 1.27 -1.66 M182.47 -0.59 C137.56 -1.33, 93.07 -0.85, -0.38 0.58 M0 0 C0 0, 0 0, 0 0 M0 0 C0 0, 0 0, 0 0" stroke="#000000" stroke-width="1" fill="none"></path></g></g><mask></mask><g stroke-linecap="round" transform="translate(65.86455614670638 70.69316261073209) rotate(0 85.95465554728176 55.61771829529971)"><path d="M0.84 1.34 L169.98 1.58 L170.02 111.97 L-0.58 110.78" stroke="none" stroke-width="0" fill="#fff"></path><path d="M1.33 0.33 C37.2 -2.83, 76.73 -2.27, 170.99 1.77 M-0.46 -0.7 C51.65 -1.33, 101.91 -0.1, 171.92 0.2 M171.14 1.85 C171.52 38.19, 172.24 72.23, 172.26 110.43 M172.13 -0.68 C170.65 38, 171.14 75.71, 171.03 111.26 M172.1 112.98 C122.76 111.28, 70.83 108.43, -0.85 112.96 M171.82 110.46 C120.39 111.34, 69.2 111.67, 0.78 111.39 M-0.95 109.89 C-2.01 81.02, -0.36 51.33, -0.08 -0.78 M-0.23 111.67 C1.16 76.34, -0.32 42.77, -0.85 -0.45" stroke="#000000" stroke-width="1" fill="none"></path></g><g transform="translate(110.80358669398817 90.3108809060318) rotate(0 41.015625 36)"><text x="41.015625" y="0" font-family="Cascadia, Segoe UI Emoji" font-size="20px" fill="#2f9e44" text-anchor="middle" style="white-space: pre;" direction="ltr" dominant-baseline="text-before-edge">Linux</text><text x="41.015625" y="24" font-family="Cascadia, Segoe UI Emoji" font-size="20px" fill="#2f9e44" text-anchor="middle" style="white-space: pre;" direction="ltr" dominant-baseline="text-before-edge">Gentoo</text><text x="41.015625" y="48" font-family="Cascadia, Segoe UI Emoji" font-size="20px" fill="#2f9e44" text-anchor="middle" style="white-space: pre;" direction="ltr" dominant-baseline="text-before-edge">Node 19</text></g><g stroke-linecap="round"><g transform="translate(132.11171452364465 217.37889829586084) rotate(0 20.817109163261563 10.261379166211555)" fill-rule="evenodd"><path d="M1.4 1.21 L-10.19 18.8 L50.66 18.55 L41.6 -1.66 L-1.18 1.45" stroke="none" stroke-width="0" fill="#fff" fill-rule="evenodd"></path><path d="M-0.7 -1.47 C-2.76 6.75, -8.43 17.07, -10.13 21.05 M0.52 -0.23 C-4.1 8.26, -7.42 14.8, -9.81 20.18 M-10.49 21.99 C6.49 19.13, 22.8 18.81, 51.18 19.12 M-10.76 20.51 C4.55 20.98, 18.68 20.6, 50.39 19.69 M52.39 21.49 C49.31 14.18, 45 12.89, 40.33 0.7 M50.47 19.47 C47.38 12.72, 44.22 6.25, 40 0.99 M39.43 -0.52 C30.99 -0.79, 20.1 -1.06, 0.13 -0.42 M41.26 -0.8 C30.37 -0.08, 20.67 -0.27, 0.42 0.67 M0 0 C0 0, 0 0, 0 0 M0 0 C0 0, 0 0, 0 0" stroke="#000000" stroke-width="1" fill="none"></path></g></g><mask></mask><g stroke-linecap="round"><g transform="translate(11.12269350530579 247.62615355044863) rotate(0 140.93078109032885 0.0724074578906766)"><path d="M-1.12 0.7 C102.77 0.05, 208.28 0.71, 282.98 0.97 M-0.17 -0.26 C72.39 -1.12, 143.42 -0.92, 282.32 -0.24" stroke="#000000" stroke-width="1" fill="none"></path></g></g><mask></mask><g stroke-linecap="round" transform="translate(1218.1859987970308 66.40781198431932) rotate(0 49.118816675057246 91.6884577934402)"><path d="M0 0 L98.24 0 L98.24 183.38 L0 183.38" stroke="none" stroke-width="0" fill="#ced4da"></path><path d="M0 0 C26.22 0, 52.44 0, 98.24 0 M0 0 C37.56 0, 75.13 0, 98.24 0 M98.24 0 C98.24 58.93, 98.24 117.87, 98.24 183.38 M98.24 0 C98.24 42.07, 98.24 84.15, 98.24 183.38 M98.24 183.38 C59.99 183.38, 21.74 183.38, 0 183.38 M98.24 183.38 C66.36 183.38, 34.48 183.38, 0 183.38 M0 183.38 C0 121.77, 0 60.16, 0 0 M0 183.38 C0 112.99, 0 42.6, 0 0" stroke="#000000" stroke-width="2" fill="none"></path></g><g transform="translate(1195.3855623984043 10.38961038960997) rotate(0 73.8093490600586 15.116153808457966)"><text x="73.8093490600586" y="0" font-family="Cascadia, Segoe UI Emoji" font-size="25.19358968076363px" fill="#2f9e44" text-anchor="middle" style="white-space: pre;" direction="ltr" dominant-baseline="text-before-edge">Production</text></g><g stroke-linecap="round"><g transform="translate(1230.0070797103212 86.6939737543712) rotate(0 37.65775945087705 4.547473508864641e-13)"><path d="M0 0 C12.55 0, 62.76 0, 75.32 0 M0 0 C12.55 0, 62.76 0, 75.32 0" stroke="#000000" stroke-width="2" fill="none"></path></g></g><mask></mask><g stroke-linecap="round"><g transform="translate(1229.6470560212097 101.93813427573104) rotate(0 37.65775945087705 4.547473508864641e-13)"><path d="M0 0 C12.55 0, 62.76 0, 75.32 0 M0 0 C12.55 0, 62.76 0, 75.32 0" stroke="#000000" stroke-width="2" fill="none"></path></g></g><mask></mask><g stroke-linecap="round"><g transform="translate(1229.565643743019 120.4541895608304) rotate(0 37.65775945087705 4.547473508864641e-13)"><path d="M0 0 C12.55 0, 62.76 0, 75.32 0 M0 0 C12.55 0, 62.76 0, 75.32 0" stroke="#000000" stroke-width="2" fill="none"></path></g></g><mask></mask><g stroke-linecap="round"><g transform="translate(1229.565643743019 137.33429746406136) rotate(0 37.65775945087705 4.547473508864641e-13)"><path d="M0 0 C12.55 0, 62.76 0, 75.32 0 M0 0 C12.55 0, 62.76 0, 75.32 0" stroke="#000000" stroke-width="2" fill="none"></path></g></g><mask></mask><g stroke-linecap="round" transform="translate(968.4457390567709 66.01820159470981) rotate(0 49.11881667505736 91.6884577934402)"><path d="M0 0 L98.24 0 L98.24 183.38 L0 183.38" stroke="none" stroke-width="0" fill="#ced4da"></path><path d="M0 0 C39.19 0, 78.38 0, 98.24 0 M0 0 C37.41 0, 74.82 0, 98.24 0 M98.24 0 C98.24 51.07, 98.24 102.14, 98.24 183.38 M98.24 0 C98.24 61.84, 98.24 123.69, 98.24 183.38 M98.24 183.38 C69.07 183.38, 39.91 183.38, 0 183.38 M98.24 183.38 C59.83 183.38, 21.43 183.38, 0 183.38 M0 183.38 C0 146.41, 0 109.43, 0 0 M0 183.38 C0 115.12, 0 46.86, 0 0" stroke="#f08c00" stroke-width="2" fill="none"></path></g><g transform="translate(953.0262383270897 10) rotate(0 66.42841339111328 15.116153808458193)"><text x="66.42841339111328" y="0" font-family="Cascadia, Segoe UI Emoji" font-size="25.19358968076363px" fill="#f08c00" text-anchor="middle" style="white-space: pre;" direction="ltr" dominant-baseline="text-before-edge">Staging 2</text></g><g stroke-linecap="round"><g transform="translate(980.2668199700613 86.30436336476077) rotate(0 37.65775945087705 4.547473508864641e-13)"><path d="M0 0 C12.55 0, 62.76 0, 75.32 0 M0 0 C12.55 0, 62.76 0, 75.32 0" stroke="#f08c00" stroke-width="2" fill="none"></path></g></g><mask></mask><g stroke-linecap="round"><g transform="translate(979.9067962809497 101.54852388612153) rotate(0 37.65775945087705 4.547473508864641e-13)"><path d="M0 0 C12.55 0, 62.76 0, 75.32 0 M0 0 C12.55 0, 62.76 0, 75.32 0" stroke="#f08c00" stroke-width="2" fill="none"></path></g></g><mask></mask><g stroke-linecap="round"><g transform="translate(979.8253840027592 120.06457917122088) rotate(0 37.65775945087705 4.547473508864641e-13)"><path d="M0 0 C12.55 0, 62.76 0, 75.32 0 M0 0 C12.55 0, 62.76 0, 75.32 0" stroke="#f08c00" stroke-width="2" fill="none"></path></g></g><mask></mask><g stroke-linecap="round"><g transform="translate(979.8253840027592 136.94468707445094) rotate(0 37.65775945087705 4.547473508864641e-13)"><path d="M0 0 C12.55 0, 62.76 0, 75.32 0 M0 0 C12.55 0, 62.76 0, 75.32 0" stroke="#f08c00" stroke-width="2" fill="none"></path></g></g><mask></mask><g stroke-linecap="round" transform="translate(716.1080767191086 66.92729250379989) rotate(0 49.118816675057246 91.6884577934402)"><path d="M0 0 L98.24 0 L98.24 183.38 L0 183.38" stroke="none" stroke-width="0" fill="#ced4da"></path><path d="M0 0 C32.75 0, 65.49 0, 98.24 0 M0 0 C36.01 0, 72.01 0, 98.24 0 M98.24 0 C98.24 44.56, 98.24 89.13, 98.24 183.38 M98.24 0 C98.24 39.5, 98.24 79.01, 98.24 183.38 M98.24 183.38 C77.66 183.38, 57.08 183.38, 0 183.38 M98.24 183.38 C77.57 183.38, 56.89 183.38, 0 183.38 M0 183.38 C0 146.22, 0 109.05, 0 0 M0 183.38 C0 112.21, 0 41.03, 0 0" stroke="#1971c2" stroke-width="2" fill="none"></path></g><g transform="translate(700.6885759894274 10.909090909090537) rotate(0 66.42841339111328 15.116153808457966)"><text x="66.42841339111328" y="0" font-family="Cascadia, Segoe UI Emoji" font-size="25.19358968076363px" fill="#1971c2" text-anchor="middle" style="white-space: pre;" direction="ltr" dominant-baseline="text-before-edge">Staging 1</text></g><g stroke-linecap="round"><g transform="translate(727.929157632399 87.21345427385177) rotate(0 37.65775945087705 4.547473508864641e-13)"><path d="M0 0 C12.55 0, 62.76 0, 75.32 0 M0 0 C12.55 0, 62.76 0, 75.32 0" stroke="#1971c2" stroke-width="2" fill="none"></path></g></g><mask></mask><g stroke-linecap="round"><g transform="translate(727.5691339432874 102.45761479521161) rotate(0 37.65775945087705 4.547473508864641e-13)"><path d="M0 0 C12.55 0, 62.76 0, 75.32 0 M0 0 C12.55 0, 62.76 0, 75.32 0" stroke="#1971c2" stroke-width="2" fill="none"></path></g></g><mask></mask><g stroke-linecap="round"><g transform="translate(727.4877216650968 120.97367008031097) rotate(0 37.65775945087705 4.547473508864641e-13)"><path d="M0 0 C12.55 0, 62.76 0, 75.32 0 M0 0 C12.55 0, 62.76 0, 75.32 0" stroke="#1971c2" stroke-width="2" fill="none"></path></g></g><mask></mask><g stroke-linecap="round"><g transform="translate(727.4877216650968 137.85377798354193) rotate(0 37.65775945087705 4.547473508864641e-13)"><path d="M0 0 C12.55 0, 62.76 0, 75.32 0 M0 0 C12.55 0, 62.76 0, 75.32 0" stroke="#1971c2" stroke-width="2" fill="none"></path></g></g><mask></mask><g transform="translate(122.95268187979389 24.362293376557318) rotate(0 17.578125 12.000000000000227)"><text x="17.578125" y="0" font-family="Cascadia, Segoe UI Emoji" font-size="20px" fill="#2f9e44" text-anchor="middle" style="white-space: pre;" direction="ltr" dominant-baseline="text-before-edge">Dev</text></g><g stroke-linecap="round"><g transform="translate(260.0113263603133 157.76864137588154) rotate(0 223.7738316519888 1.0795765012017)"><path d="M-0.67 0.72 C73.84 1.37, 372.76 3.5, 448.22 3.52 M4.16 -1.36 C78.1 -1.4, 370.77 -0.98, 445.37 -0.11" stroke="#2f9e44" stroke-width="1" fill="none"></path></g><g transform="translate(260.0113263603133 157.76864137588154) rotate(0 223.7738316519888 1.0795765012017)"><path d="M418.14 8.37 C430.39 10.56, 436.15 2.6, 447.52 0.64 M417.47 8.39 C425.18 9.5, 433.13 5.4, 444.19 1.84" stroke="#2f9e44" stroke-width="1" fill="none"></path></g><g transform="translate(260.0113263603133 157.76864137588154) rotate(0 223.7738316519888 1.0795765012017)"><path d="M418.26 -12.15 C430.41 -2.98, 436.13 -3.96, 447.52 0.64 M417.58 -12.13 C424.92 -5.36, 432.84 -3.8, 444.19 1.84" stroke="#2f9e44" stroke-width="1" fill="none"></path></g></g><mask></mask><g transform="translate(346.1771136979756 123.06359207785636) rotate(0 76.171875 12)"><text x="76.171875" y="0" font-family="Cascadia, Segoe UI Emoji" font-size="20px" fill="#2f9e44" text-anchor="middle" style="white-space: pre;" direction="ltr" dominant-baseline="text-before-edge">Deploy a13bcs</text></g><g stroke-linecap="round"><g transform="translate(817.1541835031703 152.11455795598204) rotate(0 73.87892742687518 -2.075518007939081)"><path d="M-2.02 1.05 C22.09 0.87, 119.44 -0.68, 144.56 -1.35 M2.08 -0.85 C27.07 -1.76, 125.47 -5.41, 149.78 -5.19" stroke="#2f9e44" stroke-width="1" fill="none"></path></g><g transform="translate(817.1541835031703 152.11455795598204) rotate(0 73.87892742687518 -2.075518007939081)"><path d="M123.27 2.44 C133.18 5.56, 139.21 2.7, 152.51 -6.89 M122.06 5.29 C129.48 2.39, 138.67 -0.26, 150.94 -4.72" stroke="#2f9e44" stroke-width="1" fill="none"></path></g><g transform="translate(817.1541835031703 152.11455795598204) rotate(0 73.87892742687518 -2.075518007939081)"><path d="M122.91 -18.08 C132.88 -8.86, 139.02 -5.63, 152.51 -6.89 M121.69 -15.23 C128.87 -11.42, 138.17 -7.35, 150.94 -4.72" stroke="#2f9e44" stroke-width="1" fill="none"></path></g></g><mask></mask><g stroke-linecap="round"><g transform="translate(1071.6996380486248 149.79563065131651) rotate(0 69.94633612905614 0.9396534565312322)"><path d="M-2.74 -1.87 C21.47 -0.96, 118.72 3.15, 142.64 3.75 M0.96 3.28 C25.26 3.53, 118.64 -0.65, 141.69 -0.42" stroke="#2f9e44" stroke-width="1" fill="none"></path></g><g transform="translate(1071.6996380486248 149.79563065131651) rotate(0 69.94633612905614 0.9396534565312322)"><path d="M111.04 13.82 C121.8 9.45, 124.7 2.71, 139.8 -4.32 M115.61 10.1 C122.65 6.28, 132.04 2.19, 143.59 -2.16" stroke="#2f9e44" stroke-width="1" fill="none"></path></g><g transform="translate(1071.6996380486248 149.79563065131651) rotate(0 69.94633612905614 0.9396534565312322)"><path d="M110.61 -6.7 C121.21 -6.83, 124.19 -9.36, 139.8 -4.32 M115.18 -10.42 C122.5 -7.32, 132.04 -4.47, 143.59 -2.16" stroke="#2f9e44" stroke-width="1" fill="none"></path></g></g><mask></mask><g transform="translate(731.3485828538196 168.20644922071415) rotate(0 35.15625 12)"><text x="35.15625" y="0" font-family="Cascadia, Segoe UI Emoji" font-size="20px" fill="#1971c2" text-anchor="middle" style="white-space: pre;" direction="ltr" dominant-baseline="text-before-edge">a13bcs</text></g><g transform="translate(982.9070244122611 163.92073493500038) rotate(0 35.15625 12)"><text x="35.15625" y="0" font-family="Cascadia, Segoe UI Emoji" font-size="20px" fill="#f08c00" text-anchor="middle" style="white-space: pre;" direction="ltr" dominant-baseline="text-before-edge">a13bcs</text></g><g transform="translate(1234.4654659707026 159.6350206492857) rotate(0 35.15625 12)"><text x="35.15625" y="0" font-family="Cascadia, Segoe UI Emoji" font-size="20px" fill="#2f9e44" text-anchor="middle" style="white-space: pre;" direction="ltr" dominant-baseline="text-before-edge">a13bcs</text></g></svg>